<svg xmlns="http://www.w3.org/2000/svg" width="483.468" height="174.048"><defs><clipPath id="a"><path d="M0-841.89h595.28V0H0v-841.89z"/></clipPath></defs><g clip-path="url(#a)" fill="#272c2d"><path d="M1.868 93.74l7.223-2.95c-1.172-7.29 1.73-18.348 6.602-20.692l-.473-13.21S2.96 65.422 0 66.43l1.868 27.31z"/><path d="M67.887 98.778l-6.692-4.014c2.265-7.026 1.074-18.396-3.385-21.454l2.473-12.984s10.823 10.295 13.594 11.74l-5.99 26.712z"/><path d="M39.444 37.25c-5.97-.456-10.44-5.666-9.984-11.636.455-5.968 5.663-10.44 11.633-9.983 5.97.456 10.44 5.664 9.986 11.635-.458 5.97-5.667 10.44-11.636 9.985M42.276.007V0c-.002.002-.005.002-.007.003-.004 0-.006-.002-.01-.003v.006C4.795 11.97 12.305 54.028 17.964 89.093l17.26 1.316.293.022 17.26 1.318C63.69 57.95 77.493 17.517 42.278.007"/><path d="M28.99 174.048c6.328-5.128 14.467-46.03 15.766-59.21 1.3-13.182.984-18.07-1.192-19.92-1.26-1.07-5.99 3.098-8.714 2.33-2.81.346-6.854-4.49-8.26-3.624-2.434 1.497-3.485 6.28-4.202 19.506-.715 13.227 1.126 54.89 6.602 60.918"/><path d="M237.11 85.456c-.56-1.708-.842-3.72-.834-6 .007-3.187.478-6.385 1.383-9.51.18-.298.35-.603.495-.913.237-.583.342-1.076.386-1.523.955-2.084 2.288-3.762 3.995-5.01.68-.523 1.333-.778 1.997-.778.53 0 1.083.17 1.64.505 1.31.787 2.037 2.215 2.227 4.365.195 2.226-.54 5.064-2.182 8.432-1.57 3.218-4.63 6.725-9.108 10.432m-64.29 10.892c-.56-1.705-.84-3.716-.834-5.996.005-3.273.493-6.56 1.448-9.764.928-3.117 2.542-5.533 4.81-7.195.68-.522 1.335-.776 1.998-.776.53 0 1.082.168 1.64.505 1.308.787 2.037 2.214 2.227 4.363.194 2.228-.54 5.067-2.182 8.433-1.568 3.22-4.632 6.725-9.108 10.43m131.953-24.853c-.14-.038-.28-.058-.422-.058-1.307 0-2.14 1.58-2.665 2.804-1.283 3.497-2.874 6.57-4.735 9.133-1.787 2.463-3.495 3.85-5.074 4.114-.172.03-.335.046-.487.046-.418 0-1.284 0-1.37-1.905-.09-1.872.182-4.33.805-7.3.638-3.035 1.426-6.35 2.342-9.855.934-3.58 1.59-6.914 1.95-9.905.366-3.07.207-5.615-.475-7.565-.76-2.162-2.662-3.07-5.504-2.588-1.62.273-3.263 1.196-4.88 2.74-1.556 1.485-3.128 3.43-4.677 5.785-1.53 2.332-3.013 4.978-4.402 7.862-.562 1.164-1.112 2.355-1.648 3.565l2.303-14.034c.218-1.117-.284-1.99-1.413-2.456-.923-.38-1.958-.525-3.112-.44-1.138.09-2.223.434-3.225 1.023-1.103.647-1.737 1.583-1.883 2.757l-1.924 12.402c-.457 2.95-.963 6.054-1.512 9.305-.24 1.434-.48 2.817-.717 4.177-1.37 2.788-2.827 5.288-4.34 7.42-1.505 2.115-3.697 3.755-6.5 4.862-2.382.854-4.727.915-7.007.175-2.1-.677-3.845-2.08-5.195-4.175 6.688-5.554 11.482-10.69 14.253-15.276 2.862-4.74 4.25-8.726 4.12-11.846-.138-3.26-1.54-5.516-4.167-6.71-2.555-1.155-5.7-.927-9.36.702-2.384 1.095-4.604 2.745-6.6 4.903-1.978 2.142-3.73 4.607-5.206 7.33-.39.717-.755 1.452-1.103 2.2-.166.09-.32.192-.496.277-1.54.745-2.94 1.21-4.17 1.394l.048-.618c.166-1.27.297-2.66.39-4.14.09-1.5.033-2.873-.17-4.08-.217-1.276-.64-2.31-1.257-3.072-.694-.857-1.667-1.22-2.86-1.02-1.416.243-2.58 1.155-3.455 2.712-.817 1.455-1.31 3.103-1.46 4.894-.148 1.777.024 3.55.515 5.266.47 1.644 1.355 2.852 2.636 3.602-.408 2.383-.942 4.86-1.584 7.364-.682 2.672-1.44 5.123-2.252 7.29-.8 2.13-1.738 3.933-2.786 5.354-.978 1.324-1.996 2.084-3.02 2.257-1.014.17-1.765-.186-2.36-1.176-.682-1.127-1.146-2.672-1.378-4.585-.24-1.963-.3-4.284-.177-6.9.124-2.628.394-5.287.8-7.9.407-2.63.913-5.163 1.505-7.53.586-2.352 1.22-4.364 1.878-5.964.227-.51.25-.962.073-1.35-.173-.377-.505-.64-.99-.79-.705-.213-1.536-.24-2.48-.083-.9.154-1.833.466-2.773.93-1.02.506-1.695 1.07-2.075 1.763-1.083 2.224-2.026 4.942-2.802 8.08-.77 3.107-1.378 6.43-1.805 9.87-.387 3.11-.59 6.253-.627 9.36-1.38 2.83-2.86 5.358-4.392 7.518-1.504 2.115-3.697 3.754-6.5 4.864-2.38.854-4.727.913-7.006.177-2.1-.68-3.845-2.083-5.195-4.176 6.688-5.553 11.48-10.69 14.25-15.277 2.866-4.737 4.252-8.723 4.123-11.845-.138-3.26-1.54-5.517-4.168-6.71-2.556-1.155-5.7-.926-9.36.7-2.384 1.096-4.605 2.748-6.6 4.906-1.977 2.14-3.73 4.605-5.206 7.33-1.48 2.724-2.653 5.678-3.484 8.78-.832 3.088-1.29 6.194-1.362 9.217-.01.24.005.46 0 .695-1.26 3.355-2.802 6.317-4.597 8.79-1.788 2.465-3.495 3.848-5.074 4.114-.58.1-1.023.038-1.267-.212-.286-.287-.437-.716-.46-1.307-.033-.716.02-1.628.16-2.714l.474-3.657c.04-.83.295-2.71.756-5.592.465-2.903.994-6.302 1.583-10.19.586-3.887 1.203-8.02 1.853-12.395.626-4.24 1.276-8.385 1.934-12.32.643-3.85 1.184-7.154 1.63-9.915.436-2.726.743-4.455.91-5.15.35-1.63-.37-2.442-1.036-2.838-.832-.49-1.84-.643-3.035-.44-1.107.188-2.232.638-3.35 1.34-1.182.75-1.954 1.773-2.292 3.054-.173.718-.48 2.357-.918 4.87-.446 2.588-.925 5.624-1.422 9.03-.51 3.488-1.063 7.295-1.66 11.424-.594 4.123-1.203 8.154-1.83 12.09-.395 2.488-.768 4.856-1.124 7.124-.28-.718-.817-.813-1.065-.813-.12 0-.245.018-.367.056-.5.15-1.062.588-1.764 1.38-.656.734-1.242 1.713-1.734 2.886-2.406 5.19-5.236 9.18-8.413 11.86-3.142 2.65-6.284 4.12-9.325 4.363-2.323.13-4.294-.327-5.883-1.345-1.603-1.02-2.834-2.398-3.658-4.094-.837-1.722-1.306-3.677-1.392-5.807-.088-2.153.18-4.302.792-6.392.612-2.07 1.612-3.984 2.974-5.682 1.35-1.68 3.063-2.983 5.05-3.855 1.72-.62 1.89-1.454 1.727-2.05-.173-.62-.64-1.194-1.46-1.774-1.996-1.264-3.21-3.31-3.71-6.264-.51-3.015-.37-6.214.42-9.504.79-3.297 2.142-6.307 4.017-8.946 1.825-2.57 4.156-4.204 6.915-4.852 1.835-.397 3.247-.306 4.153.268.92.585 1.475 1.39 1.7 2.462.237 1.15.19 2.486-.14 3.977-.342 1.535-.88 3.027-1.605 4.434-.722 1.403-1.58 2.64-2.55 3.675-.89.95-1.778 1.466-2.7 1.538-1.34.227-2.117 1.14-2.182 2.568-.06 1.263.372 2.55 1.276 3.823.887 1.253 2.232 2.282 3.997 3.053 1.8.794 4.055.76 6.632-.083 2.326-.7 4.254-2.11 5.73-4.187 1.438-2.023 2.434-4.303 2.96-6.774.52-2.462.536-5.045.042-7.678-.5-2.652-1.53-4.98-3.055-6.917-1.54-1.955-3.696-3.423-6.405-4.365-2.712-.94-6.015-.94-9.797-.005-5.543 1.33-9.87 3.66-12.863 6.925-2.985 3.257-4.896 6.822-5.683 10.6-.79 3.786-.54 7.475.744 10.964 1.088 2.966 2.8 5.31 5.1 6.99-1.097.34-2.244.847-3.43 1.512-1.76.99-3.454 2.324-5.04 3.968-1.594 1.65-3.01 3.705-4.214 6.11-1.214 2.416-2.01 5.21-2.364 8.298-.47 3.61-.158 7.07.93 10.288 1.084 3.215 2.692 5.893 4.775 7.966 2.094 2.083 4.608 3.504 7.472 4.214 1.005.25 2.044.375 3.086.375 1.944 0 3.973-.44 6.035-1.308 2.286-.974 4.66-2.442 7.055-4.354 2.387-1.903 4.68-4.156 6.815-6.695 2.132-2.536 4.083-5.314 5.802-8.255 1.604-2.75 2.92-5.552 3.94-8.342l-1.217 7.855c-.29 1.673-.546 3.47-.76 5.344-.22 1.917-.196 3.67.064 5.212.274 1.614.873 2.924 1.783 3.89.73.777 1.787 1.17 3.137 1.17.46 0 .96-.046 1.493-.137 1.866-.315 3.867-1.26 5.948-2.81 2.04-1.518 3.95-3.373 5.68-5.516 1.666-2.065 3.173-4.294 4.484-6.628.012.032.018.068.03.1.948 2.372 2.242 4.327 3.845 5.807 1.607 1.484 3.465 2.522 5.524 3.08 1.234.334 2.504.503 3.775.503.83 0 1.683-.072 2.53-.216 2.874-.486 5.528-1.485 7.883-2.97 2.342-1.47 4.465-3.27 6.307-5.337 1.713-1.92 3.2-4.028 4.45-6.262.1.54.2 1.076.324 1.585.66 2.73 1.72 4.89 3.136 6.414 1.206 1.296 2.718 1.954 4.493 1.954.432 0 .89-.04 1.357-.12 2.392-.404 4.58-1.8 6.506-4.146 1.856-2.258 3.548-5.058 5.036-8.317 1.474-3.236 2.752-6.8 3.794-10.59.99-3.6 1.816-7.088 2.454-10.37 1.034-.05 2.106-.233 3.2-.545.032-.01.066-.025.1-.035-.094.32-.202.637-.288.964-.832 3.09-1.29 6.197-1.363 9.218-.132 3.266.28 6.124 1.224 8.49.95 2.375 2.242 4.328 3.846 5.808 1.608 1.486 3.465 2.52 5.523 3.078 1.234.338 2.505.505 3.776.505.83 0 1.682-.073 2.53-.216 2.875-.488 5.526-1.487 7.882-2.97 2.338-1.468 4.46-3.267 6.308-5.338.51-.574.998-1.165 1.47-1.77-.312 1.822-.55 3.086-.696 3.69-.505 1.913.42 2.686 1.02 2.975.573.28 1.237.423 1.97.423.36 0 .745-.032 1.144-.1 1.167-.198 2.295-.653 3.355-1.346 1.13-.74 1.875-1.755 2.217-3.045l.445-1.93-.022-.13.32-1.25c.71-3.627 1.72-7.446 3-11.358 1.275-3.905 2.656-7.527 4.103-10.768 1.44-3.22 2.868-5.926 4.25-8.04 1.76-2.693 2.624-3.1 3.05-3.16.123 0 .172.04.208.077.084.084.35.466.305 1.8-.065 1.84-.38 4.204-.938 7.025-.57 2.874-1.21 6-1.927 9.376-.728 3.4-1.148 6.558-1.25 9.383-.104 2.882.23 5.273.992 7.1.844 2.03 2.682 2.88 5.325 2.437 1.865-.316 3.868-1.26 5.95-2.81 2.037-1.52 3.947-3.375 5.678-5.514 1.715-2.124 3.263-4.422 4.603-6.835 1.344-2.423 2.297-4.69 2.832-6.74.567-2.222.26-3.515-.918-3.84"/><path d="M336.405 93.834c-.14-.04-.28-.06-.422-.06-1.31 0-2.14 1.584-2.664 2.807-1.286 3.502-2.88 6.573-4.735 9.134-1.79 2.463-3.496 3.845-5.075 4.112-.584.1-1.024.038-1.27-.21-.284-.287-.434-.713-.46-1.31-.03-.715.023-1.63.164-2.713.143-1.127.3-2.325.473-3.657.04-.83.295-2.71.756-5.59.465-2.904.994-6.305 1.584-10.194.586-3.884 1.203-8.017 1.853-12.393.626-4.24 1.277-8.386 1.933-12.322.642-3.848 1.183-7.15 1.63-9.914.434-2.717.74-4.443.91-5.15.35-1.63-.37-2.442-1.036-2.837-.83-.49-1.838-.642-3.036-.44-1.106.188-2.23.638-3.345 1.34-1.185.75-1.956 1.773-2.295 3.055-.173.717-.48 2.356-.916 4.87-.448 2.59-.927 5.627-1.422 9.027-.513 3.49-1.064 7.3-1.66 11.425-.595 4.124-1.204 8.155-1.83 12.09-.627 3.944-1.205 7.61-1.73 11.005l-1.27 8.184c-.29 1.68-.544 3.475-.76 5.342-.217 1.92-.194 3.674.065 5.215.274 1.617.872 2.925 1.783 3.894.73.773 1.786 1.167 3.137 1.167.458 0 .96-.045 1.493-.134 1.868-.32 3.87-1.264 5.95-2.81 2.038-1.52 3.95-3.376 5.677-5.516 1.715-2.127 3.264-4.425 4.604-6.834 1.343-2.42 2.297-4.684 2.83-6.742.57-2.224.26-3.515-.915-3.84"/><path d="M359.625 71.898c-.54 2.925-1.127 6.535-1.793 11.025-.662 4.455-1.416 9.124-2.237 13.84l-.39 1.693c-1.217 2.028-2.53 3.703-3.902 4.977-1.33 1.242-2.64 1.93-3.917 2.062-2.16.283-3.655-1.03-4.56-4.085-.967-3.247-.896-7.45.212-12.502.508-2.525 1.24-4.955 2.17-7.222.923-2.262 2-4.29 3.2-6.034 1.184-1.725 2.44-3.158 3.735-4.26 1.242-1.052 2.466-1.685 3.576-1.877.108-.01.218-.01.326-.01 1.49 0 2.663.783 3.58 2.393m19.823 14.64c-.138-.038-.28-.056-.42-.056-1.31 0-2.14 1.58-2.666 2.802-1.286 3.507-2.88 6.58-4.734 9.135-1.79 2.463-3.497 3.845-5.074 4.113-.585.097-1.025.037-1.27-.212-.283-.285-.433-.712-.46-1.307-.032-.717.022-1.63.164-2.715l.467-3.6c.165-1.27.448-3.282.844-6.028.4-2.763.854-5.64 1.35-8.552.506-2.96.992-5.72 1.468-8.292.48-2.595.852-4.382 1.146-5.493.372-1.73-.545-2.522-1.126-2.838-.872-.474-1.9-.613-3.085-.416-1.113.19-2.22.637-3.284 1.332-.847.553-1.476 1.258-1.88 2.106-1.635-1.61-3.68-2.228-6.065-1.823-2.06.348-4.153 1.362-6.223 3.01-2.023 1.614-3.99 3.7-5.85 6.2-1.85 2.49-3.548 5.35-5.045 8.507-1.493 3.15-2.692 6.49-3.56 9.922-.867 3.434-1.33 6.66-1.37 9.59-.038 2.946.323 5.507 1.073 7.61.77 2.142 1.882 3.81 3.304 4.954 1.135.91 2.488 1.372 4.02 1.372.465 0 .953-.043 1.453-.13 2.254-.38 4.544-1.55 6.81-3.478 1.802-1.535 3.562-3.454 5.246-5.716.18 1.472.58 2.756 1.194 3.835.967 1.704 2.793 2.353 5.43 1.91 1.865-.316 3.866-1.262 5.948-2.81 2.035-1.517 3.947-3.374 5.68-5.516 1.72-2.13 3.267-4.43 4.6-6.834 1.348-2.425 2.3-4.69 2.832-6.74.568-2.22.26-3.513-.918-3.842"/><path d="M414.27 65.09c.726-1.368 1.45-1.9 2.175-1.592.723.31.823 1.18.3 2.61-.327.92-.998 1.75-2.023 2.498-1.022.75-2.264 1.345-3.724 1.783-1.46.44-3.016.726-4.67.862-1.654.138-3.266.1-4.836-.115.208 2.36.198 4.853-.025 7.48-.226 2.626-.725 5.35-1.493 8.16-.523 2.008-1.376 4.19-2.557 6.545-1.183 2.357-2.557 4.58-4.12 6.664-1.564 2.087-3.252 3.857-5.065 5.315-1.815 1.458-3.607 2.34-5.376 2.638-2.236.38-3.805-.265-4.713-1.934-.905-1.667-1.47-3.727-1.694-6.182-.225-2.452-.178-5 .14-7.645.32-2.642.625-4.8.916-6.48.412-2.084.846-4.624 1.295-7.623.45-3 .943-6.174 1.48-9.524.533-3.35 1.06-6.745 1.58-10.19.518-3.44 1.006-6.64 1.465-9.593.455-2.952.868-5.49 1.227-7.612.358-2.12.622-3.532.792-4.23.292-1.105.934-1.98 1.927-2.63.993-.645 2.025-1.062 3.097-1.243 1.07-.18 1.952-.066 2.645.343.694.41.93 1.113.718 2.108-.168.7-.458 2.258-.862 4.674-.405 2.417-.86 5.25-1.363 8.5-.506 3.248-1.067 6.72-1.686 10.42-.62 3.7-1.178 7.196-1.673 10.49-.497 3.297-.94 6.2-1.33 8.708-.39 2.514-.605 4.2-.65 5.072-.166 1.275-.446 2.878-.837 4.813-.39 1.937-.65 3.802-.776 5.596-.127 1.795-.043 3.29.256 4.485.298 1.198 1.007 1.7 2.126 1.51.837-.143 1.788-.614 2.85-1.417 1.062-.802 2.067-1.81 3.01-3.027.945-1.214 1.8-2.653 2.575-4.32.773-1.66 1.29-3.426 1.55-5.293.564-3.448.475-6.525-.272-9.226-.745-2.7-1.96-5.06-3.642-7.075-.626-.85-.908-2.097-.85-3.738.058-1.638.298-3.188.72-4.65.424-1.46.994-2.635 1.705-3.524.714-.888 1.366-.998 1.958-.332 2.152 2.51 3.635 5.903 4.455 10.172 1.197.277 2.475.467 3.834.572 1.362.107 2.674.075 3.938-.092 1.268-.165 2.388-.476 3.367-.932.977-.45 1.69-1.05 2.14-1.798"/><path d="M391.295 33.65c-.257 0-.528.024-.814.073-.972.165-1.927.55-2.838 1.144-.854.557-1.39 1.287-1.64 2.23-.16.665-.424 2.073-.78 4.17-.36 2.122-.77 4.655-1.223 7.604-.462 2.954-.95 6.15-1.467 9.593-.52 3.445-1.048 6.843-1.58 10.193-.537 3.348-1.03 6.52-1.478 9.518-.446 2.97-.884 5.545-1.3 7.657-.286 1.642-.584 3.75-.91 6.43-.31 2.58-.356 5.102-.14 7.5.216 2.352.76 4.343 1.617 5.92.763 1.407 2.072 1.917 4 1.587 1.644-.28 3.348-1.118 5.064-2.495 1.76-1.416 3.425-3.164 4.947-5.193 1.532-2.047 2.897-4.255 4.056-6.562 1.155-2.308 1.998-4.465 2.505-6.413.757-2.768 1.252-5.475 1.474-8.047.22-2.58.226-5.055.025-7.36l-.076-.85.844.115c1.513.206 3.088.245 4.69.11 1.6-.13 3.125-.413 4.528-.836 1.38-.414 2.563-.98 3.52-1.68.903-.66 1.503-1.393 1.78-2.176.173-.47.52-1.567.076-1.756-.36-.027-.793.315-1.307 1.285-.533.893-1.352 1.588-2.452 2.095-1.04.484-2.24.816-3.565.99-1.307.173-2.674.207-4.078.096-1.392-.106-2.716-.306-3.937-.587l-.43-.102-.084-.432c-.794-4.136-2.242-7.453-4.303-9.858-.26-.292-.412-.3-.908.315-.653.817-1.185 1.923-1.58 3.286-.407 1.405-.64 2.914-.695 4.488-.053 1.477.19 2.59.717 3.31 1.714 2.053 2.984 4.518 3.75 7.3.77 2.782.866 5.984.286 9.516-.265 1.908-.804 3.754-1.602 5.472-.795 1.71-1.688 3.208-2.655 4.447-.973 1.255-2.028 2.316-3.137 3.153-1.14.865-2.2 1.385-3.147 1.546-.194.03-.378.047-.55.047-.687 0-1.903-.27-2.35-2.065-.314-1.25-.406-2.833-.275-4.697.13-1.817.395-3.728.788-5.683.388-1.922.667-3.525.83-4.767.04-.848.255-2.53.653-5.087.388-2.508.83-5.408 1.327-8.703.497-3.3 1.056-6.8 1.675-10.503.617-3.696 1.18-7.166 1.684-10.412.504-3.254.96-6.088 1.365-8.508.402-2.4.694-3.99.872-4.72.212-.998-.22-1.255-.404-1.363-.373-.22-.834-.33-1.37-.33m-9.613 75.073c-1.882 0-3.274-.805-4.138-2.393-.945-1.74-1.543-3.91-1.775-6.447-.226-2.492-.178-5.114.145-7.787.33-2.703.63-4.833.92-6.516.417-2.106.85-4.66 1.293-7.608.45-3 .944-6.178 1.48-9.53.532-3.346 1.06-6.742 1.578-10.184.52-3.442 1.007-6.64 1.466-9.596.457-2.955.868-5.497 1.227-7.62.366-2.16.63-3.56.802-4.28.338-1.278 1.083-2.296 2.217-3.035 1.067-.698 2.195-1.15 3.354-1.347 1.243-.21 2.273-.06 3.104.428.666.396 1.387 1.207 1.037 2.84-.12.497-.362 1.69-.854 4.64-.406 2.418-.86 5.245-1.364 8.49-.505 3.252-1.067 6.727-1.686 10.428-.62 3.7-1.174 7.192-1.668 10.483-.5 3.297-.943 6.2-1.33 8.71-.385 2.477-.6 4.16-.644 5.002-.175 1.343-.45 2.933-.85 4.912-.383 1.898-.64 3.752-.765 5.51-.12 1.72-.042 3.158.238 4.272.288 1.154.817 1.093 1.35 1.003.73-.126 1.59-.558 2.555-1.29 1.013-.765 1.983-1.74 2.884-2.902.902-1.16 1.742-2.567 2.493-4.187.74-1.594 1.243-3.31 1.492-5.1.55-3.352.464-6.36-.253-8.952-.713-2.592-1.894-4.887-3.508-6.82-.74-1.005-1.072-2.407-1.006-4.198.057-1.685.308-3.306.746-4.816.445-1.537 1.06-2.803 1.826-3.76.992-1.236 2.128-1.333 2.997-.358 2.15 2.507 3.67 5.887 4.527 10.056 1.034.216 2.143.372 3.307.462 1.31.103 2.578.07 3.796-.09 1.188-.155 2.254-.447 3.17-.872.848-.394 1.467-.908 1.84-1.532.893-1.686 1.968-2.318 3.026-1.87.767.33 1.504 1.197.67 3.47-.367 1.04-1.127 1.993-2.26 2.816-1.077.792-2.4 1.425-3.928 1.883-1.492.45-3.112.752-4.81.89-1.41.117-2.794.11-4.15-.02.14 2.14.112 4.413-.088 6.765-.23 2.654-.74 5.44-1.515 8.282-.53 2.03-1.406 4.28-2.605 6.67-1.194 2.38-2.602 4.657-4.183 6.768-1.59 2.12-3.333 3.95-5.184 5.438-1.9 1.523-3.813 2.46-5.688 2.776-.45.075-.883.113-1.287.113"/><path d="M441.583 77.056c-.208-.378-.547-.633-.982-.744-1.14-.284-2.204.56-3.146 2.587-1.8 4.127-3.846 7.637-6.1 10.472.46-2.36.518-4.89.17-7.553-.49-3.76-1.582-7.444-3.25-10.963-.875-1.765-1.794-3.44-2.735-4.986-.902-1.473-1.606-2.84-2.094-4.063-.46-1.156-.663-2.203-.603-3.116.054-.823.56-1.658 1.502-2.487.387-.34.895-.87.862-1.498-.017-.34-.192-.644-.494-.86-.492-.348-1.223-.516-2.332-.516h-.003c-.974.01-2.075.22-3.272.626-1.236.418-2.27 1.074-3.05 1.923-1.414 1.373-2.27 2.814-2.548 4.28-.273 1.443-.17 2.985.307 4.585.46 1.552 1.165 3.22 2.092 4.958.91 1.707 1.835 3.637 2.757 5.742 1.048 2.342 1.832 4.865 2.326 7.496.49 2.626.646 5.08.465 7.29-.177 2.16-.773 4.05-1.768 5.612-.96 1.51-2.29 2.39-4.064 2.69-.456.078-.89.118-1.295.118-1.368 0-2.42-.438-3.213-1.33-1.084-1.215-1.62-2.64-1.647-4.355-.026-1.713.5-3.396 1.562-5 1.048-1.58 2.65-2.532 4.898-2.914.79-.134 1.28-.84 1.452-2.09.143-1.01.062-2.128-.243-3.32-.31-1.2-.863-2.27-1.643-3.183-.873-1.015-2.002-1.427-3.383-1.197-2.375.403-4.37 1.466-5.925 3.162-1.52 1.66-2.632 3.623-3.305 5.83-.667 2.193-.905 4.494-.706 6.84.2 2.356.846 4.52 1.92 6.434 1.09 1.948 2.685 3.478 4.74 4.548 1.416.738 3.058 1.11 4.88 1.11.84 0 1.732-.08 2.658-.234 2.098-.355 4.086-.942 5.894-1.735 3.29-1.34 6.12-3.06 8.41-5.11 2.28-2.038 4.19-4.135 5.678-6.236 1.49-2.095 2.658-4.07 3.475-5.865.824-1.815 1.35-3.105 1.6-3.93.464-1.405.513-2.365.153-3.02"/><path d="M440.59 32.497c.725-2.185 12.673-24.236 15.545-22.96 6.927 3.08-9.004 20.332-15.546 22.96"/><path d="M414.675 28.928c-1.266-1.948-11.043-24.95-8.157-26.196 6.963-3.005 10.325 19.754 8.157 26.196"/><path d="M455.383 53.267c2.104-1.11 26.697-9.266 27.86-6.456 2.8 6.778-21.216 8.842-27.86 6.457"/></g></svg>