<?xml version="1.0" encoding="utf-8"?>
<!-- Generator: Adobe Illustrator 21.1.0, SVG Export Plug-In . SVG Version: 6.00 Build 0)  -->
<svg version="1.0" id="Calque_1" xmlns="http://www.w3.org/2000/svg" xmlns:xlink="http://www.w3.org/1999/xlink" x="0px" y="0px"
	 viewBox="0 0 732 258" style="enable-background:new 0 0 732 258;" xml:space="preserve">
<style type="text/css">
	.st0{fill:#EA4D94;}
	.st1{fill:#FCCD25;}
	.st2{fill:#F28A2C;}
	.st3{fill:#EA5330;}
	.st4{fill:#E73B26;}
	.st5{fill:#B51743;}
	.st6{fill:#F7A62B;}
	.st7{fill:#ABA69D;}
</style>
<g id="Infos">
</g>
<path class="st0" d="M475.8,67.9h-40.1l0,57.6c8.2,3.3,16.4,6.9,24.4,10.5c5.3,2.4,10.5,4.9,15.7,7.4L475.8,67.9z"/>
<path class="st1" d="M221.1,42.7c13.3,0,26.3,1,39.1,3c-26.2-24.3-61.4-39.2-100-39.2C80.1,6.4,15,70.4,13.2,150
	C59.4,85,135.3,42.7,221.1,42.7z"/>
<path class="st2" d="M105.3,234.1c-17.2-11.6-30.6-28.4-37.7-48.3c-5.8,6.3-11.4,14.5-16.3,22.4c-5.1,8.2-10,16.6-13.5,25.8
	c2.4,3.6,5,7.1,7.6,10.4h80.1C118.4,241.8,111.6,238.3,105.3,234.1z"/>
<path class="st2" d="M250.4,190.1c-3.3,7.9-12.6,21.9-12.6,21.9l0,0c-11.1,14.6-26.2,26-43.7,32.5h80.1c7.3-9.1,13.5-19.1,18.5-29.7
	c-8.8-3.4-17.3-7.7-25.3-12.6C261.5,198.5,255.8,194.5,250.4,190.1z"/>
<circle class="st0" cx="516.6" cy="86.8" r="22.5"/>
<path class="st3" d="M390.7,219.1c-4.8-3.9-9.4-8-14-12.2c-1.9-1.3-3.7-2.8-5.3-4.6c-0.6-0.6-1.1-1.3-1.6-2
	c-0.8-0.8-1.7-1.7-2.5-2.5c-17.2-17.2-32.5-36.3-45.4-57.1v32.9c0,21.1,5.5,38.3,16.2,51.1c1.3,1.5,2.6,3,4.1,4.4
	c2,2,4.1,3.7,6.4,5.4c12.9,9.5,29.8,14.4,50.5,14.4c2.7,0,5.4-0.1,8-0.3c7.4-0.5,14.2-1.6,20.5-3.5
	C414.6,237.4,402.4,228.6,390.7,219.1z"/>
<polygon class="st4" points="475.8,128 475.8,128 475.8,128 "/>
<path class="st5" d="M506.5,179.2c-3.3-0.2-6.5-0.5-9.8-0.8l0,65.4h6.9c0.9,0,1.8,0,2.6-0.1l0,0l0,0c16.3-1.3,29.3-14.5,30.1-31
	l0-33.2c-6.7,0.3-13.4,0.4-20.1,0.2C513,179.5,509.8,179.4,506.5,179.2z"/>
<path class="st5" d="M362.1,171.6v-44c-11.7-8.4-22.8-17.8-33.1-28.1c-2.2-2.2-4.3-4.3-6.5-6.6h0c-0.2-0.2-0.3-0.4-0.5-0.6v0.4v48
	c13.6,21.7,29.7,41.7,47.9,59.6C364.7,193.5,362.1,183.8,362.1,171.6z"/>
<path class="st5" d="M444.3,168c-2.9-0.9-5.8-1.7-8.6-2.7v6.7c0,14.1-3.2,24.5-9.5,31c-1.9,2-4.2,3.7-6.6,5.1
	c-2.3,1.3-4.9,2.3-7.6,3.1c-3.8,1-8.1,1.6-12.8,1.6c-9,0-16.5-2-22.3-5.9c4.5,4.2,9.2,8.2,13.9,12.2l0,0
	c11.6,9.6,23.9,18.4,36.9,26.2c11.3-3.3,20.7-8.7,28.3-16.3c3.2-3.2,6-6.8,8.5-10.7c5.2-8.2,8.6-17.9,10.3-29c0.7-4.4,1-9,1.1-13.8
	C465.1,173.7,454.6,171.1,444.3,168z"/>
<path class="st3" d="M292.7,90.5L292.7,90.5c-0.3-0.7-0.7-1.4-1-2.1c-0.2-0.5-0.5-1-0.7-1.5c-10.1-1.4-20.2-2.6-30.3-3.5
	c-11.2-0.9-22.3-1.4-33.4-1.7c2.7,2.5,5.2,5.2,7.6,8.1h0c3.9,4.7,7.5,9.8,10.5,15.2c7.9,14.1,12.4,30.4,12.4,47.7
	c0,9.5-1.4,18.8-3.9,27.5c-1,3.4-2.2,6.7-3.5,9.9c12.8,10.5,27.1,18.8,42.4,24.7c7.1-15.2,11.7-31.7,13.2-49.2
	c0.4-4.2,0.6-8.5,0.6-12.9C306.5,130.4,301.6,109.4,292.7,90.5z"/>
<path class="st6" d="M13.2,150c0,0.9,0,1.8,0,2.7c0,30.1,9.1,58.1,24.6,81.4c8-17,18-33.2,29.8-48.2c-3.7-10.4-5.8-21.5-5.8-33.1
	c0-37.2,20.8-69.6,51.3-86.2C73.1,85.3,38.6,114.3,13.2,150z"/>
<path class="st6" d="M259.9,45.4c-12.2-1.8-24.6-2.8-37.2-2.9c-0.4,0-0.8,0-1.2,0c-8.1,0-16,0.4-23.9,1.1
	c-23.4,2.2-45.9,7.5-67,15.5c9.2-2.9,19.1-4.5,29.3-4.5c12.3,0,24.1,2.3,34.9,6.4c12.2,4.7,23.3,11.7,32.6,20.6
	c21.1,0.6,42.4,2.3,63.7,5.2C283.1,71.3,272.5,57.2,259.9,45.4z"/>
<path class="st4" d="M362.1,101.1c-11-2.9-22-5.5-33.1-7.7c-2.4-0.5-4.7-0.9-7.1-1.4v0.4c0.2,0.2,0.3,0.4,0.5,0.6l0,0
	c12.2,12.9,25.5,24.5,39.6,34.7L362.1,101.1z"/>
<path class="st2" d="M362.1,89.7V67.9h-40.1V92c13.4,2.5,26.8,5.6,40.1,9.1L362.1,89.7z"/>
<path class="st4" d="M435.6,125.4l0,39.9c13.1,4.4,26.5,7.8,40.1,10.2l0-32.1c-7.4-3.6-14.9-7.1-22.5-10.5
	C447.5,130.3,441.6,127.8,435.6,125.4z"/>
<path class="st4" d="M496.7,154.2l0,24.3c3.3,0.3,6.5,0.6,9.8,0.8c9.9,0.6,19.9,0.7,29.9,0.3l0-1.8c-6.7-4.3-13.5-8.5-20.3-12.6
	C509.7,161.3,503.3,157.7,496.7,154.2z"/>
<path class="st0" d="M516.6,118.4c-7.5,0-14.4-2.6-19.8-6.9l0,42.8c13.6,7.4,26.8,15.2,39.6,23.5l0-66.3
	C530.9,115.8,524.1,118.4,516.6,118.4z"/>
<path class="st7" d="M568.9,222.3l-0.7-0.2c-4-1.4-8.5-2.9-8.5-4.9c0-1.4,1.6-2.5,9.2-2.5h6.5c3,0,5-2.2,5-4.8v-4h-14.8
	c-7.6,0-16.5,3.2-16.5,12.2c0,7.9,8.4,10.8,15.2,13.1l0.6,0.2c4.7,1.6,8.7,3,8.7,5.4c0,2.4-5,4-12.1,4c-3.3,0-6.7-0.9-9-1.7
	l-2.2-0.7v9l1.2,0.3c2.3,0.7,7.2,1.7,13.5,1.7c11.9,0,19.2-5.2,19.2-13.6C584.3,227.6,574.3,224.1,568.9,222.3z"/>
<path class="st7" d="M599.1,248.5c0.3,0,0.6-0.3,0.6-0.6v-22.8c0-3.7,0.8-6.4,2.5-8.1c1.6-1.7,4-2.5,7.1-2.5c3.2,0,5.6,0.9,7.2,2.7
	c1.6,1.8,2.5,4.5,2.5,8v22.7c0,0.3,0.3,0.6,0.6,0.6h9.3c0.3,0,0.6-0.3,0.6-0.6v-23.3c0-6.2-1.8-11.1-5.3-14.5
	c-3.5-3.4-8.5-5.2-14.9-5.2c-6.4,0-11.4,1.8-14.8,5.2c-3.5,3.5-5.2,8.4-5.2,14.6v23.1c0,0.3,0.3,0.6,0.6,0.6H599.1z"/>
<path class="st7" d="M691.6,247.9v-16.6h16.5c2.9,0,5.3-2.4,5.3-5.3v-2.4h-21.8v-3.3c0-4,1.7-5.5,6.1-5.5h12.8
	c3.5,0,6.4-2.8,6.4-6.4v-2.7h-20.3c-9.9,0-15.1,5.5-15.1,13.9v28.4c0,0.3,0.3,0.6,0.6,0.6h8.9C691.3,248.5,691.6,248.3,691.6,247.9z
	"/>
<path class="st7" d="M658,240.2c-6.8,0-12.3-5.5-12.3-12.3c0-6.8,5.5-12.3,12.3-12.3c3.6,0,6.9,1.6,9.1,4l8.3-5.8
	c-4.1-5.1-10.4-8.4-17.5-8.4c-12.4,0-22.5,10.1-22.5,22.5c0,12.4,10.1,22.5,22.5,22.5c7.1,0,13.5-3.3,17.6-8.5l-8.3-5.8
	C665,238.5,661.7,240.2,658,240.2z"/>
<circle class="st7" cx="537.1" cy="243.9" r="4.7"/>
</svg>
