<svg xmlns="http://www.w3.org/2000/svg" height="46" viewBox="0 0 124 54" width="105" role="img" aria-labelledby="dp7tnk7iu776bxmgrd0mdp8r29mckkn q1hkyak9ijthk33lteagl5sglmnufdw"><title id="dp7tnk7iu776bxmgrd0mdp8r29mckkn">Logo Human Coders</title><desc id="q1hkyak9ijthk33lteagl5sglmnufdw">Logo de Human Coders, centre de formation pour développeurs</desc><g class="Human_logo" fill="#fff"><path d="m8.30426433 29.0930319c-2.75888455.2759246-4.57078708.4138227-5.43506549.4138227-1.15887791 0-2.0141668-.2845272-2.56573823-.8546087-.20226427-.2023532-.30346061-.4690333-.30346061-.8000401 0-.2757962.05522135-.5517207.16553564-.8275169.12880702-.2940286.52396076-.6250354 1.18610333-.992892.44151399-.2574355.81830342-.5146142 1.13139565-.7724348.53307871-.4229389.91937134-.6344083 1.15849265-.6344083.07332882 0 .25748562.0645836.55182828.1931087.31245013.1473995.5242176.2114694.63466031.1931087 2.44579232-.2759246 3.71472767-.4504158 3.80693449-.5241155.14717133-.0918037.25761404-.6159192.33119971-1.5722181l1.13113884-12.7709816c0-.9930204.022859-1.63192258.0690909-1.91709173.0457181-.28491237.1882663-.62079824.4276444-1.00663044.5144576-.84574932 1.1125177-1.55385734 1.793153-2.12419565.5147144-.42268207.9657316-.63427989 1.3516389-.63427989.4783711 0 .9197566.22071399 1.3244136.66188519.3862926.42332405.579439.86462364.579439 1.32415557 0 .29415693-.0922069.83701834-.27585 1.62717187-.0739709.36811345-.1655356 1.15865218-.2759783 2.37212978-.0369855.3497527-.1474282 1.2598288-.3310713 2.7308702l-1.296546 10.6746481 15.0081367-1.2134776.4689963-9.8471311c.2569719-5.47958761.662271-8.76205025 1.2134571-9.84738788.3311997-.64339606.892146-1.31439742 1.6830955-2.01351766.5886854-.55184919 1.1312673-.82764538 1.6278742-.82764538 1.0485636 0 1.5727812.70836481 1.5727812 2.12419565 0 .69873505-.3862926 3.66829483-1.1588779 8.90919297-.3862926 2.6850326-.6161676 6.519216-.6897532 11.5022934 1.0852922.4784063 1.6278741 1.1218023 1.6278741 1.9307018 0 .3681135-.1011963.6528974-.3034606.8552507-.0552213.0552106-.2574856.1748763-.6070496.3586121-.533464.2757962-.800196.9010883-.800196 1.8754911 0 .0925741.0735857.9012168.220757 2.4270836.0735857.9378098.2115107 1.5172643.4139034 1.7379783l.6897532.7999117c.0735857.0734429.1104427.1747479.1104427.3034014 0 .2759246-.1517945.7494518-.4552551 1.42071-.303589.6712581-.6392835 1.2735672-1.0070834 1.8069273-.662271.9372962-1.3244136 1.4062011-1.9866846 1.4062011-.8276782 0-1.4254814-.4591468-1.7928961-1.3785958-.4413855-1.1402915-.6897532-2.8414199-.7448461-5.1035136l-.0828321-3.2822059c0-.4039361-.4046569-.6068029-1.2139708-.6068029h-.2754647l-12.8015942 1.186129c-.5149712.0552106-.855032.1563873-1.0205676.3034015-.1104428.1104212-.1655357.3306216-.1655357.6616284v2.8138146c0 2.0412513.2482393 3.650576.7445893 4.826947.0552214.1292955.3311997.5338736.8278067 1.2138627.1104427.1465007.1655356.3396094.1655356.5791977 0 .5143574-.2853531 1.2224654-.8552889 2.1235537-.4598783.6988635-.8737816 1.1862575-1.2413247 1.4620537-.2943426.2023532-.6806352.3034015-1.1588779.3034015-1.0117065 0-1.84837428-.8642385-2.51051684-2.5929722-.47862788-1.2873057-.70824598-3.079339-.6894964-5.3782826zm29.43734827-1.2408261.4959648-5.6821976.082832-.7999117-.0552213-2.3445245c0-1.084824.2937005-2.0592269.8828995-2.9238505.7352146-1.0662066 1.5813855-1.599695 2.5378708-1.599695.9197566 0 1.3796349.8458777 1.3796349 2.5375047 0 .7357134-.2392498 2.105835-.717364 4.1098513-.478371 1.9309585-.7174923 3.8711617-.7174923 5.8200958 0 3.291964.3219533 5.2408981.9657316 5.847701.312707.3310068.6897532.4965102 1.1312672.4965102.974978 0 2.0050489-1.2046182 3.0902127-3.6137262.9007502-1.9856556 1.4710712-4.504928 1.7107062-7.5575604.0914363-1.1397779.3120649-1.9674233.6616289-2.4824226.5696789-.827517 1.2968029-1.4525523 2.1791887-1.8754912.3862927-.2023532.6989996-.3035299.938121-.3035299.8093139 0 1.2140992 1.2046182 1.2140992 3.6132127 0 .5517208-.0184927.9655435-.0552213 1.2413396l-.3311997 3.144693c-.1471714 1.1400346-.2206286 1.8852493-.2206286 2.2341032 0 .5700816.0827036 1.3610055.2482392 2.371873.2391213 1.3613906.533464 2.2252439.883028 2.5931006.1655357.1655033.404657.2481908.7173639.2481908h.3034607c.3127069-.0368498.5150996-.0550822.6069212-.0550822.1472997 0 .2759783.073443.386421.220714.312707.4228105.4689963 1.002265.4689963 1.7378499 0 1.1034416-.312707 1.977053-.9381209 2.6200639-.5701926.5707235-1.2691922.8552506-2.0968705.8552506-.5150996 0-.9840959-.1378981-1.4072455-.4138226-1.2506995-.8085143-2.0601418-1.9396896-2.4275565-3.3924987-.2206285-.8276454-.5063669-1.2413397-.8552889-1.2413397-.3494355 0-.7909495.5333601-1.3237714 1.5999518-.4046569.827517-1.1496315 1.5724749-2.2349238 2.2338465-1.2691922.7724348-2.4280701 1.1586521-3.4765053 1.1586521-1.2324636 0-2.2534165-.7724347-3.0620883-2.3166623-.6989996-1.3425163-1.0479215-3.3286855-1.0479215-5.9586359 0-.7723064.0276106-1.4792588.082832-2.1235537zm35.7542859.8000401 2.675282-4.8825428c.7540926-1.378981 1.4715849-2.5557371 2.1520918-3.5303967.9381209-1.3054097 1.9314632-1.9586923 2.9798984-1.9586923 1.2323351 0 1.9958025.6897473 2.2901451 2.0691135.2379655 1.158267.3484082 2.1973818.3310713 3.1168308l-.1104427 7.5850374c-.0183643 1.2874341.1828726 2.3173043.6070496 3.0897391.2023927.3678567.4587225.606803.7725853.7172242.0355728.0183607.2931869.0735713.7714295.1655034.1655356.0550822.2483677.2390747.2483677.5515924 0 .9565557-.3496925 1.7564674-1.0474079 2.3996066-.5701926.5143574-1.2968028.7724348-2.1797024.7724348-2.0234132 0-3.0351198-2.4361997-3.0351198-7.3097547v-.3863458l.0828321-4.8545523c0-.5881855-.2483677-.8824708-.7449746-.8824708-.441514 0-.8737816.5426046-1.2968029 1.6273003l-2.0141668 5.2132928c-.2759783.7539456-.487489 1.3607486-.6345319 1.8206657-.4600067 1.3792378-.837053 2.2712099-1.1302398 2.6757881-.8104697 1.0298702-1.7566812 1.5443559-2.8418451 1.5443559-.4598783 0-.8001959-.1016902-1.0209529-.3035298-.7173639-.6247786-1.0393173-1.6269151-.9657316-3.0064097v-.2205856l.1931463-6.6201359c-.128807-1.9488057-.220757-3.0433879-.2758499-3.2824626-.0737141-.2757962-.2298749-.4226821-.4691247-.441428-.1103143-.0179755-.3219533.1656318-.6345319.5518492-.3128354.386089-.5978032.809413-.8554173 1.268945l-.9381209 1.7651983c-.6252855 1.1580102-1.1405136 2.7402432-1.5438863 4.7442596-.4967354 2.3723865-.9013923 3.8068349-1.2140993 4.3028315-.2574856.3862174-.6713889.7500937-1.2417099 1.0897031-.5704495.3397378-1.0670564.510377-1.4902061.510377-.6064075 0-1.1127745-.4776358-1.5169177-1.4345767-.27585-.6246502-.3960527-1.2224654-.358682-1.7925469l.6898817-10.2336053.3034606-3.447966c0-.2939002-.0925921-1.1858723-.2759784-2.6755313-.0740993-.4966386-.1103143-.9652867-.1103143-1.4067147 0-.9007031.3489219-1.7283485 1.0484352-2.4824225.6432646-.7172242 1.3238999-1.0758363 2.0415207-1.0758363 1.2508279 0 1.8762418.8184008 1.8762418 2.4549457 0 1.1404198-.266732 3.2091481-.8001959 6.2061847l-.2759784 2.261837c-.0367286.2390747-.0552213.4321834-.0552213.5793261 0 .3681134.073714.5424762.2208854.5241155.0734572-.018104.3403176-.3586121.8001959-1.0206257l2.4267859-3.5031766c1.4163635-2.041123 2.7131664-3.0618771 3.8905371-3.0618771.6070496 0 1.1403851.2759246 1.6002635.8276454.5886853.7357133.8921459 1.5448696.9105102 2.4273404zm31.4786125 4.5511508h.634531c.625286 0 .938121.349496.938121 1.048231 0 .8092847-.294342 1.6368016-.882899 2.4828078-.680635.9562989-1.471585 1.4339347-2.372977 1.4339347-.570193 0-1.0668-.1834789-1.48995-.5518491-.09195-.0729294-.524217-.6706162-1.296802-1.7924185-.238993-.3678567-.478115-.5518492-.7162086-.5518492-.2587698 0-.6265697.2759246-1.1036565.8276454-1.5818992 1.7839443-3.2557483 2.6752744-5.0215475 2.6752744-1.4900776 0-2.7500234-.5338736-3.7802227-1.5999517-1.6922135-1.7098594-2.5372286-4.4407297-2.5372286-8.1924824 0-5.0379028 1.3244135-9.3596087 3.9720848-12.9638335.8828996-1.1951169 1.8578776-2.1878805 2.9248055-2.9790612 1.1954781-.8824708 2.2900167-1.3238987 3.2832306-1.3238987 1.120865 0 2.3257179.5888274 3.613403 1.7653267 1.030071.9562989 1.857749 2.583856 2.483291 4.8821576.717364 2.6480544 1.076046 4.4230109 1.076046 5.3235856 0 .4784063-.165664 1.3701216-.496735 2.6755313-.294343 1.2138627-.441386 2.2718519-.441386 3.171913 0 2.4459579.404657 3.6689368 1.2141 3.6689368zm-8.9110575-16.5500828c-.9932139 0-1.9129705.7543308-2.7591414 2.2618369-1.2875566 2.3170476-1.9313348 5.1855591-1.9313348 8.6060482 0 4.30296.9840959 6.4546325 2.9522877 6.4546325 1.0667995 0 1.9865561-.4781494 2.759013-1.4344483.7899222-.9747881 1.4164919-2.0965904 1.8763702-3.3655354.220757-.6431392.3310713-1.0103539.3310713-1.102928l-.1103143-1.8206657c0-.0552106.1655357-.3859606.496607-.992892.2931868-.5329749.4402298-1.0296135.4402298-1.489659 0-.2571786-.1286787-.937553-.3851369-2.0409945-.4413856-1.8756196-.9932139-3.1811576-1.6553564-3.9167426-.6806353-.7724347-1.3520243-1.1586521-2.0142952-1.1586521zm14.9800125 12.7983301 2.510774-4.3025747c1.82102-3.1445645 3.41101-4.7166542 4.773308-4.7166542 1.488793 0 2.252261 1.3513757 2.289118 4.0546406l.055092 7.309498c.018365 1.4711698.533464 2.2895706 1.545171 2.455074.588557.1102928.8829.3586121.8829.7448295 0 1.1402914-.459879 2.0874742-1.379635 2.8407779-.441386.367343-1.002461.5518491-1.683096.5518491-.826651 0-1.443846-.3862174-1.847475-1.1587805-.404657-.734943-.662143-1.6913703-.772457-2.8683832-.055221-.7172242-.082832-2.1057065-.082832-4.165447 0-2.3895917-.073586-3.7600985-.220757-4.109466-.093106-.2023533-.211511-.3034015-.358682-.3034015-.257614 0-.588685.2344524-.993342.7031005-.404657.4690333-.763339 1.0253764-1.076046 1.6689008-1.177242 2.464447-1.931463 4.348926-2.262535 5.6545924-.570192 2.1334402-1.112774 3.4116298-1.627874 3.8339267-.459878.3683702-1.020824.5518491-1.682967.5518491-.515228 0-.882001-.1016902-1.102629-.3035298-.479399-.4966386-.717364-1.5257385-.717364-3.0890972 0-.3310068.017337-.6896189.055093-1.0758363l1.214099-12.4126263c-.275978-.3122609-.413903-.5790693-.413903-.7996549 0-.9009599.513944-1.8296536 1.544015-2.7859525.588557-.5698247 1.195606-.8552506 1.82102-.8552506.809442 0 1.213971.4509293 1.213971 1.351504 0 .6255489-.045847 1.3241556-.137925 2.0965904-.036729.2390747-.285096 1.1125577-.744975 2.6203206zm-75.3115254 19.522981c0-2.6815659.9806285-4.0229266 2.9418855-4.0229266.616296 0 1.2480026.0977099 1.8964041.2918458l.3161743.0971963v1.7626304h-1.2640553v-.9000611c-.2920311-.0643268-.567881-.104515-.8265224-.1210781h-.1220007c-.5506725 0-.9644474.2142941-1.2397836.6441664-.2753363.4292303-.4133896 1.1786821-.4133896 2.2482269.0160527 1.2644511.1621966 2.0989015.4380466 2.5034796.1453734.2113411.3115511.3551454.4978911.432055.1862116.0771665.4253329.1150435.7172355.1150435.6645826.016178 1.3290367-.0803763 1.9936193-.2919742l.2189591 1.0574756c-.2672457.0897493-.6305508.1724368-1.0881175.2494748-.4575667.0770381-.8369246.1154287-1.1364041.1154287-.9888475.0160496-1.7239336-.3016039-2.2067994-.9539878-.48171-.6522554-.7231429-1.7280917-.7231429-3.2269952zm13.5061159 4.180983c-.9887191 0-1.6940114-.3401229-2.1153632-1.0212676-.4219938-.6803744-.6323487-1.7234695-.6323487-3.1292854 0-1.4056875.2167759-2.432733.650713-3.0810081.4334235-.6482752 1.1380736-.9723485 2.1153632-.9723485.9760053 0 1.6710239.3206066 2.0842851.9602792.4132612.6403145.6196349 1.6794293.6196349 3.117858 0 1.4379151-.2063737 2.4849905-.6196349 3.1413546s-1.1140588.9844178-2.1026494.9844178zm-.0241433-1.1424742c.5667252 0 .951862-.2086447 1.1542547-.6258057.2022643-.4172894.3039743-1.2092405.3039743-2.3758532 0-1.1667412-.0993984-1.9448254-.2976816-2.333996-.1982832-.3890421-.5713484-.5833063-1.1180398-.5833063-.5472051 0-.9300304.2109558-1.1491179.6322255-.2189591.4211413-.3281176 1.1723906-.3281176 2.2540048 0 1.0822561.0970869 1.8580292.2919027 2.327576.1943021.4700605.5748158.7051549 1.1428252.7051549zm8.3751531 1.0212677v-7.960983h1.8964041c.6397972 0 1.15708.0528994 1.550179.1575428.3927137.1056705.7272524.304557 1.0025886.5958892.2758499.2914606.4704089.6948832.584319 1.2092405.1126259.5143574.1701588 1.2442928.1701588 2.1878805 0 .9438444-.1160932 1.7035679-.3472524 2.2787853-.2307739.5753458-.5773842.9741461-1.0395741 1.1971712-.4616762.2230251-1.1099492.3344735-1.9445622.3344735zm3.4282188-1.6167717c.1863399-.2108275.3138627-.5004905.3828252-.8688608.0689625-.3683702.103508-.8707867.103508-1.5075061 0-.6356922-.0287665-1.1361827-.0850152-1.5010863-.0570193-.3643899-.17658-.654053-.358682-.8688607-.1828726-.2144226-.407097-.3519355-.6749848-.4127955-.2672456-.0608601-.648273-.0912901-1.1425683-.0912901h-.3887327v5.7729742h.364461c.4702805 0 .8403919-.0345387 1.1122608-.1034878.2713552-.0684354.5007164-.2080027.686928-.4190869zm7.7800467 1.6167717v-7.960983h4.6560591v1.1426026h-3.3914901v2.211377h3.062602v1.0944538h-3.062602v2.3700754h3.4282188v1.1424742zm13.2266702-2.905233c-.4380466.0249089-.6817911.0362079-.7300777.0362079h-.5713484v2.8690251h-1.264569v-7.960983h2.5049948c.8828995 0 1.5519769.1965754 2.0050488.5897262.4540993.3930224.6816627 1.0470754.6816627 1.9620306 0 1.0540088-.4540993 1.7955-1.3621696 2.2247303.5597905 1.0614558 1.0289151 2.1225265 1.4104562 3.1844959h-1.3610138c-.3657452-.9805659-.8025075-1.9489341-1.312984-2.905233zm-.3046164-3.937286h-.9968097v2.8067527h1.009395c1.0852923 0 1.62903-.4573492 1.62903-1.3734599 0-.5102487-.1299628-.8764362-.3897601-1.0993329-.2586414-.2230251-.6760121-.3339599-1.2518552-.3339599zm8.7406414 1.0080428c0-1.4989036.8990807-2.2482269 2.6982695-2.2482269.6323487 0 1.3531801.1418784 2.1637782.42525l-.2794458 1.1063947c-.8265224-.259233-1.4773638-.3908397-1.9508548-.3949484-.4737479-.0046223-.8163771.0747269-1.026732.2367636-.211639.1621651-.3161743.4460503-.3161743.8506284 0 .2759246.1173775.5085795.3518756.6988634.2356539.1907976.6322203.3587405 1.1921391.5045992.8506657.2270055 1.4335721.5183377 1.7497464.874767.3161744.3568145.4747753.8872215.4747753 1.5923764 0 1.5317731-.9161608 2.2972744-2.7475835 2.2972744-.6083338 0-1.3738559-.1299375-2.2982357-.3891705l.2553024-1.1545435c0 .008089.1263671.0448105.3770463.1091373.7863264.2028668 1.3955592.3040434 1.8302669.3040434.4334234 0 .7575599-.1092656.9725379-.328182.2138222-.2184029.3219533-.4941991.3219533-.8263614 0-.3321624-.0920783-.5874151-.2736667-.7655014-.1828726-.1782147-.5172828-.3362711-1.0024602-.4741692-.8760932-.243055-1.5094693-.5431182-1.9026967-.8994191-.393099-.3564294-.5898412-.8632113-.5898412-1.5195754z"></path></g></svg>
