<?xml version="1.0" encoding="UTF-8" standalone="no"?>
<!-- Created with Inkscape (http://www.inkscape.org/) -->

<svg
   xmlns:dc="http://purl.org/dc/elements/1.1/"
   xmlns:cc="http://creativecommons.org/ns#"
   xmlns:rdf="http://www.w3.org/1999/02/22-rdf-syntax-ns#"
   xmlns:svg="http://www.w3.org/2000/svg"
   xmlns="http://www.w3.org/2000/svg"
   xmlns:sodipodi="http://sodipodi.sourceforge.net/DTD/sodipodi-0.dtd"
   xmlns:inkscape="http://www.inkscape.org/namespaces/inkscape"
   id="svg2"
   version="1.1"
   inkscape:version="0.48.5 r10040"
   width="483.46841"
   height="174.04802"
   xml:space="preserve"
   sodipodi:docname="Logo ElevenLabs Vectoriel.svg"><metadata
     id="metadata8"><rdf:RDF><cc:Work
         rdf:about=""><dc:format>image/svg+xml</dc:format><dc:type
           rdf:resource="http://purl.org/dc/dcmitype/StillImage" /><dc:title></dc:title></cc:Work></rdf:RDF></metadata><defs
     id="defs6"><clipPath
       clipPathUnits="userSpaceOnUse"
       id="clipPath16"><path
         d="m 0,-841.89014 c 0,0 595.28027,0 595.28027,0 0,0 0,841.89014 0,841.89014 C 595.28027,0 0,0 0,0 0,0 0,-841.89014 0,-841.89014 z"
         id="path18"
         inkscape:connector-curvature="0" /></clipPath></defs><sodipodi:namedview
     pagecolor="#ffffff"
     bordercolor="#666666"
     borderopacity="1"
     objecttolerance="10"
     gridtolerance="10"
     guidetolerance="10"
     inkscape:pageopacity="0"
     inkscape:pageshadow="2"
     inkscape:window-width="1366"
     inkscape:window-height="702"
     id="namedview4"
     showgrid="false"
     inkscape:zoom="0.22425729"
     inkscape:cx="-634.61877"
     inkscape:cy="-4.8752403"
     inkscape:window-x="0"
     inkscape:window-y="27"
     inkscape:window-maximized="1"
     inkscape:current-layer="g10"
     fit-margin-top="0"
     fit-margin-left="0"
     fit-margin-right="0"
     fit-margin-bottom="0" /><g
     id="g10"
     inkscape:groupmode="layer"
     inkscape:label="Logo ElevenLabs Vectoriel"
     transform="matrix(1.25,0,0,-1.25,-139.36157,669.43133)"><g
       id="g12"
       transform="scale(1,-1)"><g
         id="g14"
         clip-path="url(#clipPath16)"><path
           d="m 112.98438,-460.55176 c 0,0 5.77783,-2.36084 5.77783,-2.36084 -0.93799,-5.83203 1.38427,-14.67822 5.28125,-16.5542 0,0 -0.37891,-10.56689 -0.37891,-10.56689 0,0 -9.8081,6.82568 -12.17529,7.63281 0,0 1.49512,21.84912 1.49512,21.84912 z"
           style="fill:#272c2d;fill-opacity:1;fill-rule:nonzero;stroke:none"
           id="path20"
           inkscape:connector-curvature="0" /><path
           d="m 165.79932,-456.52246 c 0,0 -5.35401,-3.21094 -5.35401,-3.21094 1.81201,-5.62109 0.85987,-14.71728 -2.70801,-17.16308 0,0 1.97901,-10.38721 1.97901,-10.38721 0,0 8.6582,8.23535 10.875,9.39209 0,0 -4.79199,21.36914 -4.79199,21.36914 z"
           style="fill:#272c2d;fill-opacity:1;fill-rule:nonzero;stroke:none"
           id="path22"
           inkscape:connector-curvature="0" /><path
           d="m 143.04443,-505.74512 c -4.77588,-0.36474 -8.35205,-4.53222 -7.98681,-9.3081 0.36377,-4.77491 4.53076,-8.35205 9.30664,-7.98682 4.77637,0.36377 8.35205,4.53076 7.98828,9.30713 -0.36524,4.77588 -4.53223,8.35205 -9.30811,7.98779 m 2.26612,-29.79394 c 0,0 9.7e-4,-0.005 9.7e-4,-0.005 -0.003,9.8e-4 -0.005,9.8e-4 -0.007,0.002 -0.002,-9.8e-4 -0.004,-0.002 -0.006,-0.003 0,0 -9.8e-4,0.005 -9.8e-4,0.005 -29.97216,9.57178 -23.96386,43.21777 -19.43701,71.27002 0,0 13.80713,1.05273 13.80713,1.05273 0,0 0.23584,0.0181 0.23584,0.0181 0,0 13.80811,1.0542 13.80811,1.0542 8.729,-27.04004 19.77197,-59.38623 -8.40088,-73.39404"
           style="fill:#272c2d;fill-opacity:1;fill-rule:nonzero;stroke:none"
           id="path24"
           inkscape:connector-curvature="0" /><path
           d="m 134.68164,-396.30664 c 5.06201,-4.10254 11.57373,-36.82373 12.61279,-47.36816 1.03907,-10.54493 0.78711,-14.45459 -0.95361,-15.93458 -1.0083,-0.85644 -4.79102,2.47754 -6.97119,1.8628 -2.24902,0.27685 -5.48291,-3.5918 -6.60889,-2.89893 -1.94629,1.19776 -2.78711,5.0249 -3.36035,15.60498 -0.57275,10.58106 0.90039,43.91065 5.28125,48.73389"
           style="fill:#272c2d;fill-opacity:1;fill-rule:nonzero;stroke:none"
           id="path26"
           inkscape:connector-curvature="0" /><path
           d="m 301.17773,-467.18018 c -0.44921,-1.36621 -0.67382,-2.97607 -0.66699,-4.79882 0.005,-2.5503 0.38184,-5.10938 1.10645,-7.60938 0.14453,-0.23779 0.27929,-0.48193 0.39648,-0.72998 0.18946,-0.4668 0.27344,-0.86084 0.3086,-1.21875 0.76367,-1.66699 1.83007,-3.00928 3.19531,-4.00781 0.54394,-0.41846 1.0664,-0.62207 1.59765,-0.62207 0.42481,0 0.86622,0.13574 1.3125,0.40381 1.04688,0.62988 1.62891,1.77197 1.78125,3.49218 0.15625,1.78077 -0.43066,4.05079 -1.74511,6.74561 -1.25489,2.57422 -3.7041,5.37939 -7.28614,8.34521 m -51.43212,8.71387 c -0.44873,-1.36377 -0.67286,-2.97265 -0.667,-4.79687 0.004,-2.61817 0.39405,-5.24707 1.15821,-7.81104 0.74267,-2.49414 2.03369,-4.42676 3.84765,-5.75586 0.54444,-0.41797 1.06836,-0.62109 1.59912,-0.62109 0.42432,0 0.86524,0.13476 1.31202,0.40381 1.04589,0.62939 1.6289,1.77099 1.78125,3.49023 0.15576,1.78272 -0.43116,4.0542 -1.74512,6.74707 -1.25391,2.57471 -3.70508,5.37988 -7.28613,8.34375 m 105.56201,-19.88281 c -0.11133,-0.0303 -0.22461,-0.0459 -0.33692,-0.0459 -1.04687,0 -1.71289,1.26367 -2.13281,2.24268 -1.02637,2.79736 -2.2998,5.25634 -3.78809,7.30615 -1.42968,1.97021 -2.79589,3.0791 -4.05957,3.29101 -0.13769,0.0229 -0.26757,0.0371 -0.38964,0.0371 -0.33301,0 -1.02637,0 -1.09571,-1.52392 -0.0713,-1.49805 0.14649,-3.46338 0.64453,-5.83936 0.51075,-2.42871 1.14063,-5.08105 1.87403,-7.88476 0.74707,-2.86426 1.27148,-5.53125 1.55859,-7.92432 0.29395,-2.45557 0.16699,-4.4917 -0.3789,-6.05176 -0.60743,-1.72998 -2.12989,-2.45508 -4.40333,-2.0708 -1.29589,0.21875 -2.61035,0.95703 -3.90429,2.19287 -1.24414,1.18701 -2.50196,2.74414 -3.74121,4.62696 -1.22559,1.86621 -2.41114,3.98291 -3.52246,6.29003 -0.44922,0.93116 -0.88965,1.88379 -1.31836,2.85206 0,0 1.84277,-11.22706 1.84277,-11.22706 0.17383,-0.89404 -0.22754,-1.59179 -1.13086,-1.96484 -0.73828,-0.30322 -1.56641,-0.42041 -2.48926,-0.35107 -0.91015,0.0718 -1.77832,0.3457 -2.58008,0.81689 -0.88281,0.51807 -1.38964,1.26709 -1.50683,2.20606 0,0 -1.53906,9.92187 -1.53906,9.92187 -0.36524,2.36084 -0.77051,4.84326 -1.20899,7.44483 -0.19336,1.14697 -0.38476,2.25341 -0.57422,3.3413 -1.0957,2.22998 -2.26172,4.22998 -3.47168,5.93604 -1.2041,1.69189 -2.958,3.00391 -5.20117,3.88965 -1.9043,0.6831 -3.78027,0.73144 -5.60449,0.14013 -1.67969,-0.54101 -3.07617,-1.66406 -4.15625,-3.33984 5.35059,-4.44287 9.18555,-8.55225 11.40234,-12.22021 2.29004,-3.792 3.40039,-6.97998 3.29688,-9.47608 -0.11133,-2.60791 -1.23145,-4.4126 -3.33399,-5.36767 -2.04492,-0.92432 -4.56152,-0.74219 -7.48925,0.56103 -1.90723,0.87598 -3.68262,2.1958 -5.28028,3.92285 -1.58203,1.71387 -2.9834,3.68604 -4.16455,5.86426 -0.31103,0.57373 -0.604,1.16162 -0.88183,1.76074 -0.13379,0.0723 -0.25684,0.15283 -0.39795,0.22119 -1.23291,0.59571 -2.35205,0.96778 -3.33594,1.11475 0,0 0.0381,-0.49512 0.0381,-0.49512 0.13281,-1.01465 0.23779,-2.1289 0.31201,-3.31201 0.0728,-1.19971 0.0269,-2.29785 -0.13623,-3.26367 -0.17286,-1.021 -0.51075,-1.84717 -1.00489,-2.45801 -0.55517,-0.68506 -1.33398,-0.9751 -2.28808,-0.81494 -1.13281,0.19385 -2.06397,0.92285 -2.76416,2.16895 -0.65381,1.16406 -1.04688,2.48193 -1.16797,3.91503 -0.11865,1.42188 0.019,2.83985 0.41211,4.21289 0.375,1.31495 1.08398,2.28174 2.10888,2.88184 -0.32763,1.90625 -0.75488,3.88721 -1.26806,5.89111 -0.5459,2.13721 -1.15283,4.09815 -1.80176,5.83106 -0.64014,1.70508 -1.39014,3.14697 -2.229,4.28369 -0.78223,1.05908 -1.59619,1.66748 -2.41602,1.80615 -0.81103,0.13721 -1.41211,-0.14795 -1.88818,-0.93994 -0.54492,-0.90185 -0.91602,-2.13818 -1.10205,-3.66797 -0.1919,-1.56982 -0.23975,-3.42676 -0.1416,-5.52002 0.0996,-2.10205 0.31494,-4.229 0.63964,-6.31982 0.32618,-2.10401 0.73096,-4.13037 1.20411,-6.02393 0.46923,-1.88134 0.97607,-3.49121 1.50292,-4.77099 0.18116,-0.40723 0.2002,-0.77002 0.0581,-1.08106 -0.13721,-0.30029 -0.40283,-0.51123 -0.79102,-0.63037 -0.56396,-0.1709 -1.229,-0.19287 -1.98388,-0.0669 -0.72119,0.12304 -1.4668,0.37304 -2.21826,0.74414 -0.8169,0.40478 -1.35596,0.85693 -1.66065,1.41015 -0.86621,1.77881 -1.62012,3.95362 -2.24121,6.46289 -0.61572,2.48682 -1.10205,5.14502 -1.44385,7.89698 -0.31006,2.48877 -0.47314,5.00293 -0.50195,7.48877 -1.10498,2.26318 -2.28711,4.28613 -3.51318,6.01416 -1.20313,1.69189 -2.95801,3.00293 -5.20118,3.89111 -1.90283,0.68311 -3.78076,0.72998 -5.604,0.14111 -1.67969,-0.54345 -3.07568,-1.66601 -4.15576,-3.34033 5.3501,-4.44189 9.18506,-8.55176 11.40088,-12.2207 2.29199,-3.79004 3.40088,-6.97901 3.29736,-9.47608 -0.11035,-2.60791 -1.23144,-4.41406 -3.33447,-5.36914 -2.04492,-0.92285 -4.55957,-0.73974 -7.48877,0.56104 -1.90625,0.87695 -3.68311,2.19824 -5.27979,3.9248 -1.58105,1.71241 -2.98242,3.68408 -4.16406,5.86328 -1.18408,2.17969 -2.12207,4.54297 -2.78711,7.02491 -0.66601,2.47021 -1.0332,4.95507 -1.08984,7.37304 -0.008,0.1919 0.004,0.36817 9.7e-4,0.55518 -1.00927,2.68457 -2.24218,5.05371 -3.67822,7.03271 -1.43115,1.9712 -2.79687,3.07813 -4.06006,3.29102 -0.46484,0.0811 -0.81884,0.0312 -1.01416,-0.16895 -0.22754,-0.22998 -0.34863,-0.57275 -0.36767,-1.04589 -0.0259,-0.57325 0.0171,-1.30323 0.1289,-2.17188 0,0 0.37891,-2.92529 0.37891,-2.92529 0.0322,-0.66309 0.23633,-2.16699 0.60498,-4.47315 0.37207,-2.32275 0.79492,-5.04199 1.26611,-8.15283 0.46924,-3.10889 0.96289,-6.41406 1.48291,-9.91504 0.50098,-3.39111 1.021,-6.70801 1.54688,-9.85693 0.51416,-3.07813 0.94726,-5.72217 1.30322,-7.93115 0.3501,-2.18067 0.59522,-3.56397 0.72998,-4.1211 0.27881,-1.30176 -0.2959,-1.95263 -0.83008,-2.26953 -0.66504,-0.39111 -1.47168,-0.51416 -2.42773,-0.35107 -0.88525,0.1499 -1.78516,0.50976 -2.67822,1.07177 -0.94678,0.6001 -1.56397,1.41797 -1.83496,2.44288 -0.13819,0.57421 -0.38477,1.88525 -0.73389,3.89599 -0.35693,2.07031 -0.74024,4.49902 -1.13818,7.22315 -0.40772,2.79101 -0.8501,5.83691 -1.32666,9.14013 -0.47608,3.29785 -0.96338,6.52295 -1.46436,9.67188 -0.31689,1.99023 -0.61475,3.88428 -0.8999,5.69922 -0.22412,-0.57422 -0.65381,-0.65039 -0.85205,-0.65039 -0.0962,0 -0.19483,0.0151 -0.29297,0.0454 -0.3999,0.11962 -0.84912,0.4707 -1.41113,1.10302 -0.52393,0.58789 -0.99268,1.37159 -1.38575,2.30957 -1.92529,4.15235 -4.18896,7.34424 -6.73095,9.48731 -2.51319,2.12207 -5.02735,3.29687 -7.45996,3.4917 -1.8584,0.10302 -3.43506,-0.26172 -4.70606,-1.07666 -1.28223,-0.81494 -2.26709,-1.91797 -2.92627,-3.2749 -0.66992,-1.37745 -1.04492,-2.94141 -1.11377,-4.646 -0.0703,-1.72119 0.14307,-3.44043 0.63379,-5.11231 0.48926,-1.65673 1.28906,-3.18701 2.37891,-4.54589 1.0791,-1.34278 2.44922,-2.38623 4.03906,-3.08399 1.37598,-0.49707 1.51123,-1.16406 1.38135,-1.64111 -0.13819,-0.49512 -0.51221,-0.95508 -1.16797,-1.41895 -1.59619,-1.01074 -2.56738,-2.64892 -2.96729,-5.01074 -0.40771,-2.41211 -0.2959,-4.97119 0.33594,-7.60303 0.63135,-2.63818 1.71289,-5.04638 3.21289,-7.15722 1.46045,-2.05713 3.3252,-3.3628 5.53223,-3.88184 1.46924,-0.31738 2.59814,-0.24414 3.32324,0.21484 0.73584,0.46778 1.17969,1.11084 1.35889,1.96924 0.19091,0.91992 0.15283,1.98877 -0.10987,3.18164 -0.27441,1.22803 -0.70605,2.42139 -1.28515,3.54737 -0.57715,1.12158 -1.26319,2.11084 -2.03907,2.93896 -0.71289,0.75977 -1.42285,1.17285 -2.16113,1.23096 -1.07178,0.18164 -1.69287,0.91064 -1.74512,2.05371 -0.0469,1.01025 0.29737,2.03906 1.021,3.05811 0.70947,1.00195 1.78516,1.82519 3.19727,2.44189 1.44189,0.63525 3.24511,0.60937 5.30615,-0.0659 1.86084,-0.55908 3.40381,-1.68701 4.58496,-3.3501 1.1499,-1.61767 1.94678,-3.44189 2.3667,-5.41894 0.41699,-1.96973 0.4292,-4.03613 0.0342,-6.14209 -0.40088,-2.12158 -1.22412,-3.98486 -2.44385,-5.53369 -1.23242,-1.56397 -2.95605,-2.73828 -5.12305,-3.49219 -2.16992,-0.75195 -4.81201,-0.75195 -7.83789,-0.004 -4.43408,1.06397 -7.89648,2.92774 -10.29004,5.54004 -2.38818,2.60596 -3.91699,5.45801 -4.54638,8.48096 -0.63282,3.02783 -0.43164,5.979 0.59521,8.77002 0.87012,2.37305 2.23975,4.24805 4.08008,5.5918 -0.87793,0.27197 -1.7959,0.67822 -2.74512,1.20996 -1.40625,0.79199 -2.7622,1.85937 -4.03125,3.17431 -1.2749,1.3208 -2.40869,2.96387 -3.37158,4.8877 -0.97119,1.9331 -1.60693,4.16943 -1.89111,6.63916 -0.37598,2.88721 -0.12598,5.65625 0.74414,8.22998 0.86767,2.57227 2.15381,4.71484 3.81982,6.37305 1.67578,1.66601 3.68701,2.80322 5.97803,3.37109 0.80371,0.19971 1.63477,0.2998 2.46875,0.2998 1.5542,0 3.17725,-0.35107 4.82715,-1.04589 1.8291,-0.77881 3.72705,-1.95313 5.64404,-3.48291 1.90918,-1.52198 3.74317,-3.32422 5.45215,-5.35596 1.70508,-2.0293 3.26611,-4.25195 4.64111,-6.60498 1.28369,-2.2002 2.33692,-4.44092 3.15284,-6.67334 0,0 -0.97413,6.28418 -0.97413,6.28418 -0.23193,1.33789 -0.43701,2.77588 -0.60791,4.2749 -0.17529,1.53418 -0.15722,2.93701 0.0508,4.16992 0.21923,1.29102 0.69824,2.33936 1.42626,3.11133 0.58497,0.62207 1.42969,0.93701 2.50977,0.93701 0.36719,0 0.76904,-0.0371 1.19434,-0.11035 1.49267,-0.25195 3.09375,-1.00879 4.75879,-2.24658 1.63085,-1.21533 3.15918,-2.69922 4.54296,-4.41406 1.33399,-1.65235 2.53907,-3.43604 3.58789,-5.30323 0.0103,0.0259 0.0151,0.0542 0.0254,0.0791 0.75781,1.89892 1.79296,3.46289 3.07568,4.64697 1.28516,1.18799 2.77197,2.01806 4.41894,2.46387 0.98829,0.26806 2.00391,0.40332 3.021,0.40332 0.66504,0 1.34619,-0.0581 2.02295,-0.17334 2.30029,-0.38868 4.42334,-1.18799 6.30713,-2.375 1.87402,-1.17774 3.57226,-2.61573 5.0459,-4.27002 1.37011,-1.53565 2.56103,-3.22266 3.55908,-5.00977 0.0811,0.43115 0.16211,0.86084 0.26025,1.26807 0.52979,2.18408 1.37598,3.91162 2.50977,5.13086 0.96484,1.03711 2.17383,1.56298 3.59424,1.56298 0.34668,0 0.71289,-0.0322 1.08593,-0.0962 1.91407,-0.32373 3.66504,-1.43994 5.20508,-3.31689 1.48487,-1.80664 2.83887,-4.04688 4.02881,-6.65381 1.18018,-2.58887 2.20215,-5.43994 3.03613,-8.47217 0.79297,-2.88086 1.45264,-5.66992 1.96289,-8.29492 0.82715,-0.04 1.68506,-0.18701 2.55909,-0.43701 0.0268,-0.007 0.0537,-0.02 0.082,-0.0278 -0.0762,0.25683 -0.16211,0.50976 -0.23096,0.77099 -0.66601,2.47168 -1.0332,4.95703 -1.09033,7.37403 -0.10596,2.61279 0.22314,4.89892 0.979,6.79199 0.7583,1.8999 1.79297,3.46191 3.07617,4.64599 1.28614,1.18897 2.77149,2.01661 4.41797,2.46289 0.98828,0.27002 2.00489,0.40381 3.02149,0.40381 0.66406,0 1.3457,-0.0581 2.02344,-0.17187 2.30078,-0.39111 4.42187,-1.18994 6.30664,-2.37598 1.87011,-1.1748 3.56836,-2.61377 5.04589,-4.27099 0.40918,-0.45899 0.79883,-0.93213 1.17579,-1.41602 -0.24903,1.45801 -0.43848,2.46875 -0.55665,2.95215 -0.40332,1.53076 0.33692,2.14892 0.81543,2.37988 0.45899,0.22412 0.99024,0.33789 1.57715,0.33789 0.28809,0 0.59571,-0.0259 0.91504,-0.0811 0.9336,-0.15772 1.83594,-0.521 2.6836,-1.07569 0.90527,-0.5913 1.50097,-1.40429 1.77441,-2.43603 0,0 0.35645,-1.54297 0.35645,-1.54297 0,0 -0.0176,-0.104 -0.0176,-0.104 0,0 0.25488,-1 0.25488,-1 0.56934,-2.90235 1.37598,-5.95801 2.40039,-9.08741 1.02051,-3.12402 2.125,-6.02197 3.2832,-8.61474 1.15137,-2.57617 2.29395,-4.74024 3.40039,-6.43115 1.40625,-2.15479 2.09864,-2.47999 2.43848,-2.52784 0.0996,0 0.13867,0.0317 0.16699,0.061 0.0664,0.0669 0.27832,0.37305 0.24317,1.44092 -0.0518,1.47119 -0.30371,3.36181 -0.75,5.61914 -0.45508,2.29883 -0.96778,4.7998 -1.542,7.50097 -0.58203,2.71973 -0.91796,5.2461 -0.99902,7.50586 -0.084,2.30616 0.1836,4.21826 0.79297,5.68116 0.6748,1.62304 2.14551,2.30371 4.25977,1.94873 1.49218,-0.25293 3.09472,-1.00782 4.75976,-2.24903 1.62988,-1.21484 3.1582,-2.69873 4.54297,-4.41064 1.37207,-1.69922 2.61035,-3.53711 3.68262,-5.46729 1.07519,-1.93896 1.83691,-3.75195 2.26562,-5.39306 0.45313,-1.77686 0.20703,-2.81104 -0.73437,-3.07178"
           style="fill:#272c2d;fill-opacity:1;fill-rule:nonzero;stroke:none"
           id="path28"
           inkscape:connector-curvature="0" /><path
           d="m 380.61328,-460.47754 c -0.11133,-0.0317 -0.22461,-0.0469 -0.33691,-0.0469 -1.04785,0 -1.71192,1.26611 -2.13184,2.24414 -1.02734,2.80078 -2.30273,5.25781 -3.78711,7.30664 -1.43164,1.97021 -2.79687,3.07617 -4.05957,3.29004 -0.46777,0.0791 -0.81933,0.0303 -1.01562,-0.16895 -0.22754,-0.229 -0.34766,-0.56982 -0.36817,-1.04687 -0.0254,-0.57227 0.0176,-1.30518 0.13086,-2.1709 0.11426,-0.90137 0.23926,-1.86035 0.37793,-2.9253 0.0322,-0.66503 0.23633,-2.16894 0.60547,-4.47168 0.37207,-2.32421 0.79492,-5.04443 1.2666,-8.15625 0.46875,-3.10693 0.96289,-6.41308 1.48242,-9.91406 0.50098,-3.39111 1.02149,-6.70801 1.54688,-9.85693 0.51367,-3.07813 0.94629,-5.71973 1.30273,-7.93115 0.34864,-2.17383 0.59278,-3.55469 0.7295,-4.12061 0.28027,-1.3042 -0.2959,-1.95312 -0.82911,-2.26904 -0.66406,-0.39209 -1.4707,-0.51319 -2.42871,-0.35205 -0.88574,0.15088 -1.78515,0.51074 -2.67675,1.07177 -0.94825,0.6001 -1.56543,1.41895 -1.83594,2.44434 -0.13867,0.57373 -0.38477,1.88477 -0.7334,3.896 -0.3584,2.07177 -0.74121,4.50195 -1.1377,7.22168 -0.41015,2.79199 -0.85058,5.84033 -1.32812,9.14111 -0.47559,3.29883 -0.96289,6.52393 -1.46289,9.67187 -0.50195,3.15528 -0.96485,6.08692 -1.38574,8.8042 0,0 -1.01465,6.54688 -1.01465,6.54688 -0.23145,1.34326 -0.43555,2.78027 -0.60742,4.27392 -0.17481,1.53614 -0.15625,2.93897 0.0508,4.17139 0.21972,1.29297 0.69824,2.33984 1.42675,3.11475 0.58497,0.61816 1.42872,0.9331 2.50977,0.9331 0.36621,0 0.76856,-0.0361 1.19434,-0.10791 1.49414,-0.25537 3.0957,-1.01123 4.75879,-2.24804 1.63183,-1.21534 3.16015,-2.7002 4.54296,-4.41211 1.37207,-1.70215 2.61133,-3.54004 3.68262,-5.46729 1.07422,-1.93555 1.83692,-3.74756 2.26465,-5.39355 0.4541,-1.7793 0.20801,-2.81202 -0.7334,-3.07227"
           style="fill:#272c2d;fill-opacity:1;fill-rule:nonzero;stroke:none"
           id="path30"
           inkscape:connector-curvature="0" /><path
           d="m 399.18945,-478.02637 c -0.43164,2.33985 -0.90136,5.22803 -1.43457,8.81983 -0.52929,3.56396 -1.13281,7.29931 -1.78906,11.07324 0,0 -0.3125,1.35303 -0.3125,1.35303 -0.97363,1.62304 -2.02344,2.96289 -3.12109,3.98193 -1.06446,0.99316 -2.11328,1.54492 -3.13379,1.6499 -1.72852,0.22608 -2.92383,-0.82519 -3.64844,-3.26806 -0.77344,-2.59815 -0.7168,-5.96094 0.16992,-10.00196 0.40625,-2.02002 0.99121,-3.96386 1.73535,-5.77783 0.73926,-1.80908 1.60059,-3.43115 2.55957,-4.82715 0.94825,-1.37988 1.95411,-2.52588 2.98926,-3.40674 0.99317,-0.84228 1.97266,-1.34912 2.86035,-1.50244 0.0879,-0.007 0.17578,-0.009 0.26172,-0.009 1.19141,0 2.13086,0.62696 2.86328,1.91504 m 15.85938,11.71192 c -0.10938,-0.0298 -0.22266,-0.0449 -0.33496,-0.0449 -1.04785,0 -1.71192,1.26417 -2.13282,2.24219 -1.02929,2.80567 -2.30371,5.26367 -3.7871,7.30762 -1.43165,1.97119 -2.79786,3.07715 -4.05957,3.29102 -0.46778,0.0781 -0.82032,0.0303 -1.01563,-0.16895 -0.22656,-0.229 -0.34668,-0.5708 -0.36816,-1.04688 -0.0254,-0.57324 0.0176,-1.30419 0.13086,-2.17187 0,0 0.37402,-2.88037 0.37402,-2.88037 0.13183,-1.0166 0.3584,-2.625 0.6748,-4.82178 0.32032,-2.21094 0.68262,-4.51318 1.07911,-6.8418 0.40527,-2.36718 0.79394,-4.57617 1.1748,-6.6333 0.38477,-2.07666 0.68164,-3.50586 0.91699,-4.39502 0.29688,-1.38476 -0.43652,-2.01709 -0.90137,-2.27002 -0.69726,-0.3789 -1.51953,-0.49072 -2.46777,-0.333 -0.89062,0.15332 -1.77539,0.51025 -2.62695,1.06689 -0.67676,0.44238 -1.18067,1.00635 -1.50391,1.68408 -1.30762,-1.28662 -2.94433,-1.78173 -4.85156,-1.458 -1.64746,0.27832 -3.32227,1.08935 -4.97852,2.4082 -1.61816,1.29101 -3.19238,2.95898 -4.67968,4.95996 -1.48047,1.99121 -2.83887,4.28076 -4.03614,6.80518 -1.19433,2.52002 -2.15332,5.19189 -2.84765,7.93798 -0.69434,2.74707 -1.06348,5.32666 -1.09668,7.6709 -0.0303,2.35791 0.25879,4.40674 0.8584,6.08789 0.61621,1.71485 1.50586,3.04932 2.64355,3.96387 0.9082,0.72803 1.99024,1.09814 3.21582,1.09814 0.37207,0 0.7627,-0.0342 1.16211,-0.10302 1.80371,-0.30616 3.63574,-1.2417 5.44727,-2.78369 1.44238,-1.22803 2.85058,-2.76319 4.19824,-4.57227 0.14453,1.17725 0.46387,2.2041 0.95508,3.06787 0.77343,1.36231 2.23437,1.88135 4.34375,1.52735 1.49218,-0.25342 3.09277,-1.01026 4.75879,-2.24805 1.62793,-1.21436 3.15722,-2.69922 4.54296,-4.41309 1.37598,-1.70508 2.61426,-3.54394 3.68164,-5.46728 1.07715,-1.93994 1.83887,-3.75293 2.26465,-5.39258 0.4541,-1.77637 0.20801,-2.81006 -0.73437,-3.07324"
           style="fill:#272c2d;fill-opacity:1;fill-rule:nonzero;stroke:none"
           id="path32"
           inkscape:connector-curvature="0" /><path
           d="m 442.90625,-483.47314 c 0.58008,-1.09375 1.16016,-1.52002 1.73926,-1.27295 0.57812,0.24707 0.6582,0.94287 0.24023,2.08691 -0.26172,0.73633 -0.79883,1.40088 -1.61816,1.99902 -0.81836,0.6001 -1.81153,1.07618 -2.97949,1.42627 -1.167,0.35303 -2.41309,0.58203 -3.73536,0.69092 -1.32421,0.10986 -2.61328,0.0801 -3.86914,-0.0923 0.16602,1.88916 0.15821,3.88232 -0.0205,5.98437 -0.18067,2.10059 -0.58008,4.27881 -1.19434,6.52783 -0.41797,1.60596 -1.10059,3.35108 -2.0459,5.23584 -0.94629,1.88526 -2.04492,3.66309 -3.29492,5.33106 -1.25195,1.66992 -2.60254,3.08594 -4.05273,4.25195 -1.45215,1.16602 -2.88575,1.87109 -4.30079,2.10986 -1.78906,0.30323 -3.04394,-0.21191 -3.7705,-1.54687 -0.72364,-1.33399 -1.17578,-2.98193 -1.35547,-4.9458 -0.17871,-1.96192 -0.1416,-4.00098 0.11328,-6.11621 0.25683,-2.11377 0.5,-3.84082 0.73242,-5.18408 0.33008,-1.667 0.67676,-3.69874 1.03613,-6.09864 0.36036,-2.39892 0.75391,-4.93896 1.18262,-7.61914 0.42676,-2.68017 0.84863,-5.39599 1.26367,-8.15185 0.41504,-2.75293 0.80567,-5.31202 1.17285,-7.67432 0.36426,-2.36182 0.69434,-4.3916 0.98145,-6.08984 0.28711,-1.69678 0.49805,-2.8252 0.63379,-3.38477 0.2334,-0.8833 0.74707,-1.58301 1.54199,-2.10205 0.79297,-0.51709 1.61914,-0.8501 2.47656,-0.99512 0.85547,-0.14502 1.56153,-0.0532 2.11621,0.27393 0.55469,0.3291 0.74414,0.89111 0.57422,1.68701 -0.13476,0.55908 -0.36621,1.80615 -0.68945,3.73877 -0.32422,1.93408 -0.6875,4.19922 -1.09082,6.79932 -0.4043,2.59912 -0.85352,5.37695 -1.34863,8.33593 -0.49512,2.96094 -0.94141,5.75782 -1.33789,8.39307 -0.39746,2.6377 -0.75196,4.95898 -1.0625,6.96582 -0.3125,2.01123 -0.48536,3.36133 -0.52051,4.05811 -0.13379,1.02002 -0.35742,2.30224 -0.66992,3.85009 -0.3125,1.54981 -0.51953,3.042 -0.6211,4.47705 -0.10156,1.43604 -0.0342,2.63282 0.20508,3.58789 0.23828,0.95801 0.80566,1.35889 1.7002,1.20801 0.66992,-0.11523 1.43066,-0.49218 2.28027,-1.13427 0.84961,-0.64161 1.65332,-1.44874 2.4082,-2.42188 0.75586,-0.9707 1.44043,-2.12207 2.05957,-3.45508 0.61817,-1.32861 1.03125,-2.7417 1.23828,-4.23486 0.45215,-2.75879 0.38086,-5.22022 -0.21679,-7.38086 -0.59571,-2.16113 -1.56739,-4.04834 -2.91309,-5.66016 -0.50098,-0.68115 -0.72656,-1.67773 -0.67969,-2.99072 0.0459,-1.31006 0.23829,-2.55029 0.57618,-3.72021 0.33886,-1.16797 0.79492,-2.10791 1.36328,-2.81885 0.57031,-0.70996 1.09179,-0.79834 1.56543,-0.26514 1.72168,2.00684 2.9082,4.72217 3.56445,8.13721 0.95703,0.22168 1.97949,0.37402 3.06738,0.45801 1.08887,0.085 2.13867,0.0596 3.15039,-0.0742 1.01368,-0.13184 1.91016,-0.38086 2.69336,-0.74512 0.78125,-0.36084 1.35157,-0.84082 1.71094,-1.43896"
           style="fill:#272c2d;fill-opacity:1;fill-rule:nonzero;stroke:none"
           id="path34"
           inkscape:connector-curvature="0" /><path
           d="m 424.52539,-508.62549 c -0.20508,0 -0.42187,0.02 -0.65137,0.0591 -0.77832,0.13184 -1.54199,0.43995 -2.2705,0.91504 -0.6836,0.4458 -1.11329,1.02979 -1.3125,1.78369 -0.12793,0.53223 -0.33887,1.65918 -0.62305,3.33741 -0.28906,1.69677 -0.61621,3.72265 -0.97949,6.08203 -0.36817,2.36279 -0.75879,4.91992 -1.17285,7.67383 -0.41602,2.75586 -0.8379,5.47412 -1.26465,8.15478 -0.42871,2.67822 -0.82325,5.21631 -1.18164,7.61426 -0.35645,2.375 -0.70704,4.43603 -1.04004,6.125 -0.22852,1.31299 -0.4668,3 -0.72657,5.14404 -0.24902,2.06299 -0.28613,4.08106 -0.1123,6 0.17187,1.88086 0.60645,3.47363 1.29297,4.73487 0.61035,1.12597 1.65723,1.53417 3.20019,1.27001 1.31446,-0.22314 2.67774,-0.89404 4.05079,-1.99609 1.4082,-1.13281 2.74023,-2.53076 3.958,-4.15381 1.22559,-1.6372 2.31739,-3.40332 3.24414,-5.24902 0.92481,-1.84619 1.59961,-3.57227 2.00489,-5.13037 0.60547,-2.21485 1.00195,-4.37989 1.17968,-6.4375 0.17579,-2.06348 0.18164,-4.04444 0.0205,-5.88819 0,0 -0.0605,-0.68017 -0.0605,-0.68017 0,0 0.67579,0.0923 0.67579,0.0923 1.20996,0.16504 2.4707,0.1958 3.75097,0.0889 1.28125,-0.10498 2.50098,-0.33105 3.62305,-0.66992 1.10352,-0.33106 2.05078,-0.7832 2.81543,-1.34424 0.72363,-0.52783 1.20312,-1.11377 1.42578,-1.74072 0.1377,-0.37598 0.41504,-1.2544 0.0596,-1.40528 -0.28711,-0.022 -0.63379,0.25196 -1.04492,1.02832 -0.42774,0.71485 -1.08301,1.271 -1.96289,1.67676 -0.83203,0.38721 -1.79199,0.65283 -2.85156,0.79102 -1.0459,0.13916 -2.13965,0.16601 -3.2627,0.0771 -1.11328,-0.085 -2.17285,-0.24512 -3.14941,-0.47022 0,0 -0.34375,-0.0811 -0.34375,-0.0811 0,0 -0.0674,-0.34668 -0.0674,-0.34668 -0.63574,-3.30908 -1.79394,-5.9624 -3.44238,-7.88623 -0.20898,-0.23389 -0.33105,-0.24073 -0.72754,0.25195 -0.52246,0.65332 -0.94824,1.53809 -1.26465,2.62891 -0.32519,1.12304 -0.51172,2.33007 -0.55566,3.58935 -0.042,1.18164 0.15137,2.07276 0.57422,2.64795 1.37109,1.64209 2.38672,3.61475 3,5.83887 0.61523,2.22705 0.69238,4.78808 0.22851,7.61377 -0.21191,1.52636 -0.64355,3.00342 -1.28125,4.37744 -0.63672,1.36865 -1.35058,2.56689 -2.12402,3.55762 -0.77832,1.00439 -1.62305,1.85302 -2.50977,2.52295 -0.91308,0.6914 -1.76074,1.10742 -2.51757,1.23632 -0.1543,0.0249 -0.30176,0.0381 -0.44043,0.0381 -0.54883,0 -1.52149,-0.21533 -1.87891,-1.65137 -0.25098,-1.00097 -0.32519,-2.2666 -0.21973,-3.75781 0.10352,-1.45313 0.31543,-2.98193 0.62989,-4.5459 0.31054,-1.53808 0.53418,-2.82031 0.66504,-3.81396 0.0322,-0.67823 0.20312,-2.02295 0.52148,-4.06934 0.31055,-2.00781 0.66504,-4.32764 1.06152,-6.96387 0.39746,-2.63916 0.84473,-5.43994 1.33985,-8.40185 0.49414,-2.95703 0.94336,-5.73291 1.34765,-8.33008 0.40332,-2.60303 0.76758,-4.87012 1.0918,-6.80615 0.32129,-1.91992 0.55566,-3.19092 0.69727,-3.77686 0.17089,-0.79785 -0.17481,-1.00293 -0.32227,-1.08984 -0.29785,-0.17627 -0.66699,-0.26514 -1.09668,-0.26514 m -7.68945,60.05908 c -1.50586,0 -2.61914,-0.64404 -3.31055,-1.91406 -0.75586,-1.39307 -1.23437,-3.12891 -1.41992,-5.1582 -0.18067,-1.99365 -0.14258,-4.09082 0.11621,-6.22901 0.2627,-2.16259 0.50293,-3.8667 0.73633,-5.21289 0.33301,-1.68506 0.67969,-3.72802 1.03418,-6.08691 0.36035,-2.3999 0.75488,-4.9419 1.18261,-7.62402 0.42676,-2.67676 0.84864,-5.39307 1.26368,-8.14698 0.41504,-2.7539 0.80566,-5.31298 1.17285,-7.67675 0.36523,-2.36426 0.69433,-4.39747 0.98144,-6.0962 0.29395,-1.72705 0.50391,-2.84716 0.64258,-3.42285 0.27051,-1.02343 0.86621,-1.8374 1.77344,-2.4292 0.85449,-0.5581 1.75684,-0.91992 2.68359,-1.07715 0.99512,-0.16796 1.81836,-0.0488 2.4834,0.34229 0.5332,0.31689 1.10938,0.96582 0.83008,2.271 -0.0967,0.39892 -0.29004,1.354 -0.68359,3.71386 -0.3252,1.93311 -0.68848,4.19483 -1.0918,6.792 -0.4043,2.60107 -0.85352,5.38085 -1.34863,8.34179 -0.49512,2.95899 -0.93946,5.75342 -1.33496,8.38623 -0.39942,2.63819 -0.75391,4.95996 -1.06446,6.96778 -0.30762,1.98242 -0.48047,3.3291 -0.51465,4.00244 -0.13964,1.0747 -0.36035,2.34668 -0.67968,3.92969 -0.30664,1.51806 -0.51172,3.00195 -0.61231,4.40722 -0.0967,1.37695 -0.0332,2.52686 0.19043,3.41797 0.22949,0.92383 0.65332,0.875 1.08008,0.80273 0.58301,-0.0996 1.27051,-0.4458 2.04297,-1.03076 0.81054,-0.6123 1.58691,-1.39306 2.30762,-2.32226 0.72265,-0.92676 1.39453,-2.05371 1.99511,-3.34961 0.59278,-1.27539 0.99414,-2.64844 1.19336,-4.08008 0.43945,-2.68213 0.3711,-5.08838 -0.20215,-7.16211 -0.57031,-2.07324 -1.51562,-3.90918 -2.80664,-5.45605 -0.59277,-0.8042 -0.85742,-1.92579 -0.80468,-3.35791 0.0459,-1.34815 0.24609,-2.64502 0.59667,-3.85303 0.35645,-1.22998 0.84864,-2.24219 1.46094,-3.0083 0.79395,-0.98877 1.70215,-1.06592 2.39746,-0.28662 1.71973,2.00586 2.93555,4.70996 3.62207,8.04492 0.82715,0.17285 1.71387,0.29785 2.64551,0.37012 1.0459,0.082 2.06152,0.0557 3.03613,-0.0723 0.9502,-0.12402 1.80274,-0.35791 2.53516,-0.69775 0.67871,-0.31495 1.17383,-0.72608 1.47363,-1.2251 0.71289,-1.34912 1.57325,-1.85498 2.41993,-1.49512 0.61328,0.26221 1.20312,0.95606 0.53613,2.7749 -0.29395,0.83301 -0.90235,1.59424 -1.80762,2.25293 -0.8623,0.6333 -1.9209,1.14014 -3.14355,1.50635 -1.19336,0.36182 -2.48926,0.60205 -3.84766,0.71289 -1.12695,0.0933 -2.23535,0.0879 -3.31934,-0.0171 0.11231,1.71387 0.0889,3.53125 -0.0713,5.41309 -0.18359,2.12304 -0.59082,4.35205 -1.21191,6.625 -0.42383,1.625 -1.125,3.42383 -2.08496,5.33594 -0.95508,1.90429 -2.08105,3.72607 -3.3457,5.41503 -1.27246,1.69629 -2.667,3.15918 -4.14746,4.3501 -1.52051,1.21875 -3.05079,1.96778 -4.55079,2.22119 -0.35937,0.0606 -0.70605,0.0908 -1.02929,0.0908"
           style="fill:#272c2d;fill-opacity:1;fill-rule:nonzero;stroke:none"
           id="path36"
           inkscape:connector-curvature="0" /><path
           d="m 464.75586,-473.8999 c -0.16602,-0.30225 -0.4375,-0.50684 -0.78516,-0.59522 -0.91406,-0.22754 -1.76465,0.44727 -2.51757,2.06934 -1.44141,3.30273 -3.07715,6.11084 -4.87989,8.3789 0.36817,-1.88916 0.41406,-3.91308 0.13672,-6.04296 -0.39355,-3.00782 -1.2666,-5.95411 -2.60058,-8.76905 -0.7002,-1.41211 -1.43555,-2.75293 -2.18848,-3.98877 -0.7207,-1.1792 -1.28418,-2.27343 -1.67481,-3.25146 -0.36816,-0.92481 -0.53027,-1.7627 -0.48242,-2.49268 0.0439,-0.65918 0.44727,-1.32715 1.20215,-1.99023 0.30957,-0.27295 0.71582,-0.6958 0.68945,-1.19873 -0.0137,-0.27197 -0.15332,-0.51514 -0.3955,-0.68897 -0.39356,-0.27734 -0.97852,-0.41211 -1.86524,-0.41211 0,0 -0.003,0 -0.003,0 -0.7793,0.008 -1.66015,0.17774 -2.61816,0.50196 -0.98828,0.33398 -1.81641,0.85888 -2.43946,1.53808 -1.13183,1.09912 -1.81738,2.25196 -2.03906,3.42578 -0.21777,1.15332 -0.13574,2.38721 0.2461,3.667 0.36718,1.24218 0.93164,2.57714 1.67382,3.96631 0.72657,1.36572 1.46778,2.90966 2.20508,4.59375 0.83887,1.87402 1.46582,3.89208 1.86133,5.99707 0.39258,2.10009 0.51758,4.06201 0.37207,5.83007 -0.1416,1.72998 -0.61816,3.2417 -1.41406,4.49073 -0.76758,1.20703 -1.83106,1.91113 -3.25098,2.15234 -0.36523,0.062 -0.71289,0.0937 -1.03613,0.0937 -1.09473,0 -1.93555,-0.3501 -2.57031,-1.06494 -0.86719,-0.97119 -1.29688,-2.11084 -1.31739,-3.48291 -0.0215,-1.37012 0.39942,-2.7168 1.24903,-4 0.83886,-1.26416 2.11914,-2.02588 3.91894,-2.33106 0.63184,-0.10791 1.02246,-0.67187 1.16113,-1.67382 0.11426,-0.80811 0.0498,-1.70118 -0.19433,-2.6543 -0.24805,-0.95996 -0.69043,-1.81592 -1.31445,-2.54688 -0.69825,-0.81201 -1.60157,-1.14209 -2.70606,-0.958 -1.90137,0.32226 -3.49609,1.17285 -4.74121,2.52978 -1.21582,1.32813 -2.10547,2.89844 -2.64355,4.66406 -0.53418,1.7544 -0.72461,3.59522 -0.56543,5.47217 0.15918,1.88477 0.67675,3.61621 1.53515,5.14697 0.87305,1.55811 2.14942,2.78223 3.79297,3.63819 1.13281,0.59082 2.44629,0.88867 3.9043,0.88867 0.67187,0 1.38574,-0.064 2.12597,-0.18799 1.67872,-0.28369 3.26954,-0.75293 4.71582,-1.38769 2.63184,-1.07227 4.89649,-2.44727 6.72852,-4.08838 1.82227,-1.62989 3.35059,-3.30762 4.54199,-4.98877 1.19141,-1.67481 2.12598,-3.25391 2.7793,-4.69092 0.66016,-1.45215 1.08008,-2.48389 1.28125,-3.14404 0.37109,-1.12403 0.41016,-1.89209 0.12207,-2.41504"
           style="fill:#272c2d;fill-opacity:1;fill-rule:nonzero;stroke:none"
           id="path38"
           inkscape:connector-curvature="0" /><path
           d="m 463.96094,-509.54688 c 0.58105,-1.74804 10.13867,-19.38916 12.43652,-18.36816 5.54199,2.46289 -7.20312,16.26514 -12.43652,18.36816"
           style="fill:#272c2d;fill-opacity:1;fill-rule:nonzero;stroke:none"
           id="path40"
           inkscape:connector-curvature="0" /><path
           d="m 443.22949,-512.40234 c -1.01269,-1.55811 -8.83398,-19.95899 -6.52539,-20.95704 5.57031,-2.4038 8.25977,15.80323 6.52539,20.95704"
           style="fill:#272c2d;fill-opacity:1;fill-rule:nonzero;stroke:none"
           id="path42"
           inkscape:connector-curvature="0" /><path
           d="m 475.7959,-492.93115 c 1.68359,-0.88721 21.35742,-7.41309 22.28711,-5.16504 2.24121,5.42187 -16.97168,7.07275 -22.28711,5.16504"
           style="fill:#272c2d;fill-opacity:1;fill-rule:nonzero;stroke:none"
           id="path44"
           inkscape:connector-curvature="0" /></g></g></g></svg>