<?xml version="1.0" encoding="utf-8"?>
<!-- Generator: Adobe Illustrator 23.1.1, SVG Export Plug-In . SVG Version: 6.00 Build 0)  -->
<svg version="1.1" id="Calque_1" xmlns="http://www.w3.org/2000/svg" xmlns:xlink="http://www.w3.org/1999/xlink" x="0px" y="0px"
	 viewBox="0 0 500 170" style="enable-background:new 0 0 500 170;" xml:space="preserve">
<style type="text/css">
	.st0{fill:#F6C214;}
	.st1{fill:#AF7A11;}
	.st2{fill:#D8533F;}
	.st3{fill:#9D2C40;}
	.st4{fill:#2C9F53;}
	.st5{fill:#31733F;}
	.st6{fill:#6181C1;}
	.st7{fill:#4D5B96;}
	.st8{fill:#FFFFFF;}
</style>
<g>
	<g>
		<g>
			<g>
				<path class="st0" d="M89.6,75.8L74.8,49c-2.2-4-5.9-10.6-8.1-14.7l-8.3-15.1c-2.2-4-7.8-7.3-12.4-7.3H17c-4.6,0-6.6,3.3-4.3,7.3
					l31.2,56.5l4,7.3L12.7,147c-2.2,4-0.3,7.3,4.3,7.3h29c4.6,0,10.2-3.3,12.4-7.3l8.3-15.1c2.2-4,5.9-10.6,8.1-14.7l14.8-26.8
					C91.8,86.4,91.8,79.9,89.6,75.8z"/>
				<path class="st0" d="M89.6,75.8L74.8,49c-2.2-4-5.9-10.6-8.1-14.7l-8.3-15.1c-2.2-4-7.8-7.3-12.4-7.3H17c-4.6,0-6.6,3.3-4.3,7.3
					l31.2,56.5l4,7.3L12.7,147c-2.2,4-0.3,7.3,4.3,7.3h29c4.6,0,10.2-3.3,12.4-7.3l8.3-15.1c2.2-4,5.9-10.6,8.1-14.7l14.8-26.8
					C91.8,86.4,91.8,79.9,89.6,75.8z"/>
				<path class="st0" d="M89.6,75.8L74.8,49c-2.2-4-5.9-10.6-8.1-14.7l-8.3-15.1c-2.2-4-7.8-7.3-12.4-7.3H17c-4.6,0-6.6,3.3-4.3,7.3
					l31.2,56.5l4,7.3L12.7,147c-2.2,4-0.3,7.3,4.3,7.3h29c4.6,0,10.2-3.3,12.4-7.3l8.3-15.1c2.2-4,5.9-10.6,8.1-14.7l14.8-26.8
					C91.8,86.4,91.8,79.9,89.6,75.8z"/>
				<path class="st1" d="M67,131.4c2.2-4.1,5.7-10.3,7.8-14.1l3.8-6.9L30,22.2H15.2c-0.3,0-0.6,0-0.9,0l29.5,53.6l4,7.3l-3.7,6.8
					l1.9,3.5v0L67,131.4z"/>
				<path class="st1" d="M89.6,75.8L74.8,49c-2.2-4-5.9-10.6-8.1-14.7l-8.3-15.1c-2.2-4-7.8-7.3-12.4-7.3h-4.1
					c4.6,0,10.2,3.3,12.4,7.3l8.3,15.1c2.2,4,5.9,10.6,8.1,14.7l14.8,26.8c2.2,4,2.2,10.6,0,14.7l-14.8,26.8
					c-2.2,4-5.9,10.6-8.1,14.7L54.3,147c-2.2,4-7.8,7.3-12.4,7.3H46c4.6,0,10.2-3.3,12.4-7.3l8.3-15.1c2.2-4,5.9-10.6,8.1-14.7
					l14.8-26.8C91.8,86.4,91.8,79.9,89.6,75.8z"/>
				<path class="st1" d="M85.8,75.8L71,49c-2.2-4-5.9-10.6-8.1-14.7l-8.3-15.1c-2.2-4-7.8-7.3-12.4-7.3h-4.1
					c4.6,0,10.2,3.3,12.4,7.3l8.3,15.1c2.2,4,5.9,10.6,8.1,14.7l14.8,26.8c2.2,4,2.2,10.6,0,14.7l-14.8,26.8
					c-2.2,4-5.9,10.6-8.1,14.7L50.5,147c-2.2,4-7.8,7.3-12.4,7.3h4.1c4.6,0,10.2-3.3,12.4-7.3l8.3-15.1c2.2-4,5.9-10.6,8.1-14.7
					l14.8-26.8C88,86.4,88,79.9,85.8,75.8z"/>
				<path class="st1" d="M65.1,118c0,0-16.8,2.3-28,0C37.1,118,50.4,111,65.1,118z M26.4,137.6c11.2,2.3,28,0,28,0
					C39.6,130.7,26.4,137.6,26.4,137.6z"/>
				<path class="st2" d="M89.6,90.5c2.2-4,2.2-10.6,0-14.7L74.8,49c-2.2-4-5.9-10.6-8.1-14.7l-8.3-15.1c-2.2-4-7.8-7.3-12.4-7.3H25
					l53.1,99.3L89.6,90.5z"/>
				<path class="st3" d="M32.4,19.3l2.7,5l28.4,51.6l4,7.3v0l13,23.6l3.6-6.5l-9.4-17.1v0l-4-7.3L42.3,24.3l-2.7-5
					c-2.2-4-0.3-7.3,4.3-7.3H29.4C24.8,12,30.1,15.3,32.4,19.3z"/>
				<path class="st3" d="M53.6,26.6c-11.2,2.3-28,0-28,0C40.3,19.6,53.6,26.6,53.6,26.6z M36.3,46.2c0,0,16.8,2.3,28,0
					C64.3,46.2,51.1,39.3,36.3,46.2z M47.1,65.9c0,0,16.8,2.3,28,0C75.1,65.9,61.9,59,47.1,65.9z M57.9,85.6c0,0,16.8,2.3,28,0
					C85.9,85.6,72.6,78.6,57.9,85.6z"/>
				<path class="st4" d="M50.8,64l-8.3,9.4l1.4,2.5l4,7.3L12.7,147c-2.2,4-0.3,7.3,4.3,7.3h14.6l0.3-0.1L66,92.4L50.8,64z"/>
				<polygon class="st5" points="42.5,73.3 43.9,75.8 47.9,83.1 44.2,89.9 46.1,93.4 46.1,93.4 55.7,110.9 66,92.4 50.8,64 				"/>
				<path class="st5" d="M66,92.4l-2.1-4c-0.2,0.8-0.5,1.5-0.9,2.1l-14.8,26.8c-2.2,4-5.9,10.6-8.1,14.7L31.8,147
					c-2.2,4-7.8,7.3-12.4,7.3h12.2l0.3-0.1L66,92.4z"/>
				<path class="st5" d="M42.7,134.6l-2.2,4c-4.7,0.1-9.8-0.1-14.1-1C26.4,137.6,33.3,134,42.7,134.6z M37.1,118
					c4.3,0.9,9.5,1.1,14.2,1l2.2-4C44.1,114.3,37.1,118,37.1,118z"/>
				<path class="st6" d="M70.8,124.6c0.9-1.7,1.8-3.3,2.7-4.9l5.8-10.5l3.1-5.7L31.9,12H17c-4.6,0-6.5,3.3-4.3,7.3l2.7,5l28.4,51.6
					l4,7.3v0L70.8,124.6z"/>
				<path class="st7" d="M72.8,120.9l-1.6-2.8l0,0L52,83.2v0l-4-7.3L19.5,24.3l-2.7-5c-2.2-4-0.3-7.3,4.3-7.3H17
					c-4.6,0-6.5,3.3-4.3,7.3l2.7,5l28.4,51.6l4,7.3v0l21.3,38.6l0,0l1.6,2.8C71.5,123.3,72.1,122.1,72.8,120.9z"/>
				<path class="st7" d="M16.5,19.3l2.7,5l28.4,51.6l4,7.3v0l21,38c0.3-0.5,0.5-1,0.8-1.4l1.2-2.3L55.7,83.2v0l-4-7.3L23.3,24.3
					l-2.7-5c-2.2-4-0.3-7.3,4.3-7.3h-4.1C16.2,12,14.2,15.3,16.5,19.3z"/>
				<path class="st7" d="M40.5,27.6c-7.9-0.1-14.9-1-14.9-1c4.5-2.1,8.8-2.9,12.7-3.1L40.5,27.6z M49.1,43.2
					c-3.9,0.1-8.2,0.9-12.7,3.1c0,0,7,1,15,1L49.1,43.2z M59.9,62.8c-3.9,0.1-8.3,0.9-12.8,3.1c0,0,7.1,1,15.1,1L59.9,62.8z
					 M70.8,82.5c-3.9,0.1-8.3,0.9-12.9,3.1c0,0,7.1,1,15.2,1L70.8,82.5z"/>
			</g>
			<g>
				<g>
					<path class="st8" d="M51.7,16.2c-0.6,0-0.6,1,0,1C52.4,17.2,52.4,16.2,51.7,16.2z"/>
					<path class="st8" d="M55.5,18.5c-0.7,0-0.7,1,0,1C56.2,19.6,56.2,18.5,55.5,18.5z"/>
					<path class="st8" d="M56,26c-0.5,0-0.5,0.8,0,0.8C56.5,26.7,56.5,26,56,26z"/>
					<path class="st8" d="M59.4,26.5c-0.8,0-0.8,1.2,0,1.2C60.1,27.8,60.1,26.5,59.4,26.5z"/>
					<path class="st8" d="M59.8,30.7c-0.7,0-0.7,1.1,0,1.1C60.5,31.8,60.5,30.7,59.8,30.7z"/>
					<path class="st8" d="M61.3,33.3c-0.7,0-0.7,1.1,0,1.1C62,34.4,62,33.3,61.3,33.3z"/>
					<path class="st8" d="M63.3,34.5c-0.8,0-0.8,1.2,0,1.2C64.1,35.7,64.1,34.5,63.3,34.5z"/>
					<path class="st8" d="M66,43.2c-0.7,0-0.7,1,0,1C66.7,44.2,66.7,43.2,66,43.2z"/>
					<path class="st8" d="M63,44.5c-0.8,0-0.8,1.2,0,1.2C63.8,45.7,63.8,44.5,63,44.5z"/>
					<path class="st8" d="M68.4,45.5c-0.7,0-0.7,1.1,0,1.1C69.1,46.6,69.1,45.5,68.4,45.5z"/>
					<path class="st8" d="M71.1,50.9c-0.6,0-0.6,0.9,0,0.9C71.7,51.8,71.7,50.9,71.1,50.9z"/>
					<path class="st8" d="M66.3,39.3c-0.6,0-0.6,0.9,0,0.9C66.9,40.1,66.9,39.3,66.3,39.3z"/>
					<path class="st8" d="M61.1,38.6c-0.7,0-0.7,1,0,1C61.8,39.6,61.8,38.6,61.1,38.6z"/>
					<path class="st8" d="M74.9,53.6c-0.6,0-0.6,0.9,0,0.9C75.5,54.5,75.5,53.6,74.9,53.6z"/>
					<path class="st8" d="M75.6,58.4c-0.6,0-0.6,0.9,0,0.9C76.1,59.2,76.1,58.4,75.6,58.4z"/>
					<path class="st8" d="M78,59c-0.6,0-0.6,0.9,0,0.9C78.5,59.9,78.5,59,78,59z"/>
					<path class="st8" d="M79.4,63.3c-0.6,0-0.6,0.9,0,0.9C80,64.2,80,63.3,79.4,63.3z"/>
					<path class="st8" d="M76.8,66c-0.5,0-0.5,0.8,0,0.8C77.4,66.8,77.4,66,76.8,66z"/>
					<path class="st8" d="M74,60.9c-0.5,0-0.5,0.8,0,0.8C74.5,61.7,74.5,60.9,74,60.9z"/>
					<path class="st8" d="M70,55.5c-0.6,0-0.6,1,0,1C70.6,56.4,70.6,55.5,70,55.5z"/>
					<path class="st8" d="M67.6,52.3c-0.5,0-0.5,0.8,0,0.8C68.1,53.2,68.1,52.3,67.6,52.3z"/>
					<path class="st8" d="M81.1,63.4c-0.6,0-0.6,1,0,1C81.8,64.4,81.8,63.4,81.1,63.4z"/>
					<path class="st8" d="M80.8,69.1c-0.5,0-0.5,0.7,0,0.7C81.3,69.8,81.3,69.1,80.8,69.1z"/>
					<path class="st8" d="M80.2,72.1c-0.5,0-0.5,0.8,0,0.8C80.7,72.8,80.7,72.1,80.2,72.1z"/>
					<path class="st8" d="M84,72c-0.6,0-0.6,0.9,0,0.9C84.5,72.9,84.6,72,84,72z"/>
					<path class="st8" d="M86.1,73.8c-0.7,0-0.7,1.1,0,1.1C86.8,74.9,86.8,73.8,86.1,73.8z"/>
					<path class="st8" d="M87,79.1c-0.6,0-0.6,0.9,0,0.9C87.6,80.1,87.6,79.1,87,79.1z"/>
					<path class="st8" d="M88.6,81.5c-0.6,0-0.6,1,0,1C89.2,82.5,89.2,81.5,88.6,81.5z"/>
					<path class="st8" d="M85.9,82.7c-0.5,0-0.5,0.8,0,0.8C86.4,83.5,86.4,82.7,85.9,82.7z"/>
					<path class="st8" d="M82.6,77.9c-0.6,0-0.6,0.9,0,0.9C83.2,78.8,83.2,77.9,82.6,77.9z"/>
					<path class="st8" d="M80.8,73.3c-0.5,0-0.5,0.8,0,0.8C81.3,74.1,81.3,73.3,80.8,73.3z"/>
					<path class="st8" d="M82.9,66.9c-0.6,0-0.6,0.9,0,0.9C83.5,67.8,83.5,66.9,82.9,66.9z"/>
					<path class="st8" d="M80.5,65.9c-0.6,0-0.7,1,0,1C81.1,66.9,81.1,65.9,80.5,65.9z"/>
					<path class="st8" d="M74.1,62.1c-0.7,0-0.7,1.1,0,1.1C74.8,63.1,74.8,62.1,74.1,62.1z"/>
					<path class="st8" d="M70.6,65.7c-0.7,0-0.7,1.1,0,1.1C71.3,66.8,71.3,65.7,70.6,65.7z"/>
					<path class="st8" d="M67.3,62.1c-0.4,0-0.4,0.6,0,0.6C67.7,62.8,67.7,62.1,67.3,62.1z"/>
					<path class="st8" d="M63.6,57.1c-0.4,0-0.4,0.6,0,0.6C64,57.6,64,57.1,63.6,57.1z"/>
					<path class="st8" d="M66,55.4c-0.5,0-0.5,0.7,0,0.7C66.5,56.1,66.5,55.4,66,55.4z"/>
					<path class="st8" d="M61.9,51.5c-0.6,0-0.6,0.9,0,0.9C62.5,52.4,62.5,51.5,61.9,51.5z"/>
					<path class="st8" d="M65.6,48.9c-0.5,0-0.5,0.8,0,0.8C66.1,49.6,66.1,48.9,65.6,48.9z"/>
					<path class="st8" d="M60.1,45.9c-0.4,0-0.4,0.6,0,0.6C60.6,46.5,60.6,45.9,60.1,45.9z"/>
					<path class="st8" d="M55.7,46.4c-0.4,0-0.4,0.6,0,0.6C56.1,47,56.1,46.4,55.7,46.4z"/>
					<path class="st8" d="M56.2,40.5c-0.3,0-0.3,0.4,0,0.4C56.4,40.9,56.4,40.5,56.2,40.5z"/>
					<path class="st8" d="M60.3,41.4c-0.5,0-0.5,0.7,0,0.7C60.8,42.1,60.8,41.4,60.3,41.4z"/>
					<path class="st8" d="M58.2,35.9c-0.6,0-0.6,0.9,0,0.9C58.8,36.8,58.8,35.9,58.2,35.9z"/>
					<path class="st8" d="M51.9,34.8c-0.4,0-0.4,0.7,0,0.7C52.3,35.4,52.3,34.8,51.9,34.8z"/>
					<path class="st8" d="M49.3,34c-0.4,0-0.4,0.6,0,0.6C49.7,34.6,49.7,34,49.3,34z"/>
					<path class="st8" d="M51.7,29c-0.3,0-0.3,0.5,0,0.5C52,29.5,52,29,51.7,29z"/>
					<path class="st8" d="M56.5,29.7c-0.5,0-0.5,0.7,0,0.7C56.9,30.4,56.9,29.7,56.5,29.7z"/>
					<path class="st8" d="M47.9,29c-0.4,0-0.4,0.7,0,0.7C48.3,29.7,48.3,29,47.9,29z"/>
					<path class="st8" d="M51.2,22.8c-0.5,0-0.5,0.8,0,0.8C51.8,23.6,51.8,22.8,51.2,22.8z"/>
					<path class="st8" d="M56.3,22.8c-0.6,0-0.6,1,0,1C57,23.8,57,22.8,56.3,22.8z"/>
					<path class="st8" d="M58.2,25.2c-0.5,0-0.5,0.8,0,0.8C58.7,26,58.7,25.2,58.2,25.2z"/>
					<path class="st8" d="M52.7,24.6c-0.6,0-0.6,0.9,0,0.9C53.3,25.6,53.3,24.6,52.7,24.6z"/>
					<path class="st8" d="M54.1,20.3c-0.4,0-0.4,0.6,0,0.6C54.5,20.9,54.5,20.3,54.1,20.3z"/>
					<path class="st8" d="M52.2,19.1c-0.5,0-0.5,0.8,0,0.8C52.7,19.9,52.7,19.1,52.2,19.1z"/>
					<path class="st8" d="M53.8,16.2c-0.6,0-0.6,0.9,0,0.9C54.3,17.1,54.3,16.2,53.8,16.2z"/>
					<path class="st8" d="M50.6,13.7c-0.3,0-0.3,0.5,0,0.5C50.9,14.2,50.9,13.7,50.6,13.7z"/>
					<path class="st8" d="M47,13.5c-0.6,0-0.6,1,0,1C47.6,14.4,47.6,13.5,47,13.5z"/>
					<path class="st8" d="M46.8,16.3c-0.5,0-0.5,0.8,0,0.8C47.3,17.1,47.3,16.3,46.8,16.3z"/>
					<path class="st8" d="M49,15.9c-0.6,0-0.6,0.9,0,0.9C49.6,16.8,49.6,15.9,49,15.9z"/>
					<path class="st8" d="M49.8,19c-0.6,0-0.6,1,0,1C50.5,20,50.5,19,49.8,19z"/>
					<path class="st8" d="M43.6,15.6c-0.4,0-0.4,0.6,0,0.6C44,16.2,44,15.6,43.6,15.6z"/>
					<path class="st8" d="M41.7,18.4c-0.6,0-0.6,0.9,0,0.9C42.3,19.3,42.3,18.4,41.7,18.4z"/>
					<path class="st8" d="M45,20.5c-0.6,0-0.6,0.9,0,0.9C45.6,21.4,45.6,20.5,45,20.5z"/>
					<path class="st8" d="M48.1,21.5c-0.5,0-0.5,0.8,0,0.8C48.6,22.3,48.6,21.5,48.1,21.5z"/>
					<path class="st8" d="M57.3,21.5c-0.6,0-0.6,0.9,0,0.9C57.9,22.4,57.9,21.5,57.3,21.5z"/>
					<path class="st8" d="M61.4,28.7c-0.6,0-0.6,1,0,1C62.1,29.7,62.1,28.7,61.4,28.7z"/>
					<path class="st8" d="M64.9,34.7c-0.5,0-0.5,0.8,0,0.8C65.4,35.5,65.4,34.7,64.9,34.7z"/>
					<path class="st8" d="M64.9,38.6c-0.6,0-0.7,1,0,1C65.6,39.6,65.6,38.6,64.9,38.6z"/>
					<path class="st8" d="M62.9,38.7c-0.5,0-0.5,0.8,0,0.8C63.4,39.5,63.4,38.7,62.9,38.7z"/>
					<path class="st8" d="M63.2,30.8c-0.7,0-0.7,1.1,0,1.1C63.9,31.8,63.9,30.8,63.2,30.8z"/>
					<path class="st8" d="M68.9,43.8c-0.5,0-0.5,0.8,0,0.8C69.4,44.6,69.4,43.8,68.9,43.8z"/>
					<path class="st8" d="M62.4,41.1c-0.7,0-0.7,1,0,1C63,42.1,63,41.1,62.4,41.1z"/>
					<path class="st8" d="M68.1,41c-0.6,0-0.6,0.9,0,0.9C68.7,41.9,68.7,41,68.1,41z"/>
					<path class="st8" d="M61.9,36.1c-0.6,0-0.6,1,0,1C62.5,37,62.5,36.1,61.9,36.1z"/>
					<path class="st8" d="M71.8,47.4c-0.7,0-0.7,1.2,0,1.2C72.5,48.6,72.5,47.4,71.8,47.4z"/>
					<path class="st8" d="M68.7,48.4c-0.8,0-0.8,1.3,0,1.3C69.6,49.7,69.6,48.4,68.7,48.4z"/>
					<path class="st8" d="M69.8,45.2c-0.7,0-0.7,1,0,1C70.5,46.3,70.5,45.2,69.8,45.2z"/>
					<path class="st8" d="M65.9,46.5c-0.8,0-0.8,1.3,0,1.3C66.7,47.8,66.7,46.5,65.9,46.5z"/>
					<path class="st8" d="M72.9,51.9c-0.7,0-0.7,1.1,0,1.1C73.6,53,73.6,51.9,72.9,51.9z"/>
					<path class="st8" d="M71.9,54.8c-0.7,0-0.7,1,0,1C72.6,55.8,72.6,54.8,71.9,54.8z"/>
					<path class="st8" d="M75.6,55.8c-0.6,0-0.6,1,0,1C76.2,56.7,76.2,55.8,75.6,55.8z"/>
					<path class="st8" d="M73.5,57.1c-0.5,0-0.5,0.8,0,0.8C74,57.9,74,57.1,73.5,57.1z"/>
					<path class="st8" d="M77.8,61.5c-0.6,0-0.6,1,0,1C78.4,62.5,78.4,61.5,77.8,61.5z"/>
					<path class="st8" d="M80.2,61.5c-0.6,0-0.6,0.9,0,0.9C80.7,62.4,80.7,61.5,80.2,61.5z"/>
					<path class="st8" d="M70.6,58.9c-0.5,0-0.5,0.8,0,0.8C71.1,59.6,71.1,58.9,70.6,58.9z"/>
					<path class="st8" d="M77.8,66.4c-0.7,0-0.7,1,0,1C78.4,67.4,78.5,66.4,77.8,66.4z"/>
					<path class="st8" d="M75.6,69.5c-0.5,0-0.5,0.8,0,0.8C76.1,70.3,76.1,69.5,75.6,69.5z"/>
					<path class="st8" d="M78.1,71.4c-0.6,0-0.6,0.9,0,0.9C78.7,72.3,78.7,71.4,78.1,71.4z"/>
					<path class="st8" d="M77.6,78.1c-0.5,0-0.5,0.8,0,0.8C78.1,78.9,78.1,78.1,77.6,78.1z"/>
					<path class="st8" d="M70.2,72.5c-0.5,0-0.5,0.8,0,0.8C70.7,73.3,70.7,72.5,70.2,72.5z"/>
					<path class="st8" d="M84,75.4c-0.9,0-0.9,1.3,0,1.3C84.9,76.8,84.9,75.4,84,75.4z"/>
					<path class="st8" d="M84,68.8c-0.8,0-0.8,1.2,0,1.2C84.8,70.1,84.8,68.8,84,68.8z"/>
					<path class="st8" d="M85.9,71.9c-0.7,0-0.7,1.1,0,1.1C86.6,73,86.6,71.9,85.9,71.9z"/>
					<path class="st8" d="M88.1,76.6c-0.8,0-0.8,1.2,0,1.2C88.9,77.8,88.9,76.6,88.1,76.6z"/>
					<path class="st8" d="M85.7,77.9c-0.6,0-0.6,0.9,0,0.9C86.3,78.8,86.3,77.9,85.7,77.9z"/>
					<path class="st8" d="M84.9,80.9c-0.6,0-0.6,0.9,0,0.9C85.5,81.8,85.5,80.9,84.9,80.9z"/>
					<path class="st8" d="M88.9,79.2c-0.7,0-0.7,1.1,0,1.1C89.6,80.3,89.6,79.2,88.9,79.2z"/>
					<path class="st8" d="M89.1,84.8c-0.8,0-0.8,1.3,0,1.3C89.9,86.1,89.9,84.8,89.1,84.8z"/>
					<path class="st8" d="M87.3,87.6c-0.6,0-0.6,0.9,0,0.9C87.9,88.5,87.9,87.6,87.3,87.6z"/>
					<path class="st8" d="M86.2,85.2c-0.6,0-0.6,0.9,0,0.9C86.8,86.1,86.8,85.2,86.2,85.2z"/>
					<path class="st8" d="M83.4,83.4c-0.6,0-0.6,0.9,0,0.9C83.9,84.4,84,83.4,83.4,83.4z"/>
					<path class="st8" d="M81.8,86c-0.6,0-0.6,0.9,0,0.9C82.3,86.9,82.3,86,81.8,86z"/>
					<path class="st8" d="M80.7,80.9c-0.6,0-0.6,0.9,0,0.9C81.2,81.8,81.2,80.9,80.7,80.9z"/>
					<path class="st8" d="M79.1,75.4c-0.5,0-0.5,0.8,0,0.8C79.5,76.2,79.6,75.4,79.1,75.4z"/>
					<path class="st8" d="M81.1,70.4c-0.6,0-0.6,0.9,0,0.9C81.7,71.3,81.7,70.4,81.1,70.4z"/>
					<path class="st8" d="M74.5,66.2c-0.6,0-0.6,1,0,1C75.1,67.2,75.1,66.2,74.5,66.2z"/>
					<path class="st8" d="M75.7,62.6c-0.8,0-0.8,1.2,0,1.2C76.5,63.8,76.5,62.6,75.7,62.6z"/>
					<path class="st8" d="M75.2,59.9c-0.6,0-0.6,0.9,0,0.9C75.8,60.8,75.8,59.9,75.2,59.9z"/>
					<path class="st8" d="M73.8,54.8c-0.6,0-0.6,1,0,1C74.5,55.8,74.5,54.8,73.8,54.8z"/>
					<path class="st8" d="M69.8,53.1c-0.6,0-0.6,1,0,1C70.5,54,70.5,53.1,69.8,53.1z"/>
					<path class="st8" d="M72.2,50c-0.7,0-0.7,1.1,0,1.1C73,51.1,73,50,72.2,50z"/>
					<path class="st8" d="M70.2,48.3c-0.8,0-0.8,1.2,0,1.2C71,49.6,71,48.3,70.2,48.3z"/>
					<path class="st8" d="M67.4,44.1c-0.7,0-0.7,1.1,0,1.1C68.1,45.2,68.1,44.1,67.4,44.1z"/>
					<path class="st8" d="M64.6,41c-0.4,0-0.4,0.7,0,0.7C65,41.6,65,41,64.6,41z"/>
					<path class="st8" d="M65.2,36.7c-0.5,0-0.5,0.8,0,0.8C65.7,37.5,65.7,36.7,65.2,36.7z"/>
					<path class="st8" d="M60.3,35.3c-0.5,0-0.5,0.7,0,0.7C60.8,36,60.8,35.3,60.3,35.3z"/>
					<path class="st8" d="M62.8,32.4c-0.6,0-0.6,1,0,1C63.5,33.4,63.5,32.4,62.8,32.4z"/>
					<path class="st8" d="M61.2,30.4c-0.6,0-0.6,1,0,1C61.8,31.4,61.8,30.4,61.2,30.4z"/>
					<path class="st8" d="M58,32.1c-0.4,0-0.4,0.7,0,0.7C58.5,32.8,58.5,32.1,58,32.1z"/>
					<path class="st8" d="M58,28.3c-0.5,0-0.5,0.8,0,0.8C58.5,29.1,58.5,28.3,58,28.3z"/>
					<path class="st8" d="M55.4,27.4c-0.6,0-0.6,0.9,0,0.9C56,28.4,56,27.4,55.4,27.4z"/>
					<path class="st8" d="M56.8,24.2c-0.6,0-0.6,0.9,0,0.9C57.4,25,57.4,24.2,56.8,24.2z"/>
					<path class="st8" d="M54.5,22.9c-0.6,0-0.6,0.9,0,0.9C55.1,23.8,55.1,22.9,54.5,22.9z"/>
					<path class="st8" d="M55.4,20.1c-0.6,0-0.6,0.9,0,0.9C56,21,56,20.1,55.4,20.1z"/>
					<path class="st8" d="M52.9,21.3c-0.4,0-0.4,0.7,0,0.7C53.3,22,53.3,21.3,52.9,21.3z"/>
					<path class="st8" d="M53.5,18.4c-0.5,0-0.5,0.7,0,0.7C53.9,19.1,53.9,18.4,53.5,18.4z"/>
					<path class="st8" d="M51,17.5c-0.5,0-0.5,0.7,0,0.7C51.5,18.2,51.5,17.5,51,17.5z"/>
					<path class="st8" d="M51.6,15.1c-0.5,0-0.5,0.8,0,0.8C52.1,15.9,52.1,15.1,51.6,15.1z"/>
					<path class="st8" d="M49.5,14.6c-0.5,0-0.5,0.8,0,0.8C50,15.4,50,14.6,49.5,14.6z"/>
					<path class="st8" d="M48.3,13.9c-0.5,0-0.5,0.7,0,0.7C48.7,14.6,48.7,13.9,48.3,13.9z"/>
					<path class="st8" d="M84.5,78.9c-0.6,0-0.6,1,0,1C85.1,79.8,85.1,78.9,84.5,78.9z"/>
					<path class="st8" d="M87.2,81.5c-0.8,0-0.8,1.3,0,1.3C88,82.8,88,81.5,87.2,81.5z"/>
					<path class="st8" d="M88.1,83.9c-0.8,0-0.8,1.3,0,1.3C88.9,85.2,88.9,83.9,88.1,83.9z"/>
					<path class="st8" d="M85.4,89.3c-0.7,0-0.7,1.1,0,1.1C86.2,90.5,86.2,89.3,85.4,89.3z"/>
					<path class="st8" d="M82,92.1c-0.6,0-0.6,0.9,0,0.9C82.5,93,82.5,92.1,82,92.1z"/>
					<path class="st8" d="M84.6,93.8c-0.5,0-0.5,0.8,0,0.8C85.2,94.6,85.2,93.8,84.6,93.8z"/>
					<path class="st8" d="M79.6,89.8c-0.5,0-0.5,0.8,0,0.8C80.1,90.6,80.1,89.8,79.6,89.8z"/>
					<path class="st8" d="M75.5,83.5c-0.5,0-0.5,0.8,0,0.8C76,84.3,76,83.5,75.5,83.5z"/>
					<path class="st8" d="M75,75c-0.6,0-0.6,0.9,0,0.9C75.6,75.9,75.6,75,75,75z"/>
					<path class="st8" d="M67.5,82.8c-0.4,0-0.4,0.6,0,0.6C67.9,83.4,67.9,82.8,67.5,82.8z"/>
					<path class="st8" d="M71.3,88c-0.6,0-0.6,0.9,0,0.9C71.9,88.9,71.9,88,71.3,88z"/>
					<path class="st8" d="M67.7,92c-0.4,0-0.4,0.6,0,0.6C68.1,92.6,68.1,92,67.7,92z"/>
					<path class="st8" d="M71.4,96.7c-0.6,0-0.6,0.9,0,0.9C72,97.6,72,96.7,71.4,96.7z"/>
					<path class="st8" d="M75.3,95.5c-0.5,0-0.5,0.8,0,0.8C75.8,96.3,75.8,95.5,75.3,95.5z"/>
					<path class="st8" d="M77.4,87.9c-0.5,0-0.5,0.7,0,0.7C77.9,88.7,77.9,87.9,77.4,87.9z"/>
					<path class="st8" d="M71.8,93.6c-0.3,0-0.3,0.4,0,0.4C72.1,94,72.1,93.6,71.8,93.6z"/>
					<path class="st8" d="M74.2,104.4c-0.3,0-0.3,0.5,0,0.5C74.5,104.9,74.5,104.4,74.2,104.4z"/>
					<path class="st8" d="M67.4,102.3c-0.4,0-0.4,0.7,0,0.7C67.8,103,67.8,102.3,67.4,102.3z"/>
					<path class="st8" d="M61.4,82.1c-0.5,0-0.5,0.7,0,0.7C61.9,82.8,61.9,82.1,61.4,82.1z"/>
					<path class="st8" d="M65.5,69.8c-0.4,0-0.4,0.6,0,0.6C65.9,70.4,65.9,69.8,65.5,69.8z"/>
					<path class="st8" d="M58,72.3c-0.4,0-0.4,0.6,0,0.6C58.4,72.8,58.4,72.3,58,72.3z"/>
					<path class="st8" d="M64.2,60.8c-0.5,0-0.5,0.7,0,0.7C64.6,61.5,64.7,60.8,64.2,60.8z"/>
					<path class="st8" d="M67.7,57.6c-0.6,0-0.6,0.9,0,0.9C68.3,58.6,68.3,57.6,67.7,57.6z"/>
					<path class="st8" d="M60.4,55.7c-0.6,0-0.6,0.9,0,0.9C61,56.5,61,55.7,60.4,55.7z"/>
					<path class="st8" d="M54.8,58.8c-0.7,0-0.7,1.1,0,1.1C55.5,59.8,55.5,58.8,54.8,58.8z"/>
					<path class="st8" d="M50.8,61.2c-0.3,0-0.3,0.5,0,0.5C51.1,61.7,51.1,61.2,50.8,61.2z"/>
					<path class="st8" d="M57.9,50.2c-0.6,0-0.6,0.9,0,0.9C58.5,51.1,58.5,50.2,57.9,50.2z"/>
					<path class="st8" d="M55.6,43.1c-0.6,0-0.6,1,0,1C56.2,44,56.3,43.1,55.6,43.1z"/>
					<path class="st8" d="M51.1,41c-0.5,0-0.5,0.7,0,0.7C51.5,41.7,51.5,41,51.1,41z"/>
					<path class="st8" d="M55.4,35.6c-0.6,0-0.6,1,0,1C56,36.5,56,35.6,55.4,35.6z"/>
					<path class="st8" d="M54.3,31c-0.5,0-0.5,0.8,0,0.8C54.8,31.8,54.8,31,54.3,31z"/>
					<path class="st8" d="M50,30.2c-0.5,0-0.5,0.7,0,0.7C50.5,30.9,50.5,30.2,50,30.2z"/>
					<path class="st8" d="M49.2,25.2c-0.5,0-0.5,0.8,0,0.8C49.7,26,49.7,25.2,49.2,25.2z"/>
					<path class="st8" d="M43.7,23.7c-0.4,0-0.4,0.6,0,0.6C44.1,24.3,44.1,23.7,43.7,23.7z"/>
					<path class="st8" d="M44.5,30.4c-0.6,0-0.6,0.9,0,0.9C45.1,31.3,45.1,30.4,44.5,30.4z"/>
					<path class="st8" d="M40.5,35.2c-0.5,0-0.5,0.8,0,0.8C41,36.1,41,35.2,40.5,35.2z"/>
					<path class="st8" d="M43.2,41.5c-0.6,0-0.6,0.9,0,0.9C43.7,42.4,43.7,41.5,43.2,41.5z"/>
					<path class="st8" d="M38.9,44.6c-0.2,0-0.2,0.3,0,0.3C39.1,44.9,39.1,44.6,38.9,44.6z"/>
					<path class="st8" d="M36.8,29.2c-0.3,0-0.3,0.5,0,0.5C37.1,29.8,37.1,29.2,36.8,29.2z"/>
					<path class="st8" d="M33.4,33.9c-0.2,0-0.2,0.4,0,0.4C33.7,34.2,33.7,33.9,33.4,33.9z"/>
					<path class="st8" d="M36.8,38.9c-0.4,0-0.4,0.6,0,0.6C37.2,39.6,37.2,38.9,36.8,38.9z"/>
					<path class="st8" d="M43.6,26.9c-0.5,0-0.5,0.7,0,0.7C44.1,27.6,44.1,26.9,43.6,26.9z"/>
					<path class="st8" d="M40.7,20.8c-0.4,0-0.4,0.6,0,0.6C41,21.4,41,20.8,40.7,20.8z"/>
					<path class="st8" d="M45.7,17.2c-0.5,0-0.5,0.8,0,0.8C46.3,18,46.3,17.2,45.7,17.2z"/>
					<path class="st8" d="M39.7,15.1c-0.5,0-0.5,0.7,0,0.7C40.2,15.8,40.2,15.1,39.7,15.1z"/>
					<path class="st8" d="M31.3,22.4c-0.1,0-0.1,0.2,0,0.2C31.4,22.7,31.4,22.4,31.3,22.4z"/>
					<path class="st8" d="M47.7,52.2c-0.5,0-0.5,0.8,0,0.8C48.2,53,48.2,52.2,47.7,52.2z"/>
					<path class="st8" d="M46.4,60.3c-0.4,0-0.4,0.7,0,0.7C46.8,61,46.8,60.3,46.4,60.3z"/>
					<path class="st8" d="M51.3,70.6c-0.5,0-0.5,0.8,0,0.8C51.8,71.3,51.8,70.6,51.3,70.6z"/>
					<path class="st8" d="M65.1,63.3c-0.6,0-0.6,0.9,0,0.9C65.7,64.3,65.7,63.3,65.1,63.3z"/>
					<path class="st8" d="M52.6,37.8c-0.7,0-0.7,1,0,1C53.3,38.9,53.3,37.8,52.6,37.8z"/>
					<path class="st8" d="M45,49.6c-0.5,0-0.5,0.8,0,0.8C45.5,50.4,45.5,49.6,45,49.6z"/>
					<path class="st8" d="M28.1,28.9c-0.7,0-0.7,1,0,1C28.7,29.9,28.7,28.9,28.1,28.9z"/>
					<path class="st8" d="M28.5,16.8c-0.7,0-0.7,1.1,0,1.1C29.2,17.9,29.2,16.8,28.5,16.8z"/>
					<path class="st8" d="M59.4,69.6c-0.6,0-0.6,0.9,0,0.9C60,70.5,60,69.6,59.4,69.6z"/>
					<path class="st8" d="M58.5,23.7c-0.7,0-0.7,1.2,0,1.2C59.3,24.9,59.3,23.7,58.5,23.7z"/>
					<path class="st8" d="M57.3,26.7c-0.7,0-0.7,1.1,0,1.1C58,27.8,58,26.7,57.3,26.7z"/>
					<path class="st8" d="M55.4,24.7c-0.7,0-0.7,1.1,0,1.1C56.1,25.8,56.1,24.7,55.4,24.7z"/>
					<path class="st8" d="M59.5,29.2c-0.7,0-0.7,1.1,0,1.1C60.2,30.3,60.2,29.2,59.5,29.2z"/>
					<path class="st8" d="M58,30.5c-0.6,0-0.7,1,0,1C58.6,31.5,58.6,30.5,58,30.5z"/>
					<path class="st8" d="M60.4,33c-0.6,0-0.6,0.9,0,0.9C61,33.9,61,33,60.4,33z"/>
					<path class="st8" d="M63.7,36.9c-0.6,0-0.6,0.9,0,0.9C64.3,37.8,64.3,36.9,63.7,36.9z"/>
					<path class="st8" d="M59.2,37.5c-0.7,0-0.7,1.1,0,1.1C59.9,38.6,59.9,37.5,59.2,37.5z"/>
					<path class="st8" d="M57.9,33.9c-0.6,0-0.6,1,0,1C58.5,34.9,58.5,33.9,57.9,33.9z"/>
					<path class="st8" d="M54.3,28.6c-0.8,0-0.8,1.2,0,1.2C55.1,29.8,55.1,28.6,54.3,28.6z"/>
					<path class="st8" d="M55.4,33.5c-0.5,0-0.5,0.7,0,0.7C55.9,34.2,55.9,33.5,55.4,33.5z"/>
					<path class="st8" d="M56.6,38.6c-0.4,0-0.4,0.6,0,0.6C57,39.2,57,38.6,56.6,38.6z"/>
					<path class="st8" d="M59.5,40.1c-0.6,0-0.6,0.9,0,0.9C60.1,41,60.1,40.1,59.5,40.1z"/>
					<path class="st8" d="M63.7,43.2c-0.6,0-0.6,1,0,1C64.3,44.1,64.3,43.2,63.7,43.2z"/>
					<path class="st8" d="M60.2,43.9c-0.4,0-0.4,0.7,0,0.7C60.6,44.6,60.6,43.9,60.2,43.9z"/>
					<path class="st8" d="M66.7,51c-0.6,0-0.6,0.9,0,0.9C67.3,51.9,67.3,51,66.7,51z"/>
					<path class="st8" d="M61.9,47.5c-0.6,0-0.7,1,0,1C62.6,48.5,62.6,47.5,61.9,47.5z"/>
					<path class="st8" d="M69.2,50.8c-0.6,0-0.6,0.9,0,0.9C69.8,51.8,69.8,50.8,69.2,50.8z"/>
					<path class="st8" d="M54.5,20.3c-0.5,0-0.5,0.8,0,0.8C55.1,21.1,55.1,20.3,54.5,20.3z"/>
					<path class="st8" d="M54,23.3c-0.5,0-0.5,0.7,0,0.7C54.4,24.1,54.4,23.3,54,23.3z"/>
					<path class="st8" d="M54,21.4c-0.3,0-0.3,0.4,0,0.4C54.2,21.9,54.2,21.4,54,21.4z"/>
					<path class="st8" d="M54.9,21.8c-0.6,0-0.6,0.9,0,0.9C55.5,22.6,55.5,21.8,54.9,21.8z"/>
					<path class="st8" d="M51.5,20.3c-0.6,0-0.6,0.9,0,0.9C52.1,21.2,52.1,20.3,51.5,20.3z"/>
					<path class="st8" d="M52.8,18.6c-0.6,0-0.6,0.9,0,0.9C53.4,19.5,53.4,18.6,52.8,18.6z"/>
					<path class="st8" d="M52.7,17.4c-0.6,0-0.6,1,0,1C53.3,18.4,53.3,17.4,52.7,17.4z"/>
					<path class="st8" d="M54.7,20.2c-0.1,0-0.1,0-0.2,0c-0.7-0.1-0.7,1.1,0,1.1c0.1,0,0.1,0,0.2,0C55.4,21.2,55.4,20.3,54.7,20.2z"
						/>
					<path class="st8" d="M52.8,21.9c-0.7,0-0.7,1.1,0,1.1C53.5,22.9,53.5,21.9,52.8,21.9z"/>
					<path class="st8" d="M54.9,23.5c-0.7,0-0.7,1.1,0,1.1C55.6,24.6,55.6,23.5,54.9,23.5z"/>
					<path class="st8" d="M56.4,25c-0.7,0-0.7,1.1,0,1.1C57.1,26.1,57.1,25,56.4,25z"/>
					<path class="st8" d="M57.5,28.2c-0.7,0-0.7,1.1,0,1.1C58.2,29.3,58.2,28.2,57.5,28.2z"/>
					<path class="st8" d="M58.3,29.4c-0.6,0-0.6,0.9,0,0.9C58.8,30.3,58.8,29.4,58.3,29.4z"/>
					<path class="st8" d="M60.3,31.4c-0.6,0-0.6,1,0,1C61,32.4,61,31.4,60.3,31.4z"/>
					<path class="st8" d="M60,33.4c-0.7,0-0.7,1.1,0,1.1C60.7,34.6,60.7,33.4,60,33.4z"/>
					<path class="st8" d="M62.4,36.9c-0.8,0-0.8,1.2,0,1.2C63.2,38.2,63.2,36.9,62.4,36.9z"/>
					<path class="st8" d="M63.7,38.6c-0.8,0-0.8,1.3,0,1.3C64.5,39.9,64.5,38.6,63.7,38.6z"/>
					<path class="st8" d="M65.4,42.2c-0.8,0-0.8,1.2,0,1.2C66.2,43.4,66.2,42.2,65.4,42.2z"/>
					<path class="st8" d="M66.9,45.4c-0.5,0-0.5,0.8,0,0.8C67.4,46.2,67.4,45.4,66.9,45.4z"/>
					<path class="st8" d="M64.6,41.5c-0.7,0-0.7,1.1,0,1.1C65.4,42.6,65.4,41.5,64.6,41.5z"/>
					<path class="st8" d="M65.2,40.1c-0.6,0-0.6,0.9,0,0.9C65.8,41,65.8,40.1,65.2,40.1z"/>
					<path class="st8" d="M66.9,41.9c-0.7,0-0.7,1.1,0,1.1C67.6,43,67.6,41.9,66.9,41.9z"/>
					<path class="st8" d="M66.9,45.9c-0.8,0-0.8,1.3,0,1.3C67.7,47.2,67.7,45.9,66.9,45.9z"/>
					<path class="st8" d="M64.4,45c-0.8,0-0.8,1.2,0,1.2C65.2,46.2,65.2,45,64.4,45z"/>
					<path class="st8" d="M63.3,41.1c-0.7,0-0.7,1.1,0,1.1C64,42.2,64,41.1,63.3,41.1z"/>
					<path class="st8" d="M68.2,47.3c-0.7,0-0.7,1,0,1C68.9,48.4,68.9,47.3,68.2,47.3z"/>
					<path class="st8" d="M69.7,50c-0.6,0-0.6,1,0,1C70.3,50.9,70.3,50,69.7,50z"/>
					<path class="st8" d="M69.1,51c-0.5,0-0.5,0.8,0,0.8C69.6,51.8,69.6,51,69.1,51z"/>
					<path class="st8" d="M68.6,53.4c-0.8,0-0.8,1.2,0,1.2C69.3,54.6,69.3,53.4,68.6,53.4z"/>
					<path class="st8" d="M64.1,44c-0.7,0-0.7,1,0,1C64.7,45,64.7,44,64.1,44z"/>
					<path class="st8" d="M67.4,46.3c-0.5,0-0.5,0.7,0,0.7C67.9,47.1,67.9,46.3,67.4,46.3z"/>
					<path class="st8" d="M66.3,51c-0.8,0-0.8,1.2,0,1.2C67.1,52.2,67.1,51,66.3,51z"/>
					<path class="st8" d="M69.7,52C69,52,69,53,69.7,53C70.4,53,70.4,52,69.7,52z"/>
					<path class="st8" d="M71.2,53.3c-0.7,0-0.7,1,0,1C71.8,54.3,71.8,53.3,71.2,53.3z"/>
					<path class="st8" d="M73.2,55.6c-0.6,0-0.6,1,0,1C73.9,56.6,73.9,55.6,73.2,55.6z"/>
					<path class="st8" d="M72.9,57.9c-0.8,0-0.8,1.3,0,1.3C73.7,59.1,73.7,57.9,72.9,57.9z"/>
					<path class="st8" d="M72,57.6c-0.1-0.8-1.1-0.8-1.2,0c0,0.1,0,0.1,0,0.2c0,0.3,0.3,0.6,0.6,0.6c0.3,0,0.7-0.3,0.6-0.6
						C72,57.7,72,57.6,72,57.6z"/>
					<path class="st8" d="M73,53.7c-0.9,0-0.9,1.3,0,1.3C73.9,55.1,73.9,53.7,73,53.7z"/>
					<path class="st8" d="M73.8,56c-0.9,0-0.9,1.3,0,1.3C74.7,57.3,74.7,56,73.8,56z"/>
					<path class="st8" d="M75.5,61c-0.9,0-0.9,1.4,0,1.4C76.4,62.4,76.4,61,75.5,61z"/>
					<path class="st8" d="M74.5,63.9c-0.8,0-0.8,1.2,0,1.2C75.3,65.1,75.3,63.9,74.5,63.9z"/>
					<path class="st8" d="M72.3,61.4c-0.6,0-0.6,0.9,0,0.9C72.8,62.3,72.8,61.4,72.3,61.4z"/>
					<path class="st8" d="M71.9,60c-0.7,0-0.7,1.1,0,1.1C72.7,61.1,72.7,60,71.9,60z"/>
					<path class="st8" d="M73.6,59.5c-0.6,0-0.6,0.9,0,0.9C74.2,60.5,74.2,59.5,73.6,59.5z"/>
					<path class="st8" d="M77,60.9c-0.6,0-0.6,0.9,0,0.9C77.6,61.8,77.6,60.9,77,60.9z"/>
					<path class="st8" d="M77.7,64.5c-0.7,0-0.7,1.1,0,1.1C78.4,65.6,78.4,64.5,77.7,64.5z"/>
					<path class="st8" d="M69.9,63.2c-0.6,0-0.6,1,0,1C70.5,64.2,70.5,63.2,69.9,63.2z"/>
					<path class="st8" d="M69.3,60c-0.7,0-0.7,1.1,0,1.1C70,61.1,70,60,69.3,60z"/>
					<path class="st8" d="M67.8,56.4c-0.3,0-0.3,0.5,0,0.5C68.2,56.9,68.2,56.4,67.8,56.4z"/>
					<path class="st8" d="M77.7,63.7c-0.6,0-0.6,0.9,0,0.9C78.3,64.6,78.3,63.7,77.7,63.7z"/>
					<path class="st8" d="M77,66.6c-0.7,0-0.7,1,0,1C77.6,67.6,77.6,66.6,77,66.6z"/>
					<path class="st8" d="M77.2,68.3c-0.6,0-0.6,0.9,0,0.9C77.7,69.2,77.7,68.3,77.2,68.3z"/>
					<path class="st8" d="M79.8,68.2c-0.5,0-0.5,0.7,0,0.7C80.3,69,80.3,68.2,79.8,68.2z"/>
					<path class="st8" d="M80,70.4c-0.6,0-0.6,0.9,0,0.9C80.6,71.3,80.6,70.4,80,70.4z"/>
					<path class="st8" d="M80.7,71.1c-0.6,0-0.6,1,0,1C81.4,72.1,81.4,71.1,80.7,71.1z"/>
					<path class="st8" d="M83.7,72.5c-0.6,0-0.6,0.9,0,0.9C84.3,73.3,84.3,72.5,83.7,72.5z"/>
					<path class="st8" d="M83.7,73.8c-0.6,0-0.6,0.9,0,0.9C84.3,74.7,84.3,73.8,83.7,73.8z"/>
					<path class="st8" d="M83.3,74.6c-0.7,0-0.7,1,0,1C84,75.7,84,74.6,83.3,74.6z"/>
					<path class="st8" d="M82.4,72.1c-0.7,0-0.7,1.2,0,1.2C83.1,73.3,83.2,72.1,82.4,72.1z"/>
					<path class="st8" d="M81.7,77.1c-0.6,0-0.6,0.9,0,0.9C82.3,78.1,82.3,77.1,81.7,77.1z"/>
					<path class="st8" d="M85.8,76.7c-0.7,0-0.7,1.1,0,1.1C86.5,77.7,86.5,76.7,85.8,76.7z"/>
					<path class="st8" d="M81.8,74.6c-0.6,0-0.7,1,0,1C82.5,75.7,82.5,74.6,81.8,74.6z"/>
					<path class="st8" d="M84.6,78.3c-0.6,0-0.6,0.9,0,0.9C85.2,79.2,85.2,78.3,84.6,78.3z"/>
					<path class="st8" d="M86.5,80.7c-0.6,0-0.6,1,0,1C87.1,81.6,87.1,80.7,86.5,80.7z"/>
					<path class="st8" d="M83.5,80.7c-0.5,0-0.5,0.8,0,0.8C84.1,81.6,84.1,80.7,83.5,80.7z"/>
					<path class="st8" d="M84.6,83.4c-0.7,0-0.7,1.1,0,1.1C85.3,84.5,85.3,83.4,84.6,83.4z"/>
					<path class="st8" d="M86.9,84.6c-0.6,0-0.6,0.9,0,0.9C87.5,85.5,87.5,84.6,86.9,84.6z"/>
					<path class="st8" d="M81.1,79.5c-0.7,0-0.7,1.1,0,1.1C81.8,80.5,81.8,79.5,81.1,79.5z"/>
					<path class="st8" d="M80.5,73.8c-0.6,0-0.6,0.9,0,0.9C81.1,74.7,81.1,73.8,80.5,73.8z"/>
					<path class="st8" d="M79.8,70.5c-0.4,0-0.4,0.6,0,0.6C80.2,71.2,80.2,70.5,79.8,70.5z"/>
					<path class="st8" d="M78.5,68.4c-0.3,0-0.3,0.5,0,0.5C78.8,68.9,78.8,68.4,78.5,68.4z"/>
					<path class="st8" d="M79.2,68.4c-0.2,0-0.2,0.3,0,0.3C79.4,68.8,79.4,68.4,79.2,68.4z"/>
					<path class="st8" d="M78.5,69.5c-0.6,0-0.6,0.9,0,0.9C79,70.3,79,69.5,78.5,69.5z"/>
					<path class="st8" d="M81.5,68.5c-0.7,0-0.7,1,0,1C82.1,69.5,82.1,68.5,81.5,68.5z"/>
					<path class="st8" d="M79,66.4c-0.6,0-0.6,1,0,1C79.6,67.4,79.6,66.4,79,66.4z"/>
					<path class="st8" d="M73.6,67.9c-0.7,0-0.7,1.1,0,1.1C74.3,69,74.3,67.9,73.6,67.9z"/>
					<path class="st8" d="M73.4,72.7c-0.6,0-0.6,0.9,0,0.9C74,73.5,74,72.7,73.4,72.7z"/>
					<path class="st8" d="M76.8,74.5c-0.4,0-0.4,0.6,0,0.6C77.2,75.1,77.2,74.5,76.8,74.5z"/>
					<path class="st8" d="M78.5,76.6c-0.5,0-0.5,0.8,0,0.8C79,77.4,79,76.6,78.5,76.6z"/>
					<path class="st8" d="M67.6,56.2c-0.5,0-0.5,0.8,0,0.8C68.2,57.1,68.2,56.2,67.6,56.2z"/>
					<path class="st8" d="M62.9,51.6c-0.5,0-0.5,0.7,0,0.7C63.4,52.3,63.4,51.6,62.9,51.6z"/>
					<path class="st8" d="M62.6,46.1c-0.6,0-0.6,0.9,0,0.9C63.2,47,63.2,46.1,62.6,46.1z"/>
					<path class="st8" d="M53,26.6c-0.6,0-0.6,0.9,0,0.9C53.6,27.5,53.6,26.6,53,26.6z"/>
					<path class="st8" d="M49.7,26.5c-0.3,0-0.3,0.4,0,0.4C49.9,26.9,49.9,26.5,49.7,26.5z"/>
					<path class="st8" d="M49.7,20.7c-0.5,0-0.5,0.8,0,0.8C50.2,21.5,50.2,20.7,49.7,20.7z"/>
					<path class="st8" d="M47.2,18.2c-0.6,0-0.6,1,0,1C47.9,19.1,47.9,18.2,47.2,18.2z"/>
					<path class="st8" d="M43.1,13.5c-0.6,0-0.7,1,0,1C43.8,14.5,43.8,13.5,43.1,13.5z"/>
					<path class="st8" d="M77,66.9c-0.5,0-0.5,0.8,0,0.8C77.5,67.7,77.5,66.9,77,66.9z"/>
					<path class="st8" d="M81.8,71.6c-0.7,0-0.7,1,0,1C82.5,72.7,82.5,71.6,81.8,71.6z"/>
					<path class="st8" d="M83,77c-0.3,0-0.3,0.4,0,0.4C83.2,77.4,83.2,77,83,77z"/>
					<path class="st8" d="M84.1,77.2c-0.8,0-0.8,1.2,0,1.2C84.9,78.4,84.9,77.2,84.1,77.2z"/>
					<path class="st8" d="M85,74.6c-0.6,0-0.7,1,0,1C85.7,75.7,85.7,74.6,85,74.6z"/>
					<path class="st8" d="M88.4,81.4c-0.6,0-0.6,1,0,1C89,82.4,89,81.4,88.4,81.4z"/>
					<path class="st8" d="M88.9,84.1c-0.7,0-0.7,1.1,0,1.1C89.7,85.3,89.7,84.1,88.9,84.1z"/>
					<path class="st8" d="M87.3,88.1c-0.7,0-0.7,1.1,0,1.1C88,89.2,88,88.1,87.3,88.1z"/>
				</g>
				<g>
					<path class="st8" d="M48.3,88.2c0.7,0,0.7,1,0,1C47.6,89.2,47.6,88.2,48.3,88.2z"/>
					<path class="st8" d="M47.8,95.6c0.5,0,0.5,0.8,0,0.8C47.3,96.4,47.3,95.6,47.8,95.6z"/>
					<path class="st8" d="M44.4,96.2c0.8,0,0.8,1.2,0,1.2C43.7,97.4,43.6,96.2,44.4,96.2z"/>
					<path class="st8" d="M44,100.4c0.7,0,0.7,1.1,0,1.1C43.3,101.5,43.3,100.4,44,100.4z"/>
					<path class="st8" d="M42.5,102.9c0.7,0,0.7,1.1,0,1.1C41.8,104.1,41.8,102.9,42.5,102.9z"/>
					<path class="st8" d="M40.5,104.1c0.8,0,0.8,1.2,0,1.2C39.7,105.4,39.7,104.1,40.5,104.1z"/>
					<path class="st8" d="M37.8,112.8c0.7,0,0.7,1,0,1C37.1,113.9,37.1,112.8,37.8,112.8z"/>
					<path class="st8" d="M40.8,114.2c0.8,0,0.8,1.2,0,1.2C40,115.4,40,114.2,40.8,114.2z"/>
					<path class="st8" d="M35.4,115.2c0.7,0,0.7,1.1,0,1.1C34.7,116.3,34.7,115.2,35.4,115.2z"/>
					<path class="st8" d="M32.7,120.5c0.6,0,0.6,0.9,0,0.9C32.1,121.4,32.1,120.5,32.7,120.5z"/>
					<path class="st8" d="M37.5,108.9c0.6,0,0.6,0.9,0,0.9C36.9,109.8,36.9,108.9,37.5,108.9z"/>
					<path class="st8" d="M42.7,108.2c0.7,0,0.7,1,0,1C42,109.3,42,108.2,42.7,108.2z"/>
					<path class="st8" d="M28.9,123.2c0.6,0,0.6,0.9,0,0.9C28.3,124.1,28.3,123.2,28.9,123.2z"/>
					<path class="st8" d="M28.2,128c0.6,0,0.6,0.9,0,0.9C27.7,128.9,27.7,128,28.2,128z"/>
					<path class="st8" d="M25.8,128.6c0.6,0,0.6,0.9,0,0.9C25.3,129.5,25.3,128.6,25.8,128.6z"/>
					<path class="st8" d="M24.4,132.9c0.6,0,0.6,0.9,0,0.9C23.8,133.8,23.8,132.9,24.4,132.9z"/>
					<path class="st8" d="M27,135.7c0.5,0,0.5,0.8,0,0.8C26.4,136.5,26.4,135.7,27,135.7z"/>
					<path class="st8" d="M29.8,130.6c0.5,0,0.5,0.8,0,0.8C29.3,131.4,29.3,130.6,29.8,130.6z"/>
					<path class="st8" d="M33.8,125.1c0.6,0,0.6,1,0,1C33.2,126.1,33.2,125.1,33.8,125.1z"/>
					<path class="st8" d="M36.2,122c0.5,0,0.5,0.8,0,0.8C35.7,122.8,35.7,122,36.2,122z"/>
					<path class="st8" d="M22.7,133c0.6,0,0.6,1,0,1C22,134,22,133,22.7,133z"/>
					<path class="st8" d="M23,138.7c0.5,0,0.5,0.7,0,0.7C22.5,139.4,22.5,138.7,23,138.7z"/>
					<path class="st8" d="M23.6,141.7c0.5,0,0.5,0.8,0,0.8C23.1,142.5,23.1,141.7,23.6,141.7z"/>
					<path class="st8" d="M19.8,141.7c0.6,0,0.6,0.9,0,0.9C19.2,142.6,19.2,141.7,19.8,141.7z"/>
					<path class="st8" d="M17.7,143.4c0.7,0,0.7,1.1,0,1.1C17,144.6,17,143.4,17.7,143.4z"/>
					<path class="st8" d="M16.8,148.8c0.6,0,0.6,0.9,0,0.9C16.2,149.7,16.2,148.8,16.8,148.8z"/>
					<path class="st8" d="M15.2,151.2c0.6,0,0.6,1,0,1C14.6,152.1,14.6,151.2,15.2,151.2z"/>
					<path class="st8" d="M17.9,152.4c0.5,0,0.5,0.8,0,0.8C17.4,153.2,17.4,152.4,17.9,152.4z"/>
					<path class="st8" d="M21.2,147.5c0.6,0,0.6,0.9,0,0.9C20.6,148.5,20.6,147.5,21.2,147.5z"/>
					<path class="st8" d="M23,143c0.5,0,0.5,0.8,0,0.8C22.5,143.8,22.5,143,23,143z"/>
					<path class="st8" d="M20.9,136.6c0.6,0,0.6,0.9,0,0.9C20.3,137.5,20.3,136.6,20.9,136.6z"/>
					<path class="st8" d="M23.3,135.6c0.6,0,0.7,1,0,1C22.7,136.6,22.7,135.6,23.3,135.6z"/>
					<path class="st8" d="M29.7,131.7c0.7,0,0.7,1.1,0,1.1C29,132.8,29,131.7,29.7,131.7z"/>
					<path class="st8" d="M33.2,135.4c0.7,0,0.7,1.1,0,1.1C32.5,136.4,32.5,135.4,33.2,135.4z"/>
					<path class="st8" d="M36.5,131.8c0.4,0,0.4,0.6,0,0.6C36.1,132.4,36.1,131.8,36.5,131.8z"/>
					<path class="st8" d="M40.2,126.7c0.4,0,0.4,0.6,0,0.6C39.8,127.3,39.8,126.7,40.2,126.7z"/>
					<path class="st8" d="M37.8,125.1c0.5,0,0.5,0.7,0,0.7C37.3,125.8,37.3,125.1,37.8,125.1z"/>
					<path class="st8" d="M41.9,121.1c0.6,0,0.6,0.9,0,0.9C41.3,122.1,41.3,121.1,41.9,121.1z"/>
					<path class="st8" d="M38.2,118.5c0.5,0,0.5,0.8,0,0.8C37.7,119.3,37.7,118.5,38.2,118.5z"/>
					<path class="st8" d="M43.7,115.6c0.4,0,0.4,0.6,0,0.6C43.2,116.2,43.2,115.6,43.7,115.6z"/>
					<path class="st8" d="M48.1,116.1c0.4,0,0.4,0.6,0,0.6C47.7,116.7,47.7,116.1,48.1,116.1z"/>
					<path class="st8" d="M47.6,110.1c0.3,0,0.3,0.4,0,0.4C47.4,110.5,47.4,110.1,47.6,110.1z"/>
					<path class="st8" d="M43.5,111.1c0.5,0,0.5,0.7,0,0.7C43,111.8,43,111.1,43.5,111.1z"/>
					<path class="st8" d="M45.6,105.6c0.6,0,0.6,0.9,0,0.9C45,106.5,45,105.6,45.6,105.6z"/>
					<path class="st8" d="M51.9,104.4c0.4,0,0.4,0.7,0,0.7C51.5,105.1,51.5,104.4,51.9,104.4z"/>
					<path class="st8" d="M54.5,103.7c0.4,0,0.4,0.6,0,0.6C54.1,104.3,54.1,103.7,54.5,103.7z"/>
					<path class="st8" d="M52.1,98.7c0.3,0,0.3,0.5,0,0.5C51.8,99.1,51.8,98.7,52.1,98.7z"/>
					<path class="st8" d="M47.3,99.3c0.5,0,0.5,0.7,0,0.7C46.9,100,46.9,99.3,47.3,99.3z"/>
					<path class="st8" d="M55.9,98.7c0.4,0,0.4,0.7,0,0.7C55.5,99.4,55.5,98.7,55.9,98.7z"/>
					<path class="st8" d="M52.6,92.4c0.5,0,0.5,0.8,0,0.8C52,93.3,52,92.4,52.6,92.4z"/>
					<path class="st8" d="M47.5,92.5c0.6,0,0.6,1,0,1C46.8,93.5,46.8,92.5,47.5,92.5z"/>
					<path class="st8" d="M45.6,94.8c0.5,0,0.5,0.8,0,0.8C45.1,95.6,45.1,94.8,45.6,94.8z"/>
					<path class="st8" d="M51.1,94.3c0.6,0,0.6,0.9,0,0.9C50.5,95.2,50.5,94.3,51.1,94.3z"/>
					<path class="st8" d="M49.7,90c0.4,0,0.4,0.6,0,0.6C49.3,90.6,49.3,90,49.7,90z"/>
					<path class="st8" d="M46.5,91.1c0.6,0,0.6,0.9,0,0.9C45.9,92,45.9,91.1,46.5,91.1z"/>
					<path class="st8" d="M42.4,98.4c0.6,0,0.6,1,0,1C41.7,99.4,41.7,98.4,42.4,98.4z"/>
					<path class="st8" d="M38.9,104.4c0.5,0,0.5,0.8,0,0.8C38.4,105.1,38.4,104.4,38.9,104.4z"/>
					<path class="st8" d="M38.9,108.2c0.6,0,0.7,1,0,1C38.2,109.2,38.2,108.2,38.9,108.2z"/>
					<path class="st8" d="M40.9,108.3c0.5,0,0.5,0.8,0,0.8C40.4,109.1,40.4,108.3,40.9,108.3z"/>
					<path class="st8" d="M40.6,100.4c0.7,0,0.7,1.1,0,1.1C39.9,101.5,39.9,100.4,40.6,100.4z"/>
					<path class="st8" d="M34.9,113.4c0.5,0,0.5,0.8,0,0.8C34.4,114.2,34.4,113.4,34.9,113.4z"/>
					<path class="st8" d="M41.4,110.8c0.7,0,0.7,1,0,1C40.8,111.8,40.8,110.8,41.4,110.8z"/>
					<path class="st8" d="M35.7,110.7c0.6,0,0.6,0.9,0,0.9C35.1,111.6,35.1,110.7,35.7,110.7z"/>
					<path class="st8" d="M41.9,105.7c0.6,0,0.6,1,0,1C41.3,106.7,41.3,105.7,41.9,105.7z"/>
					<path class="st8" d="M32,117.1c0.7,0,0.7,1.2,0,1.2C31.3,118.2,31.3,117.1,32,117.1z"/>
					<path class="st8" d="M35.1,118.1c0.8,0,0.8,1.3,0,1.3C34.2,119.4,34.2,118.1,35.1,118.1z"/>
					<path class="st8" d="M34,114.9c0.7,0,0.7,1,0,1C33.3,115.9,33.3,114.9,34,114.9z"/>
					<path class="st8" d="M37.9,116.2c0.8,0,0.8,1.3,0,1.3C37.1,117.5,37.1,116.2,37.9,116.2z"/>
					<path class="st8" d="M30.9,121.5c0.7,0,0.7,1.1,0,1.1C30.2,122.6,30.2,121.5,30.9,121.5z"/>
					<path class="st8" d="M31.9,124.4c0.7,0,0.7,1,0,1C31.2,125.5,31.2,124.4,31.9,124.4z"/>
					<path class="st8" d="M28.2,125.4c0.6,0,0.6,1,0,1C27.6,126.4,27.6,125.4,28.2,125.4z"/>
					<path class="st8" d="M30.3,126.8c0.5,0,0.5,0.8,0,0.8C29.8,127.6,29.8,126.8,30.3,126.8z"/>
					<path class="st8" d="M26,131.1c0.6,0,0.6,1,0,1C25.4,132.1,25.4,131.1,26,131.1z"/>
					<path class="st8" d="M23.6,131.2c0.6,0,0.6,0.9,0,0.9C23.1,132.1,23.1,131.2,23.6,131.2z"/>
					<path class="st8" d="M33.2,128.5c0.5,0,0.5,0.8,0,0.8C32.7,129.3,32.7,128.5,33.2,128.5z"/>
					<path class="st8" d="M26,136c0.7,0,0.7,1,0,1C25.3,137.1,25.3,136,26,136z"/>
					<path class="st8" d="M28.2,139.2c0.5,0,0.5,0.8,0,0.8C27.7,140,27.7,139.2,28.2,139.2z"/>
					<path class="st8" d="M25.7,141c0.6,0,0.6,0.9,0,0.9C25.1,141.9,25.1,141,25.7,141z"/>
					<path class="st8" d="M26.2,147.8c0.5,0,0.5,0.8,0,0.8C25.7,148.5,25.7,147.8,26.2,147.8z"/>
					<path class="st8" d="M33.6,142.2c0.5,0,0.5,0.8,0,0.8C33.1,143,33.1,142.2,33.6,142.2z"/>
					<path class="st8" d="M19.8,145.1c0.9,0,0.9,1.3,0,1.3C18.9,146.4,18.9,145.1,19.8,145.1z"/>
					<path class="st8" d="M19.8,138.5c0.8,0,0.8,1.2,0,1.2C19,139.7,19,138.5,19.8,138.5z"/>
					<path class="st8" d="M17.9,141.6c0.7,0,0.7,1.1,0,1.1C17.2,142.7,17.2,141.6,17.9,141.6z"/>
					<path class="st8" d="M15.7,146.3c0.8,0,0.8,1.2,0,1.2C14.9,147.5,14.9,146.3,15.7,146.3z"/>
					<path class="st8" d="M18.1,147.6c0.6,0,0.6,0.9,0,0.9C17.5,148.4,17.5,147.6,18.1,147.6z"/>
					<path class="st8" d="M18.9,150.6c0.6,0,0.6,0.9,0,0.9C18.3,151.5,18.3,150.6,18.9,150.6z"/>
					<path class="st8" d="M14.9,148.9c0.7,0,0.7,1.1,0,1.1C14.2,150,14.2,148.9,14.9,148.9z"/>
					<path class="st8" d="M23.1,150.6c0.6,0,0.6,0.9,0,0.9C22.6,151.5,22.6,150.6,23.1,150.6z"/>
					<path class="st8" d="M24.7,145.1c0.5,0,0.5,0.8,0,0.8C24.2,145.8,24.2,145.1,24.7,145.1z"/>
					<path class="st8" d="M22.7,140.1c0.6,0,0.6,0.9,0,0.9C22.1,141,22.1,140.1,22.7,140.1z"/>
					<path class="st8" d="M29.3,135.9c0.6,0,0.6,1,0,1C28.7,136.9,28.7,135.9,29.3,135.9z"/>
					<path class="st8" d="M28.1,132.3c0.8,0,0.8,1.2,0,1.2C27.3,133.5,27.3,132.3,28.1,132.3z"/>
					<path class="st8" d="M28.6,129.6c0.6,0,0.6,0.9,0,0.9C28,130.5,28,129.6,28.6,129.6z"/>
					<path class="st8" d="M30,124.5c0.6,0,0.6,1,0,1C29.3,125.4,29.3,124.5,30,124.5z"/>
					<path class="st8" d="M34,122.7c0.6,0,0.6,1,0,1C33.3,123.7,33.3,122.7,34,122.7z"/>
					<path class="st8" d="M31.6,119.6c0.7,0,0.7,1.1,0,1.1C30.8,120.8,30.8,119.6,31.6,119.6z"/>
					<path class="st8" d="M33.6,118c0.8,0,0.8,1.2,0,1.2C32.8,119.2,32.8,118,33.6,118z"/>
					<path class="st8" d="M36.4,113.7c0.7,0,0.7,1.1,0,1.1C35.7,114.8,35.7,113.7,36.4,113.7z"/>
					<path class="st8" d="M39.2,110.6c0.4,0,0.4,0.7,0,0.7C38.8,111.3,38.8,110.6,39.2,110.6z"/>
					<path class="st8" d="M38.6,106.3c0.5,0,0.5,0.8,0,0.8C38.1,107.2,38.1,106.3,38.6,106.3z"/>
					<path class="st8" d="M43.5,104.9c0.5,0,0.5,0.7,0,0.7C43,105.7,43,104.9,43.5,104.9z"/>
					<path class="st8" d="M41,102.1c0.6,0,0.6,1,0,1C40.3,103.1,40.3,102.1,41,102.1z"/>
					<path class="st8" d="M42.6,100.1c0.6,0,0.6,1,0,1C42,101.1,42,100.1,42.6,100.1z"/>
					<path class="st8" d="M45.8,101.8c0.4,0,0.4,0.7,0,0.7C45.3,102.4,45.3,101.8,45.8,101.8z"/>
					<path class="st8" d="M45.8,98c0.5,0,0.5,0.8,0,0.8C45.3,98.8,45.3,98,45.8,98z"/>
					<path class="st8" d="M48.4,97.1c0.6,0,0.6,0.9,0,0.9C47.8,98,47.8,97.1,48.4,97.1z"/>
					<path class="st8" d="M47,93.8c0.6,0,0.6,0.9,0,0.9C46.4,94.7,46.4,93.8,47,93.8z"/>
					<path class="st8" d="M49.3,92.6c0.6,0,0.6,0.9,0,0.9C48.7,93.5,48.7,92.6,49.3,92.6z"/>
					<path class="st8" d="M48.3,89.7c0.6,0,0.6,0.9,0,0.9C47.8,90.6,47.8,89.7,48.3,89.7z"/>
					<path class="st8" d="M50.9,91c0.4,0,0.4,0.7,0,0.7C50.5,91.6,50.5,91,50.9,91z"/>
					<path class="st8" d="M19.3,148.5c0.6,0,0.6,1,0,1C18.7,149.5,18.7,148.5,19.3,148.5z"/>
					<path class="st8" d="M16.6,151.2c0.8,0,0.8,1.3,0,1.3C15.8,152.5,15.8,151.2,16.6,151.2z"/>
					<path class="st8" d="M28.8,144.7c0.6,0,0.6,0.9,0,0.9C28.2,145.6,28.2,144.7,28.8,144.7z"/>
					<path class="st8" d="M36.3,152.4c0.4,0,0.4,0.6,0,0.6C35.9,153.1,35.9,152.4,36.3,152.4z"/>
					<path class="st8" d="M42.4,151.7c0.5,0,0.5,0.7,0,0.7C41.9,152.5,41.9,151.7,42.4,151.7z"/>
					<path class="st8" d="M38.3,139.5c0.4,0,0.4,0.6,0,0.6C37.9,140.1,37.9,139.5,38.3,139.5z"/>
					<path class="st8" d="M45.8,141.9c0.4,0,0.4,0.6,0,0.6C45.4,142.5,45.4,141.9,45.8,141.9z"/>
					<path class="st8" d="M39.6,130.5c0.5,0,0.5,0.7,0,0.7C39.1,131.2,39.1,130.5,39.6,130.5z"/>
					<path class="st8" d="M36.1,127.3c0.6,0,0.6,0.9,0,0.9C35.5,128.2,35.5,127.3,36.1,127.3z"/>
					<path class="st8" d="M43.4,125.3c0.6,0,0.6,0.9,0,0.9C42.8,126.2,42.8,125.3,43.4,125.3z"/>
					<path class="st8" d="M49,128.4c0.7,0,0.7,1.1,0,1.1C48.3,129.5,48.3,128.4,49,128.4z"/>
					<path class="st8" d="M53,130.8c0.3,0,0.3,0.5,0,0.5C52.7,131.4,52.6,130.8,53,130.8z"/>
					<path class="st8" d="M45.9,119.8c0.6,0,0.6,0.9,0,0.9C45.3,120.7,45.3,119.8,45.9,119.8z"/>
					<path class="st8" d="M48.2,112.7c0.6,0,0.6,1,0,1C47.6,113.7,47.5,112.7,48.2,112.7z"/>
					<path class="st8" d="M52.7,110.7c0.5,0,0.5,0.7,0,0.7C52.3,111.4,52.3,110.7,52.7,110.7z"/>
					<path class="st8" d="M48.4,105.2c0.6,0,0.6,1,0,1C47.8,106.2,47.8,105.2,48.4,105.2z"/>
					<path class="st8" d="M49.5,100.6c0.5,0,0.5,0.8,0,0.8C49,101.4,49,100.6,49.5,100.6z"/>
					<path class="st8" d="M53.8,99.9c0.5,0,0.5,0.7,0,0.7C53.3,100.6,53.3,99.9,53.8,99.9z"/>
					<path class="st8" d="M60.6,111.2c0.6,0,0.6,0.9,0,0.9C60.1,112,60.1,111.2,60.6,111.2z"/>
					<path class="st8" d="M64.9,114.2c0.2,0,0.2,0.3,0,0.3C64.7,114.6,64.7,114.2,64.9,114.2z"/>
					<path class="st8" d="M56.1,121.9c0.5,0,0.5,0.8,0,0.8C55.6,122.7,55.6,121.9,56.1,121.9z"/>
					<path class="st8" d="M57.4,130c0.4,0,0.4,0.7,0,0.7C57,130.7,57,130,57.4,130z"/>
					<path class="st8" d="M52.5,140.2c0.5,0,0.5,0.8,0,0.8C52,141,52,140.2,52.5,140.2z"/>
					<path class="st8" d="M38.7,133c0.6,0,0.6,0.9,0,0.9C38.1,133.9,38.1,133,38.7,133z"/>
					<path class="st8" d="M51.2,107.5c0.7,0,0.7,1,0,1C50.5,108.5,50.5,107.5,51.2,107.5z"/>
					<path class="st8" d="M58.8,119.2c0.5,0,0.5,0.8,0,0.8C58.3,120,58.3,119.2,58.8,119.2z"/>
					<path class="st8" d="M44.4,139.3c0.6,0,0.6,0.9,0,0.9C43.8,140.2,43.8,139.3,44.4,139.3z"/>
					<path class="st8" d="M45.3,93.4c0.7,0,0.7,1.2,0,1.2C44.5,94.5,44.5,93.4,45.3,93.4z"/>
					<path class="st8" d="M46.5,96.4c0.7,0,0.7,1.1,0,1.1C45.8,97.5,45.8,96.4,46.5,96.4z"/>
					<path class="st8" d="M48.4,94.3c0.7,0,0.7,1.1,0,1.1C47.7,95.5,47.7,94.3,48.4,94.3z"/>
					<path class="st8" d="M44.3,98.8c0.7,0,0.7,1.1,0,1.1C43.6,100,43.6,98.8,44.3,98.8z"/>
					<path class="st8" d="M45.8,100.1c0.6,0,0.7,1,0,1C45.2,101.1,45.2,100.1,45.8,100.1z"/>
					<path class="st8" d="M43.4,102.6c0.6,0,0.6,0.9,0,0.9C42.8,103.6,42.8,102.6,43.4,102.6z"/>
					<path class="st8" d="M40.1,106.6c0.6,0,0.6,0.9,0,0.9C39.5,107.5,39.5,106.6,40.1,106.6z"/>
					<path class="st8" d="M44.6,107.2c0.7,0,0.7,1.1,0,1.1C43.9,108.3,43.9,107.2,44.6,107.2z"/>
					<path class="st8" d="M45.9,103.5c0.6,0,0.6,1,0,1C45.3,104.5,45.3,103.5,45.9,103.5z"/>
					<path class="st8" d="M49.5,98.2c0.8,0,0.8,1.2,0,1.2C48.7,99.5,48.7,98.2,49.5,98.2z"/>
					<path class="st8" d="M48.4,103.1c0.5,0,0.5,0.7,0,0.7C47.9,103.9,47.9,103.1,48.4,103.1z"/>
					<path class="st8" d="M47.2,108.3c0.4,0,0.4,0.6,0,0.6C46.8,108.8,46.8,108.3,47.2,108.3z"/>
					<path class="st8" d="M44.3,109.7c0.6,0,0.6,0.9,0,0.9C43.7,110.6,43.7,109.7,44.3,109.7z"/>
					<path class="st8" d="M40.1,112.8c0.6,0,0.6,1,0,1C39.5,113.8,39.5,112.8,40.1,112.8z"/>
					<path class="st8" d="M43.6,113.5c0.4,0,0.4,0.7,0,0.7C43.2,114.2,43.2,113.5,43.6,113.5z"/>
					<path class="st8" d="M37.1,120.7c0.6,0,0.6,0.9,0,0.9C36.5,121.5,36.5,120.7,37.1,120.7z"/>
					<path class="st8" d="M41.8,117.2c0.6,0,0.7,1,0,1C41.2,118.2,41.2,117.2,41.8,117.2z"/>
					<path class="st8" d="M34.6,120.5c0.6,0,0.6,0.9,0,0.9C34,121.4,34,120.5,34.6,120.5z"/>
					<path class="st8" d="M49.3,90c0.5,0,0.5,0.8,0,0.8C48.7,90.8,48.7,90,49.3,90z"/>
					<path class="st8" d="M49.8,93c0.5,0,0.5,0.7,0,0.7C49.4,93.7,49.4,93,49.8,93z"/>
					<path class="st8" d="M49.8,91.1c0.3,0,0.3,0.4,0,0.4C49.6,91.5,49.6,91.1,49.8,91.1z"/>
					<path class="st8" d="M48.9,91.4c0.6,0,0.6,0.9,0,0.9C48.3,92.3,48.3,91.4,48.9,91.4z"/>
					<path class="st8" d="M49.1,89.9c0.1,0,0.1,0,0.2,0c0.7-0.1,0.7,1.1,0,1.1c-0.1,0-0.1,0-0.2,0C48.4,90.8,48.4,89.9,49.1,89.9z"
						/>
					<path class="st8" d="M51,91.5c0.7,0,0.7,1.1,0,1.1C50.3,92.6,50.3,91.5,51,91.5z"/>
					<path class="st8" d="M48.9,93.2c0.7,0,0.7,1.1,0,1.1C48.2,94.3,48.2,93.2,48.9,93.2z"/>
					<path class="st8" d="M47.4,94.7c0.7,0,0.7,1.1,0,1.1C46.7,95.8,46.7,94.7,47.4,94.7z"/>
					<path class="st8" d="M46.3,97.9c0.7,0,0.7,1.1,0,1.1C45.6,99,45.6,97.9,46.3,97.9z"/>
					<path class="st8" d="M45.5,99.1c0.6,0,0.6,0.9,0,0.9C45,100,45,99.1,45.5,99.1z"/>
					<path class="st8" d="M43.5,101.1c0.6,0,0.6,1,0,1C42.8,102.1,42.8,101.1,43.5,101.1z"/>
					<path class="st8" d="M43.8,103.1c0.7,0,0.7,1.1,0,1.1C43.1,104.2,43.1,103.1,43.8,103.1z"/>
					<path class="st8" d="M41.4,106.6c0.8,0,0.8,1.2,0,1.2C40.6,107.8,40.6,106.6,41.4,106.6z"/>
					<path class="st8" d="M40.1,108.3c0.8,0,0.8,1.3,0,1.3C39.3,109.5,39.3,108.3,40.1,108.3z"/>
					<path class="st8" d="M38.4,111.8c0.8,0,0.8,1.2,0,1.2C37.6,113.1,37.6,111.8,38.4,111.8z"/>
					<path class="st8" d="M36.9,115c0.5,0,0.5,0.8,0,0.8C36.4,115.8,36.4,115,36.9,115z"/>
					<path class="st8" d="M39.2,111.1c0.7,0,0.7,1.1,0,1.1C38.4,112.3,38.4,111.1,39.2,111.1z"/>
					<path class="st8" d="M38.6,109.7c0.6,0,0.6,0.9,0,0.9C38,110.7,38,109.7,38.6,109.7z"/>
					<path class="st8" d="M36.9,111.5c0.7,0,0.7,1.1,0,1.1C36.2,112.6,36.2,111.5,36.9,111.5z"/>
					<path class="st8" d="M36.9,115.6c0.8,0,0.8,1.3,0,1.3C36.1,116.8,36.1,115.6,36.9,115.6z"/>
					<path class="st8" d="M39.4,114.7c0.8,0,0.8,1.2,0,1.2C38.6,115.9,38.6,114.7,39.4,114.7z"/>
					<path class="st8" d="M40.5,110.8c0.7,0,0.7,1.1,0,1.1C39.8,111.9,39.8,110.8,40.5,110.8z"/>
					<path class="st8" d="M35.6,117c0.7,0,0.7,1,0,1C34.9,118,34.9,117,35.6,117z"/>
					<path class="st8" d="M34.1,119.6c0.6,0,0.6,1,0,1C33.5,120.6,33.5,119.6,34.1,119.6z"/>
					<path class="st8" d="M34.7,120.7c0.5,0,0.5,0.8,0,0.8C34.2,121.4,34.2,120.7,34.7,120.7z"/>
					<path class="st8" d="M35.2,123.1c0.8,0,0.8,1.2,0,1.2C34.5,124.3,34.5,123.1,35.2,123.1z"/>
					<path class="st8" d="M39.7,113.6c0.7,0,0.7,1,0,1C39.1,114.6,39.1,113.6,39.7,113.6z"/>
					<path class="st8" d="M36.4,116c0.5,0,0.5,0.7,0,0.7C35.9,116.7,35.9,116,36.4,116z"/>
					<path class="st8" d="M37.5,120.6c0.8,0,0.8,1.2,0,1.2C36.7,121.8,36.7,120.6,37.5,120.6z"/>
					<path class="st8" d="M34.1,121.6c0.7,0,0.7,1.1,0,1.1C33.4,122.7,33.4,121.6,34.1,121.6z"/>
					<path class="st8" d="M32.6,123c0.7,0,0.7,1,0,1C32,124,32,123,32.6,123z"/>
					<path class="st8" d="M30.6,125.2c0.6,0,0.6,1,0,1C29.9,126.2,29.9,125.2,30.6,125.2z"/>
					<path class="st8" d="M30.9,127.5c0.8,0,0.8,1.3,0,1.3C30.1,128.8,30.1,127.5,30.9,127.5z"/>
					<path class="st8" d="M31.8,127.2c0.1-0.8,1.1-0.8,1.2,0c0,0.1,0,0.1,0,0.2c0,0.3-0.3,0.6-0.6,0.6c-0.3,0-0.7-0.3-0.6-0.6
						C31.8,127.4,31.8,127.3,31.8,127.2z"/>
					<path class="st8" d="M30.8,123.4c0.9,0,0.9,1.3,0,1.3C29.9,124.7,29.9,123.4,30.8,123.4z"/>
					<path class="st8" d="M30,125.6c0.9,0,0.9,1.3,0,1.3C29.1,127,29.1,125.6,30,125.6z"/>
					<path class="st8" d="M28.3,130.6c0.9,0,0.9,1.4,0,1.4C27.4,132,27.4,130.6,28.3,130.6z"/>
					<path class="st8" d="M29.3,133.6c0.8,0,0.8,1.2,0,1.2C28.5,134.7,28.5,133.6,29.3,133.6z"/>
					<path class="st8" d="M31.5,131.1c0.6,0,0.6,0.9,0,0.9C31,132,30.9,131.1,31.5,131.1z"/>
					<path class="st8" d="M31.9,129.6c0.7,0,0.7,1.1,0,1.1C31.1,130.8,31.1,129.6,31.9,129.6z"/>
					<path class="st8" d="M30.2,129.2c0.6,0,0.6,0.9,0,0.9C29.6,130.1,29.6,129.2,30.2,129.2z"/>
					<path class="st8" d="M26.8,130.5c0.6,0,0.6,0.9,0,0.9C26.2,131.4,26.2,130.5,26.8,130.5z"/>
					<path class="st8" d="M26.1,134.2c0.7,0,0.7,1.1,0,1.1C25.4,135.2,25.4,134.2,26.1,134.2z"/>
					<path class="st8" d="M33.9,132.9c0.6,0,0.6,1,0,1C33.3,133.9,33.3,132.9,33.9,132.9z"/>
					<path class="st8" d="M34.5,129.7c0.7,0,0.7,1.1,0,1.1C33.8,130.8,33.8,129.7,34.5,129.7z"/>
					<path class="st8" d="M36,126c0.3,0,0.3,0.5,0,0.5C35.6,126.6,35.6,126,36,126z"/>
					<path class="st8" d="M26.1,133.3c0.6,0,0.6,0.9,0,0.9C25.5,134.2,25.5,133.3,26.1,133.3z"/>
					<path class="st8" d="M26.8,136.3c0.7,0,0.7,1,0,1C26.2,137.3,26.2,136.3,26.8,136.3z"/>
					<path class="st8" d="M26.6,138c0.6,0,0.6,0.9,0,0.9C26.1,138.9,26.1,138,26.6,138z"/>
					<path class="st8" d="M24,137.9c0.5,0,0.5,0.7,0,0.7C23.5,138.6,23.5,137.9,24,137.9z"/>
					<path class="st8" d="M23.8,140c0.6,0,0.6,0.9,0,0.9C23.2,141,23.2,140,23.8,140z"/>
					<path class="st8" d="M23.1,140.8c0.6,0,0.6,1,0,1C22.4,141.8,22.4,140.8,23.1,140.8z"/>
					<path class="st8" d="M20.1,142.1c0.6,0,0.6,0.9,0,0.9C19.5,143,19.5,142.1,20.1,142.1z"/>
					<path class="st8" d="M20.1,143.4c0.6,0,0.6,0.9,0,0.9C19.5,144.3,19.5,143.4,20.1,143.4z"/>
					<path class="st8" d="M20.5,144.3c0.7,0,0.7,1,0,1C19.8,145.3,19.8,144.3,20.5,144.3z"/>
					<path class="st8" d="M21.4,141.8c0.7,0,0.7,1.2,0,1.2C20.6,143,20.6,141.8,21.4,141.8z"/>
					<path class="st8" d="M22.1,146.8c0.6,0,0.6,0.9,0,0.9C21.5,147.7,21.5,146.8,22.1,146.8z"/>
					<path class="st8" d="M18,146.3c0.7,0,0.7,1.1,0,1.1C17.3,147.4,17.3,146.3,18,146.3z"/>
					<path class="st8" d="M22,144.3c0.6,0,0.7,1,0,1C21.3,145.3,21.3,144.3,22,144.3z"/>
					<path class="st8" d="M19.2,147.9c0.6,0,0.6,0.9,0,0.9C18.6,148.8,18.6,147.9,19.2,147.9z"/>
					<path class="st8" d="M17.3,150.3c0.6,0,0.6,1,0,1C16.7,151.3,16.7,150.3,17.3,150.3z"/>
					<path class="st8" d="M20.3,150.4c0.5,0,0.5,0.8,0,0.8C19.7,151.2,19.7,150.4,20.3,150.4z"/>
					<path class="st8" d="M22.7,149.2c0.7,0,0.7,1.1,0,1.1C22,150.2,22,149.2,22.7,149.2z"/>
					<path class="st8" d="M23.3,143.4c0.6,0,0.6,0.9,0,0.9C22.7,144.3,22.7,143.4,23.3,143.4z"/>
					<path class="st8" d="M24,140.2c0.4,0,0.4,0.6,0,0.6C23.6,140.8,23.6,140.2,24,140.2z"/>
					<path class="st8" d="M25.3,138c0.3,0,0.3,0.5,0,0.5C25,138.5,25,138,25.3,138z"/>
					<path class="st8" d="M24.6,138.1c0.2,0,0.2,0.3,0,0.3C24.4,138.4,24.4,138.1,24.6,138.1z"/>
					<path class="st8" d="M25.3,139.1c0.6,0,0.6,0.9,0,0.9C24.8,140,24.8,139.1,25.3,139.1z"/>
					<path class="st8" d="M22.3,138.1c0.7,0,0.7,1,0,1C21.7,139.2,21.7,138.1,22.3,138.1z"/>
					<path class="st8" d="M24.8,136.1c0.6,0,0.6,1,0,1C24.2,137.1,24.2,136.1,24.8,136.1z"/>
					<path class="st8" d="M30.2,137.5c0.7,0,0.7,1.1,0,1.1C29.5,138.6,29.5,137.5,30.2,137.5z"/>
					<path class="st8" d="M30.4,142.3c0.6,0,0.6,0.9,0,0.9C29.8,143.2,29.8,142.3,30.4,142.3z"/>
					<path class="st8" d="M27,144.1c0.4,0,0.4,0.6,0,0.6C26.6,144.7,26.6,144.1,27,144.1z"/>
					<path class="st8" d="M25.3,146.3c0.5,0,0.5,0.8,0,0.8C24.8,147.1,24.8,146.3,25.3,146.3z"/>
					<path class="st8" d="M36.2,125.9c0.5,0,0.5,0.8,0,0.8C35.6,126.7,35.6,125.9,36.2,125.9z"/>
					<path class="st8" d="M40.9,121.3c0.5,0,0.5,0.7,0,0.7C40.4,122,40.4,121.3,40.9,121.3z"/>
					<path class="st8" d="M41.2,115.7c0.6,0,0.6,0.9,0,0.9C40.6,116.7,40.6,115.7,41.2,115.7z"/>
					<path class="st8" d="M50.8,96.3c0.6,0,0.6,0.9,0,0.9C50.2,97.2,50.2,96.3,50.8,96.3z"/>
					<path class="st8" d="M54.1,96.1c0.3,0,0.3,0.4,0,0.4C53.9,96.6,53.9,96.1,54.1,96.1z"/>
					<path class="st8" d="M26.8,136.5c0.5,0,0.5,0.8,0,0.8C26.3,137.4,26.3,136.5,26.8,136.5z"/>
					<path class="st8" d="M22,141.3c0.7,0,0.7,1,0,1C21.3,142.3,21.3,141.3,22,141.3z"/>
					<path class="st8" d="M20.8,146.7c0.3,0,0.3,0.4,0,0.4C20.6,147.1,20.6,146.7,20.8,146.7z"/>
					<path class="st8" d="M19.7,146.8c0.8,0,0.8,1.2,0,1.2C18.9,148,18.9,146.8,19.7,146.8z"/>
					<path class="st8" d="M18.8,144.3c0.6,0,0.7,1,0,1C18.1,145.3,18.1,144.3,18.8,144.3z"/>
					<path class="st8" d="M15.4,151.1c0.6,0,0.6,1,0,1C14.8,152,14.8,151.1,15.4,151.1z"/>
					<path class="st8" d="M15.7,153.6c-0.2,0-0.4,0.1-0.5,0.3c-0.1-0.1-0.2-0.1-0.3-0.1c-0.2,0-0.3,0.1-0.4,0.1
						c0.5,0.2,1.1,0.3,1.8,0.4C16.3,154,16.1,153.6,15.7,153.6z"/>
				</g>
			</g>
		</g>
	</g>
	<g>
		<g>
			<path class="st7" d="M129.3,10c-6.8-0.9-16.1,0.4-19.7,7.2c-0.2,0.4-0.4,0.9-0.6,1.3c-3,5.5-1.6,11.2-0.8,17.5
				c1.2,9.3,1.6,18.6,1.1,28c-0.5,9.9-1.1,19.8-1,29.7c0.1,10.2,1,20.5,1.9,30.6c0.3,3.9,3.7,7.3,7.9,6c7.1-2.1,14.7-3.1,21.3-6.6
				c6.1-3.2,10.7-8.8,13.7-14.8c5.8-11.6,6.2-24.5,7-37.3c0.7-12,1-24.6-2.9-36.1C153,22.7,143.2,11.7,129.3,10z M148.2,70.2
				c-0.5,9.8-0.5,20-3.8,29.3c-1.9,5.2-5,10.6-9.9,13.5c-3.5,2.1-7.5,3.1-11.5,3.8c-0.1-7.3-0.8-14.5-1.4-21.8
				c-0.7-9.6-0.9-19.3-0.7-29c0.2-9.3,0-18.4-1.2-27.6c-0.2-1.5-0.5-3-0.9-4.5c0.2-1.7,0.3-3.4,0.2-5.2c-0.1-1.6-0.1-4.2-0.1-5
				c0-0.1,0.1-0.5,0.2-0.7c0.3-0.2,0.8-0.4,1.4-0.6c2.6-0.9,5.5-1.1,8.2-0.5c9.6,2,15.2,10.5,17.6,19.3
				C148.9,50.6,148.7,60.5,148.2,70.2z"/>
			<path class="st7" d="M216.4,114.1c-6.1-1.8-13-4.2-19.5-3.3c-2.7,0.4-5.3,1.8-8,2.9c0-9.8-1.5-19.5-1.2-29.3
				c0.1-2.9,0.2-5.9,0.3-8.8c2.6,0.5,5.3,0.7,7.5,1c5.3,0.8,13.7,0.1,15-6.6c0.4-2.3-0.2-5-2.5-6.2c-2.4-1.2-4.6-1.1-7.2-1.1
				c-2.4,0-4.8-0.3-7.2-0.5c-1.7-0.1-3.6-0.1-5.4,0.2c-0.1-5.3-0.3-10.6-0.6-15.9c-0.5-6.4-1.1-12.9-2.1-19.3
				c-0.1-0.6-0.2-1.2-0.3-1.9c3,0.4,5.8,1.3,8.9,1.1c2.9-0.2,5.7-0.9,8.4-1.8c3-1.1,12-5,8.9-9.8c-3.2-4.9-10.2-1.9-15-1.9
				c-6.2,0.1-12.2-2.8-18.4-1.2c-6.2,1.7-8.9,7.1-7.4,13.1c1.4,5.4,2.2,10.7,2.7,16.3c1.3,13.5,1.6,27,1.1,40.5
				c-0.5,13.4,2,26.8,0.9,40.2c-0.3,3.7,3.3,6.4,6.6,6.6c6.1,0.3,10.5-3.7,16.1-4.9c2.5-0.5,5.1,0.4,7.5,1.1c3.8,1,7,1.4,10.8,0.1
				C221.4,123,221.8,115.7,216.4,114.1z"/>
			<path class="st7" d="M256.5,15c0.8,2.8,0,5.9-0.5,8.8c-0.6,3.3-1.2,6.6-1.7,9.9c-1.5,9.9-1.7,20-2.7,29.9c-1,10-3.7,19.8-5,29.8
				c-0.4,3.3-0.8,6.5-1.1,9.8c-1.5-4.3-2.8-8.6-3.8-13.1c-2.5-11.1-3.4-22.4-4.9-33.6c-1.5-11.2-3.5-22.3-7.7-32.8
				c0.5,1.1-0.5-1.4-0.6-1.6c-0.3-0.7-0.6-1.5-0.9-2.2c-0.9-2.2-1.7-4.3-3.3-6c-2.2-2.4-4.7-4.8-8.3-3.7c-1.7,0.5-2.8,2.7-1.8,4.3
				c-0.5-0.7,0.1,0.5,0.2,1c0.1,0.5,0.5,1.1,0.6,1.5c0.4,1.7,0.5,3.5,0.9,5.3c0.8,3.3,1.4,6.6,2.4,9.8c3.2,10.4,4.8,21.3,6.1,32.1
				c1.4,11.1,2.5,22.4,5.4,33.2c2.8,10.7,7.1,21,12.2,30.8c3,5.8,10.8,2.5,11.3-3.1c1-10.6,2.2-21.1,3.9-31.5
				c1.7-10.3,4.6-20.1,5.5-30.6c0.9-9.5,0.8-19.1,2.4-28.5c1.2-6.9,3.4-15.2,0.7-22C263.7,6.7,254.8,8.8,256.5,15z"/>
			<path class="st7" d="M312.7,15c-9.4-4.7-20.8-0.9-30.5-3.8c-3-0.9-6.7,1.1-7.4,4.2c-1.7,7.8,1.2,15.6,1.5,23.5
				c0.3,9.6,0,19.3-0.2,28.9c-0.4,19.4-1.2,38.8-1.3,58.1c0,8,12.5,8,12.5,0c-0.1-18.3,0.5-36.6,0.8-54.9c1.8,0,3.6-0.1,5.1,0
				c5.8,0.6,11.7,2,17-1.4c4.9-3.2,4.1-10.7-1.6-12.4c-3.3-1-6.7-0.9-10.1-1.1c-3.2-0.2-6.7-0.8-9.9,0c-0.1,0-0.2,0.1-0.3,0.1
				c0.1-4.9,0.1-9.8,0-14.7c0-4.3-0.4-8.5-1.1-12.7c-0.2-1.5-0.6-3.1-0.9-4.7c3.9,0.3,7.9,0.1,11.7,0.2c5.9,0.1,13.1,0.3,15.8-6.1
				C314.4,17,313.6,15.5,312.7,15z"/>
			<path class="st7" d="M365.1,119c-4.7,2.8-11.2-0.7-16.2-1.3c-3.6-0.4-7.2-0.3-10.7,0.2c0.2-1.3,0.4-2.7,0.6-4
				c0.4-4.6,0.6-9.2,0.6-13.8c0-8.7-0.5-17.5-1-26.2c4.2,0.1,8.4-0.3,12.3-1.1c3.7-0.8,12.8-2,13.2-7c0.2-2.6-2.5-4.6-4.8-5.3
				c-2.9-0.9-5.8-0.3-8.8,0.1c-4.3,0.6-8.5,0.3-12.8,0.2c-0.3-5.4-0.6-10.9-0.8-16.3c-0.2-6.5-1.4-13.1-1.9-19.6
				c4.9,0,9.8,0.2,14.6-0.3c5.3-0.5,10.8-2.3,16.1-2c4.1,0.2,5.2-5.5,2-7.4c-5.3-3.2-11.2-3-17.2-2.8c-7.3,0.2-14.6,0-21.9,0.1
				c-3.4,0.1-6.1,2.8-6.2,6.2c-0.2,8.6,1.7,17.2,2,25.8c0.3,9.5,1,19,1.6,28.5c0.6,9.3,1.1,18.5,1.1,27.8c0,4.6-0.2,9.2-0.7,13.7
				c-0.5,4.2-1.4,8.1-0.7,12.4c0.5,3.4,4.7,5.1,7.7,4.3c6.6-1.7,12.4-2.5,19.1-0.8c6.8,1.8,12.8,2.7,19.1-0.9
				C378.1,125.6,371.9,114.9,365.1,119z"/>
			<path class="st7" d="M430.5,80.3c-0.9-3.8-2.2-7.2-4.7-10.2c-4-4.8-10.1-6.9-16-8c-5.4-1-11.7-1.4-15.8-3.9
				c-0.3-0.2-1.4-1.1-1.6-1.3c-1.1-1.3-1.7-3-1.8-4.7c-0.5-4.7,1.1-9.6,1.6-14.2c0.8-7.1-0.9-17.6,8.8-18.6c3.8-0.4,5.7,2.4,7.7,5.3
				c2.6,3.8,4.7,8,6,12.4c0.8,2.9,4.5,2.5,5.5,0c3.1-7.6-0.9-17.4-6-23.2c-5.9-6.6-15.3-7.1-22.9-3c-8.4,4.7-9.6,13.7-10.1,22.5
				c-0.5,9.2-4.4,18.9,0.2,27.7c6.4,12.2,20.4,10.1,31.4,14.4c1.3,0.5,3.5,2,4.2,3.2c1.8,2.9,2.3,7.3,3.1,11
				c1.7,7.8,3.2,17.7-2.2,24.5c-4.7,5.9-12.7,6.5-18.4,1.8c-3.5-2.8-4-5.8-3.5-10.1c0.3-2.9,0.8-5.8,0.6-8.8
				c-0.3-3.1-1.5-6.1-1.7-9.1c-0.5-5.8-8-6.9-10-1.4c-1.9,5.3-0.6,10.7-1.2,16.1c-0.5,4.8-1.1,9.2,0.8,13.8
				c3.3,7.9,11.2,13.7,19.5,15c8.6,1.4,17.5-2.1,23.1-8.8c6.2-7.5,7.7-17.1,6.7-26.6C433,90.8,431.7,85.5,430.5,80.3z"/>
			<path class="st7" d="M484.3,8.1c-5-3-12.3-3-18-2.8c-5.8,0.2-11.3,1.8-17,2.4c-5.4,0.5-10.3-1.1-15.6-1.1c-2.6,0-5.7,0.6-7.5,2.6
				c-1.5,1.7-2.1,4.7-0.3,6.4c1.7,1.6,3.4,1.7,5.6,1.8c2,0.2,4,0.6,6,1c3.5,0.6,7,1,10.6,0.8c0,0.1,0,0.1,0,0.2
				c-0.3,3.6,0.7,7,0.8,10.6c0.4,10.5-1.1,20.9-1.3,31.4c-0.2,10.5,1.8,20.8,1.8,31.3c0,10.9-1.8,21.5,0.2,32.4
				c1.4,7.7,13.4,4.5,11.8-3.3c-2-9.9,0.1-19.8,0.5-29.8c0.4-10-1.7-19.9-1.6-30c0.1-10.1,1.5-20,1.1-30.1c-0.1-3.5-0.7-7-1.6-10.3
				c-0.3-1.1-0.5-2.4-0.8-3.7c2.4-0.4,4.8-0.7,7.2-0.7c2.5-0.1,5.1,0,7.6,0.3c2.5,0.3,5,1.1,7.6,1.1C487,18.3,489.2,11,484.3,8.1z"
				/>
		</g>
		<g>
			<path class="st7" d="M318.2,136.5c-2.8-1.1-5.2,0.7-6.6,3c-0.1-0.2-0.1-0.3-0.2-0.5c-0.4-1.3-2.2-1.1-2.3,0.3
				c-0.2,3.7,0.1,7.4,0,11.1c0,3.8-0.5,7.4-0.9,11.1c-0.2,2.7,3.6,2.9,4.4,0.6c1-2.9,1.4-6.2,1.3-9.6c0.3,0.1,0.6,0.2,0.9,0.2
				C323.3,152.7,326.2,139.6,318.2,136.5z M318.6,144.9c-0.4,2.3-2.1,3.2-4.2,3.7c-0.2,0.1-0.5,0.2-0.6,0.3
				c-0.1-0.9-0.3-1.9-0.4-2.8c0.2-0.7,0.4-1.5,0.7-2.2c0.3-0.8,1.2-3.4,2.3-3.4C318,140.3,318.7,143.7,318.6,144.9z"/>
			<path class="st7" d="M331.5,136.5c-5.2-0.1-6.6,5.5-6.9,9.7c-0.4,4.2-1,10.8,1.7,14.3c0.4,0.5,1,0.2,1.3-0.2
				c1.9-2.5,1.3-6.8,1.2-9.9c1.1,0.3,2.3,0.3,3.4,0.3c1.1,0,2.2,0.1,3.2-0.2c0.3,2.6,0.4,5.2,0.4,7.8c-0.1,2.7,4,2.7,4.1,0
				c0.2-4.3-0.2-8.7-1.1-12.9C337.9,141.8,336.1,136.6,331.5,136.5z M331,146c-0.7,0.2-1.5,0.5-2.1,0.8c0.2-2.8,0.7-6.6,2.9-6.1
				c1.4,0.3,2.2,2.4,2.7,4.4C333.2,145.3,332,145.7,331,146z"/>
			<path class="st7" d="M355.5,150.2c-0.3-0.4-0.6-0.7-0.9-0.9c2.4-1.7,3.9-4.1,2.7-7.4c-1.3-3.8-8.6-7.3-11.8-4.1
				c-0.7,0.1-1.4,0.7-1.5,1.7c-0.2,4.4-0.1,8.8-0.1,13.2c0,3.2-0.6,8,1.6,10.5c0.2,0.3,0.7,0.3,1,0c2.2-2.6,1.6-7.4,1.5-10.5
				c0-0.2,0-0.4,0-0.6c2.6-0.1,4.7-0.1,4.9,3.1c0.2,2.9-0.2,5.5,1.4,8.1c1.5,2.4,5.4,0,3.8-2.2C355.7,157.8,358,153.4,355.5,150.2z
				 M347.8,147.4c0-2.1-0.1-4.2-0.2-6.3c2.4-0.1,5.6-0.1,5.6,2.8C353.2,146.1,349.8,147,347.8,147.4z"/>
			<path class="st7" d="M365.7,147.2c0.1-2.8,0.6-7.1-1.9-9.1c-0.6-0.5-1.4-0.2-1.5,0.6c-0.3,7.5-1.3,14.8-0.6,22.4
				c0.3,2.8,4.8,2.8,4.4,0C365.7,156.4,365.4,151.8,365.7,147.2z"/>
			<path class="st7" d="M378.7,141.7c0.9,0.9,1.5,3.4,3.2,3c1.7-0.4,1.7-2.8,1.2-4c-0.6-1.8-2.4-3.3-4.2-3.8c-4.4-1.3-8,2.6-8.8,6.6
				c-1,4.7,1.9,7.4,5.7,9.5c2.2,1.2,4.2,4.6,1.6,6.7c-1.8,1.5-3.1-1.1-3.5-2.5c-0.7-2.5-4.9-2.1-4.6,0.6c0.4,3.9,3.7,7.2,7.8,6.7
				c4.4-0.5,6.5-5.5,5.6-9.5c-0.5-2.1-1.7-3.9-3.5-5.1c-1.9-1.2-4.9-1.9-5-4.6C374.2,143.1,376.5,139.4,378.7,141.7z"/>
			<path class="st7" d="M412.4,157.2l0-0.2L412.4,157.2c-1.9-0.1-3.8-0.3-5.7-0.3l-0.1,0l-0.4,0l0.3-0.3c3.3-3.1,6.3-6.8,6.2-11
				c0-1.1-0.2-2.2-0.7-3.4c-1-2.6-3.4-4.1-6.1-4.1c-0.1,0-0.2,0-0.4,0c-1.5,0.1-4.1,1-5.3,2.5c-0.4,0.5-0.6,1-0.6,1.7
				c0,0.1,0,0.3,0,0.5c0,0.2,0.3,0.4,0.5,0.5c0.2,0.1,0.4,0.1,0.6,0.1c0.7,0,1.4-0.3,2.2-0.5c0.8-0.3,1.5-0.6,2.3-0.6l0.1,0
				c1,0,1.7,0.3,2.2,0.8c0.5,0.5,0.7,1.3,0.7,2.3c0,0.1,0,0.1,0,0.2c-0.1,2.8-1.6,5-3.6,7c-1.9,2-4.3,3.6-6,5.2
				c-0.4,0.4-0.6,0.8-0.6,1.3c0,0.5,0.2,1.1,0.6,1.5c0.4,0.4,0.8,0.7,1.4,0.7l0,0c1.9-0.1,3.9-0.4,5.8-0.5c0.2,0,0.4,0,0.6,0
				c1.9,0,3.8,0.3,5.7,0.4l0.1,0c0.6,0,1-0.2,1.3-0.6c0.3-0.3,0.4-0.8,0.4-1.3c0-0.5-0.2-1-0.5-1.4
				C413.4,157.5,413,157.3,412.4,157.2z"/>
			<path class="st7" d="M429.4,142.2l-0.1,0.1c-1.6-2.2-4.3-4-7.1-4c-0.4,0-0.8,0-1.3,0.1c-2.1,0.5-3.5,1.8-4.4,3.5
				c-0.9,1.8-1.3,4-1.3,6.2c0,0.3,0,0.5,0,0.8l0,0l0,0c-0.1,0.7-0.2,1.3-0.2,2c0,0.3,0,0.7,0,1.1c0,2.9,0.5,6.3,2.7,8.1
				c1.2,1,2.4,1.4,3.6,1.4c2.2,0,4.3-1.4,6-3.3c1.7-1.9,2.9-4.4,3.4-6.4c0.2-1.1,0.4-2.2,0.4-3.4c0-2.2-0.5-4.4-1.8-6.2L429.4,142.2
				z M426.2,150.9l-0.2,0L426.2,150.9c-0.1,0.5-0.5,1.4-1.1,2.4c-0.6,1-1.3,2-2.1,2.7c-0.5,0.5-1,0.8-1.6,0.8
				c-0.6,0-1.1-0.4-1.5-1.1c-0.1-0.2-0.2-0.4-0.3-0.6l0-0.1l0-0.1c0.1-0.1,0.1-0.3,0.2-0.5c0.1-0.3,0.1-0.7,0.1-1.1
				c0-1.9-0.7-4.3-0.7-6.4c0-1.4,0.3-2.7,1.4-3.7c0.4-0.4,0.9-0.6,1.4-0.6c1.3,0,2.6,1.1,3.3,2.1c0.8,1.1,1.1,2.4,1.1,3.7
				C426.5,149.4,426.4,150.2,426.2,150.9z"/>
			<path class="st7" d="M445.6,158.1c-1.9-0.2-4-0.4-5.9-0.4l0,0c-0.2,0-0.4,0-0.6,0l-0.4,0l0.3-0.3c1.5-1.6,2.8-3.4,3.8-5.7
				c0.8-1.9,1.3-4.1,1.3-6.2c0-1.8-0.4-3.6-1.3-5.2c-1.2-2-3.5-3.3-5.8-3.3c-0.6,0-1.1,0.1-1.7,0.2c-1.8,0.5-3.4,2.1-3.4,3.8
				c0,0.7,0.2,1.4,0.8,2c0.1,0.1,0.3,0.2,0.5,0.2c0.2,0,0.4-0.1,0.5-0.2c1-1,2-1.5,3-1.5c0.9,0,1.7,0.4,2.2,1.1
				c0.6,0.7,0.9,1.7,0.9,3l0,0.1c0,2.9-1.1,5.2-2.6,7.2c-1.5,2-3.5,3.7-5.4,5.4c-0.4,0.4-0.6,0.9-0.6,1.4c0,0.9,0.6,1.9,1.5,2.1
				c0.7,0.2,1.4,0.2,2.1,0.2c1.6,0,3.1-0.3,4.7-0.3l0.1,0c1.5,0,3,0.4,4.4,0.4c0.8,0,1.7-0.1,2.5-0.5c0.7-0.3,0.9-0.8,0.9-1.4
				c0-0.5-0.2-1-0.6-1.5C446.6,158.4,446.1,158.1,445.6,158.1z"/>
			<path class="st7" d="M461.8,142.2c-0.9-1.8-2.4-3.1-4.5-3.5l0-0.2l0,0.2c-0.4-0.1-0.7-0.1-1.1-0.1c-1.9,0-3.6,1-4.9,2.5
				c-1.3,1.5-2.2,3.5-2.5,5.5l0,0l0,0c-0.5,1.7-0.8,3.5-0.8,5.3c0,2.7,0.7,5.3,2.2,7.2c1.3,1.6,2.9,2.2,4.5,2.2
				c2.4,0,4.8-1.4,6.2-3.6c1.3-2.1,2.3-5.6,2.3-9.1C463.1,146.3,462.7,144,461.8,142.2z M458.9,151.1c-0.2,1.5-0.8,4.2-2.2,5.5
				c-0.5,0.4-1.1,0.7-1.8,0.7c-0.2,0-0.3,0-0.5,0c-0.5-0.1-1-0.4-1.3-0.8c-0.3-0.4-0.6-0.9-0.7-1.4c-0.3-1.1-0.4-2.3-0.4-3.4
				c0-0.5,0-1,0-1.3c0-1.5,0.5-3.2,0.7-4.9l0,0l0,0c0.3-0.9,0.8-1.8,1.7-2.4c0.5-0.3,1-0.5,1.5-0.5c0.5,0,0.9,0.2,1.3,0.5
				c1.4,1.3,1.7,3.7,1.7,5.8C459.1,149.6,459,150.4,458.9,151.1z"/>
		</g>
	</g>
</g>
</svg>
