<?xml version="1.0" encoding="UTF-8" standalone="no"?>
<svg
   xmlns:dc="http://purl.org/dc/elements/1.1/"
   xmlns:cc="http://creativecommons.org/ns#"
   xmlns:rdf="http://www.w3.org/1999/02/22-rdf-syntax-ns#"
   xmlns:svg="http://www.w3.org/2000/svg"
   xmlns="http://www.w3.org/2000/svg"
   xmlns:xlink="http://www.w3.org/1999/xlink"
   xmlns:sodipodi="http://sodipodi.sourceforge.net/DTD/sodipodi-0.dtd"
   xmlns:inkscape="http://www.inkscape.org/namespaces/inkscape"
   width="1407.5083"
   height="1028.2603"
   viewBox="0 0 1126.0066 822.60819"
   version="1.1"
   id="svg2462"
   sodipodi:version="0.32"
   inkscape:version="0.48.4 r9939"
   sodipodi:docname="duchess_fr.svg"
   inkscape:output_extension="org.inkscape.output.svg.inkscape"
   inkscape:export-filename="/home/eric/Téléchargements/duchess_fr.png"
   inkscape:export-xdpi="82.012169"
   inkscape:export-ydpi="82.012169">
  <metadata
     id="metadata2497">
    <rdf:RDF>
      <cc:Work
         rdf:about="">
        <dc:format>image/svg+xml</dc:format>
        <dc:type
           rdf:resource="http://purl.org/dc/dcmitype/StillImage" />
        <dc:title></dc:title>
      </cc:Work>
    </rdf:RDF>
  </metadata>
  <defs
     id="defs2495">
    <linearGradient
       inkscape:collect="always"
       id="linearGradient3807">
      <stop
         style="stop-color:#bb0000;stop-opacity:1;"
         offset="0"
         id="stop3809" />
      <stop
         style="stop-color:#bb0000;stop-opacity:0;"
         offset="1"
         id="stop3811" />
    </linearGradient>
    <filter
       inkscape:collect="always"
       id="filter4045"
       color-interpolation-filters="sRGB">
      <feGaussianBlur
         inkscape:collect="always"
         stdDeviation="5.3316522"
         id="feGaussianBlur4047" />
    </filter>
    <linearGradient
       inkscape:collect="always"
       xlink:href="#linearGradient3807"
       id="linearGradient3813"
       x1="739.13391"
       y1="303.5314"
       x2="816.57379"
       y2="303.5314"
       gradientUnits="userSpaceOnUse"
       gradientTransform="translate(-31.339078,24.315529)" />
    <filter
       inkscape:collect="always"
       id="filter3894">
      <feGaussianBlur
         inkscape:collect="always"
         stdDeviation="0.37253705"
         id="feGaussianBlur3896" />
    </filter>
    <filter
       inkscape:collect="always"
       id="filter3818">
      <feGaussianBlur
         inkscape:collect="always"
         stdDeviation="4.658598"
         id="feGaussianBlur3820" />
    </filter>
    <linearGradient
       inkscape:collect="always"
       id="linearGradient3807-9">
      <stop
         style="stop-color:#bb0000;stop-opacity:1;"
         offset="0"
         id="stop3809-3" />
      <stop
         style="stop-color:#bb0000;stop-opacity:0;"
         offset="1"
         id="stop3811-9" />
    </linearGradient>
    <filter
       inkscape:collect="always"
       id="filter3908">
      <feGaussianBlur
         inkscape:collect="always"
         stdDeviation="3.1709179"
         id="feGaussianBlur3910" />
    </filter>
    <linearGradient
       inkscape:collect="always"
       xlink:href="#linearGradient3807-9"
       id="linearGradient3864"
       gradientUnits="userSpaceOnUse"
       gradientTransform="translate(-31.339058,24.315533)"
       x1="739.13391"
       y1="303.5314"
       x2="816.57379"
       y2="303.5314" />
    <filter
       inkscape:collect="always"
       id="filter3996">
      <feGaussianBlur
         inkscape:collect="always"
         stdDeviation="3.2444846"
         id="feGaussianBlur3998" />
    </filter>
    <filter
       inkscape:collect="always"
       id="filter4000"
       x="-0.040613939"
       width="1.0812279"
       y="-0.17393794"
       height="1.3478759">
      <feGaussianBlur
         inkscape:collect="always"
         stdDeviation="3.2444846"
         id="feGaussianBlur4002" />
    </filter>
    <filter
       inkscape:collect="always"
       id="filter4004"
       x="-0.051576934"
       width="1.1031539"
       y="-0.8712706"
       height="2.7425412">
      <feGaussianBlur
         inkscape:collect="always"
         stdDeviation="3.2444846"
         id="feGaussianBlur4006" />
    </filter>
    <filter
       inkscape:collect="always"
       id="filter4008">
      <feGaussianBlur
         inkscape:collect="always"
         stdDeviation="3.2444846"
         id="feGaussianBlur4010" />
    </filter>
    <filter
       inkscape:collect="always"
       id="filter4228">
      <feGaussianBlur
         inkscape:collect="always"
         stdDeviation="5.3316268"
         id="feGaussianBlur4230" />
    </filter>
  </defs>
  <sodipodi:namedview
     inkscape:window-height="852"
     inkscape:window-width="1600"
     inkscape:pageshadow="2"
     inkscape:pageopacity="0.0"
     guidetolerance="10.0"
     gridtolerance="10.0"
     objecttolerance="10.0"
     borderopacity="1.0"
     bordercolor="#666666"
     pagecolor="#ffffff"
     id="base"
     showgrid="false"
     inkscape:zoom="0.25"
     inkscape:cx="553.83825"
     inkscape:cy="569.46279"
     inkscape:window-x="0"
     inkscape:window-y="22"
     inkscape:current-layer="svg2462"
     inkscape:snap-global="false"
     inkscape:window-maximized="1"
     units="pt"
     fit-margin-top="40"
     fit-margin-left="120"
     fit-margin-right="120"
     fit-margin-bottom="40" />
  <path
     style="font-size:796.72723389px;font-style:normal;font-weight:normal;line-height:125%;letter-spacing:0px;word-spacing:0px;fill:#afafaf;fill-opacity:1;stroke:none;filter:url(#filter3818);font-family:Sans"
     d="m 616.5,-904.375 c -8.45306,-1.17861 -12.00962,7.79365 -16.5,13.03125 -6.16963,4.1572 -5.49232,14.10598 0.75,17.875 64.6198,70.54046 101.6757,163.17222 111.92872,257.6729 7.87099,68.19112 5.12881,137.50531 -5.47506,205.18731 -10.4154,62.2895 -33.25589,122.53657 -68.35991,175.13979 -13.03996,20.27877 -27.81141,39.42948 -43.03125,58.25 -2.74407,8.26608 6.3241,12.84439 11.125,17.65625 4.0938,4.6568 12.24059,8.37063 17.13125,2.59572 68.99872,-58.51914 120.25046,-137.1306 146.74116,-223.65636 28.11272,-91.10482 29.62686,-190.27151 6.01202,-282.55759 -12.87391,-48.85716 -35.90288,-94.34194 -64.35754,-135.89709 -26.2026,-39.64469 -56.78466,-77.07223 -95.21439,-105.35968 l -0.75,0.0625 z"
     id="text3029-5"
     inkscape:connector-curvature="0"
     transform="matrix(0,1,-1,0,6.5316493,3.7801517)" />
  <g
     transform="matrix(0,1,-1,0,0,0)"
     style="font-size:796.72723389px;font-style:normal;font-weight:normal;line-height:125%;letter-spacing:0px;word-spacing:0px;fill:#bb0000;fill-opacity:1;stroke:none;font-family:Sans"
     id="text3029">
    <path
       d="m 618.01449,-159.85023 -4.66832,-0.38903 -14.78303,-12.83789 0,-4.66832 c 44.86771,-53.94518 76.24918,-108.53858 94.14453,-163.78035 18.15445,-55.24178 27.23174,-121.63565 27.23189,-199.18181 -1.5e-4,-140.56808 -40.45892,-254.42319 -121.37642,-341.56568 l 0,-4.2793 12.05984,-15.17205 4.27929,-0.38903 c 39.94002,29.30723 78.713,76.24977 116.31907,140.82777 37.86509,64.31947 56.79772,140.69836 56.79794,229.13688 -2.2e-4,71.58108 -14.39421,139.53106 -43.182,203.85013 -28.52879,64.5784 -70.80301,120.7279 -126.82279,168.44868"
       style="font-variant:normal;font-weight:bold;font-stretch:normal;font-family:Palatino Linotype;-inkscape-font-specification:Palatino Linotype Bold Italic"
       id="path4241" />
  </g>
  <path
     style="font-size:64.15940856999999653px;font-style:normal;font-variant:normal;font-weight:normal;font-stretch:normal;line-height:125%;letter-spacing:0px;word-spacing:0px;fill:#969696;fill-opacity:1;stroke:none;filter:url(#filter4000);font-family:Liberation Sans;-inkscape-font-specification:Liberation Sans"
     d="m 800.8875,311.2625 c 0,15.375 0,30.75 0,46.125 7.76251,1.43959 12.07755,-0.56829 9.96875,-9 -2.17068,-8.46234 2.33444,-10.24889 10,-8.875 4.769,-1.43933 15.97961,3.56294 14.625,-4 2.23314,-8.55606 -8.92336,-3.72248 -14,-4.96875 -6.98521,0.77688 -13.20886,0.79219 -10.625,-8 -1.95748,-8.0929 9.2835,-2.98734 14,-4.40625 6.10399,0.0206 14.13235,1.96568 11.375,-6.875 -1.89378,-4.43955 -11.83458,-0.83209 -17,-2 -6.11458,0 -12.22917,0 -18.34375,0 l 0,1 0,1 z"
     id="path3872-1"
     inkscape:connector-curvature="0" />
  <path
     style="font-size:64.15940856999999653px;font-style:normal;font-variant:normal;font-weight:normal;font-stretch:normal;line-height:125%;letter-spacing:0px;word-spacing:0px;fill:#969696;fill-opacity:1;stroke:none;filter:url(#filter4000);font-family:Liberation Sans;-inkscape-font-specification:Liberation Sans"
     d="m 854.41875,318.8875 c -2.18529,8e-5 -4.43254,0.68699 -6,2.25 -0.91461,-2.89767 -12.62221,-3.52585 -9.21827,3.03075 0.22229,11.07006 0.0282,22.14671 0.0933,33.21925 7.75501,1.54667 11.58955,-0.82712 9.625,-9 0.99405,-6.31662 -2.32523,-15.19266 3.25,-19.96875 2.70966,-1.99133 8.16899,2.95536 6.96875,-2.0625 0.0921,-3.43252 1.02166,-7.77961 -3.40625,-7.46875 -0.44113,0.0334 -0.87355,-0.0892 -1.3125,0 z"
     id="path3874-8"
     inkscape:connector-curvature="0" />
  <path
     style="font-size:64.15940856999999653px;font-style:normal;font-variant:normal;font-weight:normal;font-stretch:normal;line-height:125%;letter-spacing:0px;word-spacing:0px;fill:#969696;fill-opacity:1;stroke:none;filter:url(#filter4000);font-family:Liberation Sans;-inkscape-font-specification:Liberation Sans"
     d="m 875.2,318.8875 c -7.48254,-0.59964 -15.25616,4.90917 -14.9375,12.9375 3.84224,-0.37973 10.58215,3.29352 10.4375,-2.4375 1.63365,-3.24841 7.67183,-3.10128 9.8125,-0.40625 1.52012,2.67895 0.28479,4.95403 -3.28069,3.81666 -7.55216,-0.54518 -17.61525,2.40454 -18.15681,11.37084 -1.44428,7.30002 4.58434,14.68087 12.15625,13.84375 4.16354,0.46526 8.80804,-2.09102 11.3125,-4.15625 2.38195,5.00771 8.99132,4.15721 13.40625,2.9375 -0.009,-3.78149 1.29273,-8.93949 -3.8125,-6.875 -2.59496,-0.93048 -0.37083,-6.01931 -1.1875,-8.0625 0.28855,-7.47065 1.36395,-18.46188 -7.375,-21.71875 -2.65111,-1.04851 -5.52835,-1.35988 -8.375,-1.25 z m 6.03125,22.5625 c 0.42161,5.61073 -7.49319,11.06593 -11.875,6.96875 -2.32046,-4.04062 1.68724,-8.30611 5.875,-7.53125 1.57297,0.34637 5.94997,-1.27194 6,0.5625 z"
     id="path3876-1"
     inkscape:connector-curvature="0" />
  <path
     style="font-size:64.15940856999999653px;font-style:normal;font-variant:normal;font-weight:normal;font-stretch:normal;line-height:125%;letter-spacing:0px;word-spacing:0px;fill:#969696;fill-opacity:1;stroke:none;filter:url(#filter4000);font-family:Liberation Sans;-inkscape-font-specification:Liberation Sans"
     d="m 914.23125,318.8875 c -3.04751,-0.31064 -6.62565,1.56786 -8.625,2.71875 0.6657,-3.32288 -11.68025,-3.7412 -9.3125,0.4375 0.34777,11.7751 0.0649,23.5635 0.15625,35.34375 7.75501,1.54667 11.58955,-0.82712 9.625,-9 1.09756,-6.43524 -2.70175,-15.7236 3.375,-20.34375 3.17017,-1.93529 8.94145,-0.85878 8.28125,3.71875 0.23337,8.53578 0.0217,17.08457 0.0937,25.625 7.75625,1.52709 11.67869,-0.77965 9.6875,-9 -1.10692,-8.64762 2.73408,-19.4048 -3.59375,-26.59375 -2.56814,-2.41846 -6.2883,-3.0013 -9.6875,-2.90625 z"
     id="path3878-0"
     inkscape:connector-curvature="0" />
  <path
     style="font-size:64.15940856999999653px;font-style:normal;font-variant:normal;font-weight:normal;font-stretch:normal;line-height:125%;letter-spacing:0px;word-spacing:0px;fill:#969696;fill-opacity:1;stroke:none;filter:url(#filter4000);font-family:Liberation Sans;-inkscape-font-specification:Liberation Sans"
     d="m 945.98125,318.8875 c -9.44984,-0.22512 -15.88999,8.9376 -15.53125,17.8125 -0.99127,9.03033 3.38041,20.14121 13.53125,21.125 8.94877,1.98167 18.66443,-4.90245 18.3125,-14.375 -3.69374,0.45633 -10.33699,-2.99022 -10.1875,2.53125 -1.51275,5.76568 -11.11254,4.11973 -11.1875,-1.6875 -0.48803,-5.34265 -2.26076,-13.43909 3.21875,-16.625 4.20369,-1.72801 8.72186,1.06885 8.3125,5.875 3.36391,-1.06579 11.83144,1.60845 9.15625,-4.125 -1.6138,-6.92257 -8.72939,-11.19839 -15.625,-10.53125 z"
     id="path3880-5"
     inkscape:connector-curvature="0" />
  <path
     style="font-size:64.15940856999999653px;font-style:normal;font-variant:normal;font-weight:normal;font-stretch:normal;line-height:125%;letter-spacing:0px;word-spacing:0px;fill:#969696;fill-opacity:1;stroke:none;filter:url(#filter4000);font-family:Liberation Sans;-inkscape-font-specification:Liberation Sans"
     d="m 978.79375,318.8875 c -9.54196,-0.39349 -16.7369,8.70873 -16.27422,17.90471 -0.9502,8.95819 3.55059,19.89889 13.55547,20.90779 8.25131,1.74703 18.38726,-1.96929 20.28125,-11.03125 -4.01933,-0.74909 -9.06672,-4.60114 -10.375,0.78125 -4.03726,4.71014 -13.29033,2.18516 -13.28125,-4.375 1.50503,-3.47552 10.53148,-0.39312 14.8125,-1.4375 4.42384,-0.16188 11.0287,1.74757 9.0625,-4.75 0.39236,-8.98214 -6.11987,-18.42918 -15.8125,-18 -0.65565,-0.0259 -1.31332,-0.0553 -1.96875,0 z m 0.875,8.15625 c 3.68385,-0.40397 6.49862,2.78031 6.84375,6.25 -4.00621,-0.76507 -11.64717,1.47024 -13.59375,-1 0.78043,-3.16729 3.41794,-5.43408 6.75,-5.25 z"
     id="path3882-0"
     inkscape:connector-curvature="0" />
  <path
     style="font-size:110.82358551000000091px;font-style:normal;font-variant:normal;font-weight:bold;font-stretch:normal;line-height:125%;letter-spacing:0px;word-spacing:0px;fill:#969696;fill-opacity:1;stroke:none;filter:url(#filter3996);font-family:Liberation Sans;-inkscape-font-specification:Liberation Sans Bold"
     d="m 635.7,370.48125 c 0.61716,15.10314 -1.21114,30.416 0.84375,45.40625 1.39141,10.51711 11.98945,17.5056 22.1875,16.1875 6.03798,-0.24677 12.09497,-3.32385 15.5625,-8.15625 -0.88949,6.24235 2.25892,8.51873 8.4375,7.09375 4.03576,-0.86927 12.93812,2.77895 10.34375,-4.25 -0.63627,-19.41532 -0.10896,-38.85596 -0.28125,-58.28125 -6.39583,0 -12.79167,0 -19.1875,0 -0.68077,13.37924 1.37372,27.33813 -1.03125,40.375 -1.11558,6.64243 -10.56806,11.00422 -15.125,5.25 -4.81359,-8.18531 -1.54116,-18.68444 -2.53125,-27.78125 -0.65781,-5.62344 1.32275,-13.88525 -1,-17.84375 -6.07292,0 -12.14583,0 -18.21875,0 l 0,1 0,1 z"
     id="path3885-8"
     inkscape:connector-curvature="0" />
  <path
     style="font-size:110.82358551000000091px;font-style:normal;font-variant:normal;font-weight:bold;font-stretch:normal;line-height:125%;letter-spacing:0px;word-spacing:0px;fill:#969696;fill-opacity:1;stroke:none;filter:url(#filter3996);font-family:Liberation Sans;-inkscape-font-specification:Liberation Sans Bold"
     d="m 729.23125,367.41875 c -12.65711,-0.21815 -24.48494,8.88309 -27,21.375 -3.57703,14.3939 -0.63472,33.57127 14.1875,40.40625 14.07068,6.53587 34.65438,2.49538 40.84375,-13.03125 1.15317,-2.70312 1.65729,-5.62342 2.03125,-8.53125 -6.42744,-0.28321 -12.85525,-0.56116 -19.28125,-0.875 0.23517,5.80923 -4.10364,12.06865 -10.4375,10.90625 -8.17806,-1.36455 -8.60603,-11.63748 -8.6875,-18.1875 -0.0532,-6.697 0.85743,-17.68869 9.71875,-17.65625 5.59489,-0.51576 8.87403,4.89532 8.9375,9.96875 6.48925,-0.33983 12.97958,-0.65862 19.46875,-1 -1.16236,-12.09166 -11.29171,-22.27147 -23.46103,-23.15528 -2.09507,-0.22982 -4.21359,-0.29751 -6.32022,-0.21972 z"
     id="path3887-6"
     inkscape:connector-curvature="0" />
  <path
     style="font-size:110.82358551000000091px;font-style:normal;font-variant:normal;font-weight:bold;font-stretch:normal;line-height:125%;letter-spacing:0px;word-spacing:0px;fill:#969696;fill-opacity:1;stroke:none;filter:url(#filter3996);font-family:Liberation Sans;-inkscape-font-specification:Liberation Sans Bold"
     d="m 766.0125,348.73125 c 0,27.42708 0,54.85417 0,82.28125 6.40625,0 12.8125,0 19.21875,0 0.55806,-13.17837 -1.10003,-26.65673 0.78125,-39.65625 0.97583,-6.65994 9.90235,-11.70489 15.03125,-6.3125 5.44559,7.98803 1.81569,18.91816 2.90625,28.1875 0.65987,5.60054 -1.32603,13.84686 1,17.78125 6.05208,0 12.10417,0 18.15625,0 -0.6186,-15.76909 1.21276,-31.75413 -0.84375,-47.40625 -1.52085,-10.78184 -12.47389,-17.78016 -22.9375,-16.09375 -5.48666,0.42968 -10.79384,2.97648 -14.1875,7.375 0.20983,-9.38284 0.038,-18.77125 0.0937,-28.15625 -6.40625,0 -12.8125,0 -19.21875,0 l 0,1 0,1 z"
     id="path3889-3"
     inkscape:connector-curvature="0" />
  <path
     style="font-size:110.82358551000000091px;font-style:normal;font-variant:normal;font-weight:bold;font-stretch:normal;line-height:125%;letter-spacing:0px;word-spacing:0px;fill:#969696;fill-opacity:1;stroke:none;filter:url(#filter3996);font-family:Liberation Sans;-inkscape-font-specification:Liberation Sans Bold"
     d="m 858.54375,367.41875 c -12.73257,-0.29839 -24.80881,8.65676 -27.0625,21.34375 -3.01774,14.23439 -0.83705,32.98618 13.5625,40.25 13.62744,6.36171 33.78923,3.52386 40.5625,-11.34375 2.55998,-3.84608 2.21401,-6.63531 -3.39492,-5.7292 -4.23246,0.83076 -12.09706,-3.65662 -13.66758,1.1042 -2.81415,7.98231 -16.27339,5.73315 -17.28125,-2.5625 -1.93732,-4.65836 -0.26749,-7.23233 5.125,-5.8125 10.5,0 21,0 31.5,0 0.59491,-13.30233 -2.87728,-29.89596 -16.65625,-35.28125 -4.00571,-1.62961 -8.3705,-2.13344 -12.6875,-1.96875 z m 0.75,13.5625 c 5.74264,-0.66682 9.42817,5.02221 9.65625,10.15625 -5.89561,-0.33884 -13.31995,0.66074 -18.3125,-0.46875 0.30789,-4.77412 3.33335,-9.83574 8.65625,-9.6875 z"
     id="path3891-7"
     inkscape:connector-curvature="0" />
  <path
     style="font-size:110.82358551000000091px;font-style:normal;font-variant:normal;font-weight:bold;font-stretch:normal;line-height:125%;letter-spacing:0px;word-spacing:0px;fill:#969696;fill-opacity:1;stroke:none;filter:url(#filter3996);font-family:Liberation Sans;-inkscape-font-specification:Liberation Sans Bold"
     d="m 917.7,367.41875 c -10.43607,0.0328 -22.87257,5.86829 -23.65625,17.53125 -1.63947,9.55195 5.88828,18.12344 14.95829,19.97331 6.90546,2.90527 15.58204,1.80362 21.41671,6.68294 2.29135,4.61011 -3.88935,6.71653 -7.46875,6.375 -5.60587,0.53412 -13.70155,0.15106 -14.28999,-7.02845 -4.5758,-1.18339 -11.73536,1.48413 -17.31268,1.79521 0.61577,8.70601 8.58556,17.03245 17.69642,18.29574 12.39508,2.0848 28.31894,2.18314 36.65625,-8.8125 6.49641,-9.09503 2.61058,-23.47887 -8.1875,-27.28125 -7.84308,-3.83282 -17.40752,-3.1509 -24.875,-7.5 -2.59287,-3.01591 1.59939,-6.29405 4.625,-5.78125 4.97733,-0.84983 12.74138,-0.37323 12.93633,6.23249 4.45652,1.50424 11.85883,-0.91495 17.45699,-0.99083 -0.27682,-10.50633 -10.64455,-18.63296 -20.98707,-19.17916 -2.94542,-0.44729 -5.98474,-0.44027 -8.96875,-0.3125 z"
     id="path3893-6"
     inkscape:connector-curvature="0" />
  <path
     style="font-size:110.82358551000000091px;font-style:normal;font-variant:normal;font-weight:bold;font-stretch:normal;line-height:125%;letter-spacing:0px;word-spacing:0px;fill:#969696;fill-opacity:1;stroke:none;filter:url(#filter3996);font-family:Liberation Sans;-inkscape-font-specification:Liberation Sans Bold"
     d="m 979.3875,367.41875 c -10.43884,0.0312 -22.83914,5.86064 -23.65625,17.53125 -1.63649,9.54325 5.87549,18.1298 14.95829,19.97331 6.86994,2.91065 15.53455,1.79167 21.35421,6.62044 2.45498,4.58209 -3.80421,6.82997 -7.40625,6.4375 -5.62587,0.54922 -13.67372,0.12465 -14.28999,-7.02845 -4.5758,-1.18339 -11.73536,1.48413 -17.31268,1.79521 0.61577,8.70601 8.58556,17.03245 17.69642,18.29574 12.39508,2.0848 28.31894,2.18314 36.65625,-8.8125 6.494,-9.09514 2.6176,-23.47832 -8.1875,-27.28125 -7.9048,-3.86155 -17.35225,-3.17861 -24.875,-7.5 -2.58293,-3.01067 1.59448,-6.29923 4.625,-5.78125 4.99716,-0.84855 12.72178,-0.38726 12.93633,6.23249 4.45652,1.50424 11.85887,-0.91495 17.45697,-0.99083 -0.2658,-10.54378 -10.68206,-18.62055 -21.0183,-19.21041 -2.96304,-0.38224 -5.95583,-0.42669 -8.9375,-0.28125 z"
     id="path3895-5"
     inkscape:connector-curvature="0" />
  <path
     style="fill:#969696;fill-opacity:1;stroke:none;filter:url(#filter4008)"
     d="m 493.075,300.04375 c 0,46.26042 0,92.52083 0,138.78125 12.38321,-7.24259 27.54481,-3.19175 41.075,-2.58191 14.71455,1.61011 29.70899,1.93074 44.425,0.67566 21.39462,-3.95315 35.18906,-24.01855 42.03125,-43.25 10.48521,-25.88453 5.14629,-57.30348 -12.96875,-78.46875 -10.31108,-12.25318 -26.40161,-18.84378 -42.40625,-17.15625 -21.5961,-1.64697 -43.05866,5.0589 -64.5625,1.90625 -2.71767,0.55653 -8.03813,-5.52913 -7.59375,-1.21875 l 0,1 0,0.3125 z m 51.875,16.875 c 13.80745,-0.84812 27.79064,7.43484 32.1875,20.71875 5.93906,16.20297 5.09292,34.12318 3.15625,50.96875 -1.35838,12.03828 -10.30281,22.98859 -22.65902,24.92446 -6.02268,1.34674 -12.39784,1.21656 -18.59098,1.13804 -0.0625,-32.59375 -0.125,-65.1875 -0.1875,-97.78125 2.03125,0.0104 4.0625,0.0208 6.09375,0.0312 z"
     id="rect3071-2"
     inkscape:connector-curvature="0" />
  <path
     style="fill:#969696;fill-opacity:1;filter:url(#filter4228)"
     d="m 341.1625,56.51875 c -6.23103,2.120746 -8.46655,9.479632 -12.9375,13.84375 -10.68606,13.924791 -19.75533,29.166382 -26.0303,45.51273 -3.37706,9.30808 -5.97781,19.15169 -5.5322,29.17477 -26.92695,-23.93352 -62.1764,-35.08255 -96.55281,-43.29514 -6.54636,-2.002711 -14.54503,-0.31751 -16.98658,6.90121 -10.18029,21.6668 -14.85202,45.59817 -18.17936,69.14393 -4.44933,30.9946 1.38179,63.01201 13.42822,91.82837 4.01343,9.78819 9.28514,23.44995 22.13294,22.75466 34.5755,0.88611 69.96045,-6.86229 99.65759,-24.95803 2.42804,-0.59124 10.28995,-8.90665 7.37027,-3.04 -8.87038,20.06024 -19.24949,39.29564 -27.85503,59.54186 -10.66799,21.64407 -18.47497,44.55699 -28.79288,66.33287 -8.89296,19.26276 -13.86416,39.94912 -22.78431,59.14869 -8.92151,14.21787 -19.89002,27.19417 -34.00055,36.51658 -11.71381,8.31171 -24.61398,14.98976 -35.5625,24.25 -7.7324,4.06711 -13.6372,10.82207 -21.28125,14.96875 -5.04008,3.60334 -6.79591,10.66516 -3.15625,15.875 6.70185,10.79525 13.10529,21.99571 18.78125,33.25 0.29612,6.65322 -3.78623,14.72399 2.77816,19.54231 2.56592,5.44465 1.25501,12.49231 0.84684,18.42644 -1.97622,6.54467 -10.58989,4.53823 -15.71875,6.46875 -4.20214,0.71251 -7.93796,3.25793 -7.375,8 -1.38334,4.14189 1.34734,8.13233 2.96875,11.75 6.06355,6.34472 14.67604,9.77555 23.34375,10.03125 6.57018,0.71399 13.31388,-0.15723 19.90625,-0.6875 -1.73062,17.62834 -2.86201,37.74293 8.0625,52.625 6.75334,8.35603 19.28181,8.75492 29.25,7.59375 17.86638,-2.6385 33.61281,-12.76599 48.5,-22.3125 16.90378,-11.00024 35.77191,-19.873 56.17711,-21.5019 20.43675,-2.24444 41.69419,-0.86786 60.4229,8.09846 13.08978,6.01636 26.84741,11.61944 37.01387,22.05744 9.91314,8.57429 19.19267,20.46603 33.51112,20.6585 9.72258,0.74478 20.44434,-1.80853 26.15625,-10.3125 9.89644,-10.77133 11.11183,-25.776 14.6875,-39.40625 0.44609,-5.42135 0.625,-10.86467 1.125,-16.28125 7.99962,1.59262 16.13958,1.25243 24.125,0 6.50949,-1.60489 12.49791,-5.86801 17.03125,-10.8125 2.02423,-4.63666 3.42039,-10.64806 0.125,-15.03125 -2.67745,-5.71663 -8.85596,-7.96405 -14.78125,-8.21875 -3.2588,-8.78435 -5.45291,-19.12143 -0.625,-27.78125 2.04919,-3.51525 5.4147,-6.63182 4.40625,-11.25 -1.44651,-6.74758 6.59058,-9.69373 9.88301,-14.42207 5.10161,-5.95293 11.91699,-11.72613 13.21074,-19.73418 -0.58175,-8.7339 -9.03644,-12.96614 -13.90625,-19.1875 C 516.68829,507.81587 499.512,492.84192 481.6,478.7375 c -8.01759,-7.47935 -15.72978,-15.34959 -20.625,-25.28125 -10.11848,-14.45144 -12.30441,-32.3847 -19.41587,-48.26683 -8.79659,-21.83758 -16.84274,-43.96244 -27.99038,-64.67067 -9.55356,-20.5374 -20.281,-40.4739 -32.21839,-59.89195 -1.27896,-3.00492 -9.32525,-13.95845 -2.45853,-8.39771 23.73005,14.12195 51.66242,19.29721 78.83085,21.07343 8.62912,-0.23646 20.57823,3.56569 25.75232,-5.78377 8.76191,-13.72866 13.8339,-29.58685 17.96875,-45.25 6.90656,-27.73153 7.71361,-57.38817 1.2469,-85.47228 -4.90157,-19.51098 -9.13585,-39.52297 -16.9723,-58.017423 -2.87183,-9.698654 -14.22748,-10.491889 -22.53065,-8.568822 -29.71133,4.839293 -56.23816,21.687445 -76.44464,43.654045 -3.59323,5.083 -3.75476,2.1744 -4.29931,-1.84552 -7.23213,-25.4943 -18.22796,-50.174391 -32.90625,-72.28125 -2.4284,-2.783289 -4.71165,-3.672933 -8.375,-3.21875 z M 234.69375,442.925 c -2.99293,4.81561 -2.60772,-2.79666 0,0 z M 482.85,504.20625 c 9.97558,6.53618 20.04011,13.30474 28.46875,22 5.68613,4.8736 14.75309,11.63635 9.88035,20.26166 -3.23114,7.06052 -10.77009,11.02555 -16.06785,16.17584 -6.08864,1.44616 -13.34659,2.64205 -16.4375,8.84375 -1.7344,0.6351 -1.67494,-7.19412 -2.84375,-9.875 -3.62177,-13.31945 -7.3277,-26.88888 -8.97057,-40.55938 0.80518,-5.69275 3.66447,-11.55897 5.97057,-16.84687 z m -283.53125,1.40625 c 5.63988,7.09207 6.87954,16.80249 3.76446,25.29141 -2.62599,12.08717 -7.31809,23.72156 -9.66633,35.732 -0.84824,1.89191 -1.71446,4.1335 -2.25438,5.85159 -2.0451,-6.06136 -9.01823,-6.93417 -14.375,-8.46875 -3.26477,-0.58356 -7.57067,2.68166 -9.21875,-1.59375 -5.65961,-8.35679 -13.93986,-16.60548 -14.21875,-27.15625 3.00306,-4.17229 9.45607,-5.29194 13.21875,-8.96875 10.59098,-7.24915 21.56238,-14.50571 32.75,-20.6875 z"
     id="path2466-0"
     inkscape:connector-curvature="0" />
  <path
     style="fill:#040202"
     d="M 424.625 67.34375 C 423.37656 67.403125 421.19375 69.70625 420.3125 70.75 C 417.025 73.7625 418.36875 73.41875 415.59375 76.90625 C 414.18125 78.81875 411.7125 81.69375 410.3125 83.59375 C 409.4625 84.85625 404.63125 91.125 403.78125 92.375 C 399.28125 99.9125 402.7375 93.425 398 100.8125 C 396.875 102.6625 394.24375 107.03125 393.15625 108.90625 L 388.9375 117.125 C 386.77549 120.62521 385.55583 122.06403 384.03125 125.90625 L 379.21875 136.71875 C 378.39375 138.78125 377.0625 143.3375 376.1875 145.375 L 372.8125 157.09375 L 371.5625 167.0625 C 370.95 174.4875 371.50625 171.8625 371.21875 179.3125 L 367.75 177.90625 L 361.6875 172.75 L 354.84375 167.5625 L 346.40625 161.625 L 336.46875 155.59375 L 326.0625 149.96875 L 315.15625 145.125 L 304 140.5625 L 292.21875 136.46875 L 281.78125 133.15625 L 269.875 129.4375 L 258.28125 126.34375 L 249 124.03125 L 242.625 123.15625 C 240.66937 122.98372 240.64313 123.17203 238.6875 123 C 237.70231 123.10713 236.70394 123.73662 235.71875 123.84375 L 233.25 125.21875 L 230.25 129 L 226.84375 135.40625 L 224 142.65625 L 220.46875 152.90625 L 216.53125 166.0625 C 215.45456 169.68688 214.01428 176.83412 213.09375 180.5 C 212.83125 181.8625 210.825 190.98125 210.5625 192.34375 C 210.125 194.00625 208.4875 204.40625 208.125 206.09375 C 207.4625 208.49375 206.475 219.94375 205.8125 222.34375 C 205.5375 224.06875 205.2625 236.275 205 238 L 204.96875 255 L 206.5 270.15625 C 206.775 271.43125 209.05 284.7125 209.3125 286 L 213.03125 300.875 L 216.84375 313.21875 L 220.53125 323.34375 L 224.46875 333.28125 L 228.15625 341.21875 L 231.09375 346.71875 L 234.125 351 L 236.5 353.1875 L 239.5625 355.375 L 242.9375 356.59375 L 247.5 357.125 L 252.78125 357.40625 L 257.9375 357.5 L 265.25 357.28125 L 274.125 356.59375 L 285.6875 355.375 L 299.21875 353.4375 L 312.0625 350.6875 L 324.75 347.15625 L 336.90625 343.28125 L 346.40625 339.53125 L 354.875 335.6875 L 363.5 331.3125 L 371.8125 326.40625 L 378.34375 322.09375 C 378.9625 321.6 383.33485 318.25044 385.59375 316.84375 C 387.85265 315.43706 387.99375 315.98125 388.625 315.5 L 383.78125 328.15625 L 378.9375 338.84375 C 377.675 341.74375 374.84375 346.59375 373.53125 349.46875 C 371.55399 353.08521 370.07181 357.8048 367.84375 361.21875 L 361.875 373.53125 L 355.59375 387.625 L 349.03125 402 C 348.09375 404.425 343.1 414.825 342 417.1875 C 339.23396 422.99694 338.40853 424.79792 336.03125 430.78125 C 334.78125 433.69375 332.525 440.09375 331.3125 443.03125 C 329.5125 446.71875 327.7625 450.93125 326.3125 454.78125 C 326.025 455.43125 320.425 468.725 320.125 469.375 C 314.9375 480.7375 316.4875 476.41875 311.875 488.03125 C 309.78527 492.65865 306.29379 501.31137 304.5 506.0625 C 302.02625 513.60798 300.20705 516.85014 298.3125 524.59375 C 297.7375 526.13125 293.7 536.7 293.125 538.25 C 291.5 542.4125 283.37939 563.57541 285.90625 556.34375 L 277.46875 568.78125 L 271.15625 576.84375 C 267.4271 581.21349 272.5278 575.91129 262.6875 586.8125 L 253.46875 594.9375 L 242.15625 603.625 C 233.73021 609.95986 237.2587 607.15516 228.0625 612.78125 C 220.18711 617.71973 215.8125 621.04375 213.5625 622.09375 C 211.0875 623.34375 199.53125 632.95625 197.09375 634.28125 C 187.80625 639.36875 188.29375 640.7 179.78125 647 C 170.99375 653.15 173.0625 649.50625 166.375 658.21875 C 165.0625 662.04375 165.9625 662.05 166.1875 666.0625 C 167.1125 668.875 173.625 678.175 174.875 680.875 L 181.9375 693.46875 L 191.5 710.46875 C 191.9 714.29375 191.4375 718.1875 190.5625 721.9375 C 190.4875 723.975 190.5 728.0125 190.5 730.0625 L 196.21875 736.96875 C 197.14375 744.49375 197 752.11875 196.3125 759.65625 C 195.1625 761.85625 194.4625 764.6 192.1875 765.9375 C 184.625 769.6875 175.30625 768.00625 168.15625 772.71875 C 167.65625 774.05625 167.1625 779.4 166.625 780.75 C 166.65 783.225 168.68125 785.21875 168.84375 787.71875 C 170.66875 792.00625 171.75 792.01875 175.375 794.90625 C 178.7125 797.09375 182.2375 799.01875 185.9375 800.53125 C 187.5625 801.04375 197.7 802.05625 199.3125 802.65625 L 211.1875 802.4375 L 225.0625 801.21875 C 225.4625 803.48125 223.35 819.74375 223.6875 822.03125 C 223.97084 828.29791 223.40965 834.7677 224.53125 840.84375 C 224.884 842.75468 225.3587 847.66015 227.03125 853 C 228.7038 858.33984 231.43682 863.90957 232.6875 865.75 C 233.93818 867.59043 236.4643 870.67157 238.0625 871.90625 L 244.875 875.28125 L 255.71875 877.21875 C 261.575 877.6875 267.39219 877.18594 273.09375 876.03125 C 278.79531 874.87656 284.36875 873.075 289.78125 870.9375 C 296.74345 867.38091 304.0226 864.43383 310.6875 860.3125 C 317.4875 857.0375 323.01875 851.6375 329.90625 848.5 C 337.19375 844.0625 337.51875 843.16875 345.15625 839.34375 C 348.84076 837.48041 355.59716 833.76999 359.5 832.40625 C 361 831.76875 371.00625 827.68125 372.53125 827.09375 L 387.09375 823.84375 L 402.625 821.59375 L 420.875 820.875 C 420.875 820.875 432.69285 820.821 438.5 821.46875 C 444.30716 822.1165 451.12236 823.966 455.15625 824.8125 C 463.1989 826.50024 471.40625 830.09375 471.40625 830.09375 C 476.12871 831.98121 483.92561 835.6971 488.5625 837.78125 C 491.6875 839.34375 498.39375 842.8125 501.59375 844.25 C 508.58125 847.775 509.45 848.64375 515.625 853.46875 C 520.60625 857.89375 527.71562 863.77031 532.5 868.4375 C 537.28438 873.10469 542.25 877.55 547.96875 881.09375 C 553.5875 884.04375 559.87812 885.46406 566.21875 885.59375 C 572.55938 885.72344 578.96875 884.55625 584.8125 882.3125 C 589.09375 879.6 592.56875 876.06875 595.59375 872.125 C 598.61875 868.18125 601.19375 863.84375 603.625 859.53125 C 603.925 858.91875 607.53125 845.14375 607.84375 844.53125 L 612.1875 826 C 612.575 825.15 613.35 802.45625 614.25 802.59375 C 629.4875 805.40625 622.01875 803.35 630.03125 804.25 C 634.54375 804.95 633.7125 804.13125 646.1875 802.90625 C 647.28128 803.8466 658.53125 796.90625 658.53125 796.90625 C 663.34375 791.98125 661.975 795.38125 666.3125 789.46875 C 666.3125 789.46875 667.925 779.59375 668 779.03125 C 663.7625 771.15625 667.8625 778.38125 663.875 771.40625 C 657.7875 766.46875 657.46875 766.84375 657.46875 766.84375 C 656.74375 766.69375 647.375 765.125 647.375 765.125 C 645.03896 757.68374 645.24925 760.93885 643.1875 749.53125 C 641.8 739.89375 642.5 740.26875 643 735.28125 C 646.925 726.15625 645.78125 727.875 646.21875 727.25 C 648.31875 721.725 650.675 723.30625 651.4375 717.53125 C 651.6625 715.25625 651.36875 709.96875 651.59375 707.71875 C 655.99375 702.725 660.80781 698.12813 665.5 693.40625 C 670.19219 688.68437 675.275 681.85 679.15625 676.40625 C 679.71041 674.07291 679.75834 673.73959 680.3125 671.40625 L 678.75 665.0625 C 675.89166 661.11875 669.73334 656.225 666.875 652.28125 C 661.84375 647.30625 661.6447 647.20325 651.53125 638.90625 C 640.09947 629.52769 640.55016 628.68005 632.71875 622.84375 L 621.375 612.875 C 614.9562 608.33496 607 601.46875 607 601.46875 C 600.95461 596.9619 600.45539 596.32536 595.09375 591.625 C 589.35841 585.72379 587.67518 583.50758 583.15625 579.375 L 574 567.09375 C 578.86086 573.83619 574.15374 565.14315 569.59375 558.625 L 563.03125 546.53125 C 561.76875 542.79375 560.6125 538.50625 559.3125 534.78125 C 559.125 534.06875 555.75 524.66875 555.5625 523.96875 L 551.71875 512.21875 C 549.42177 506.14175 546.89421 499.49198 544.15625 493.59375 L 538.6875 479.03125 C 537.8375 476.91875 533.71875 466.575 532.84375 464.5 C 531.73125 461.9125 527.89375 452.5625 526.90625 449.9375 C 523.12354 441.42311 524.01195 444.83184 520.3125 436.28125 C 518.3 431.61875 513.93125 423.75 511.84375 419.125 C 509.90625 415.15 506.56875 408.89375 504.84375 404.84375 C 503.15625 400.88125 499.70625 394.675 497.96875 390.75 C 496.44625 387.95922 492.93948 381.64741 491.625 378.75 L 484.90625 367.46875 L 477.625 354.875 L 470.625 342.96875 L 465.75 333.90625 C 463.92384 330.50104 460.40535 324.97626 460.6875 324.40625 L 474.125 333.125 L 486 339.625 L 497.21875 344.15625 L 509.9375 348.28125 L 525 352.15625 C 527.15 352.45625 538.575 354.9625 540.75 355.25 C 543.975 355.9125 550.775 356.39375 554 357.09375 L 567.75 358.21875 L 580.71875 358.84375 L 591.03125 358.8125 L 594.25 357.90625 L 597.59375 355.75 L 600.28125 352.1875 L 604.125 346.40625 L 607.3125 339.71875 L 610.78125 331.78125 L 614.40625 322.21875 L 618.625 310.125 C 620.7625 303.8 620.6375 302.85625 622.375 296.40625 C 623.2875 292.69375 625.20625 283 626.21875 279.3125 C 626.61875 276.825 627.86875 265.28125 628.21875 262.78125 L 629.34375 243.0625 C 629.41875 236.4375 629.375 226.10625 628.625 219.53125 L 626.28125 202.9375 L 623.25 187.28125 L 618.8125 169.90625 L 615 155.71875 L 611.71875 143.46875 L 608.4375 133.78125 L 605.8125 124.9375 L 603.46875 119.90625 L 601.21875 115.3125 L 599.03125 112.3125 L 596.90625 110.78125 L 594.3125 109.53125 L 591.03125 108.65625 L 586.125 108.5625 L 579.84375 109.03125 L 573.75 110 L 568.75 111.0625 L 561.875 112.96875 L 550.65625 116.59375 C 550.00625 116.7875 545.71018 118.49156 541.0625 120.53125 C 536.41484 122.57094 532.48125 124.95 531.84375 125.15625 L 522.40625 130.40625 L 513.875 136 L 505.9375 142.15625 L 496.40625 150.21875 L 485 161.59375 L 475.59375 170.53125 C 474.69375 166.46875 474.4 165.41875 474.0625 161.28125 C 473.0875 158.04375 471.7125 152.26875 470.5625 149.09375 C 469.875 147.29375 467.175 139.51875 466.5 137.71875 C 465.7 135.64375 462.91875 128.55625 462.15625 126.46875 C 459.98125 121.53125 458.475 117.24375 456.25 112.34375 C 455.2125 109.73125 450.675 101.6375 449.6875 99 C 446.3875 92.075 444.55625 90.40625 441.28125 83.46875 C 438.8125 79.175 436.37031 75.809375 435.09375 73.6875 C 434.45547 72.626562 434.1041 71.861325 433.4375 70.96875 C 432.7709 70.076175 431.2875 69.046876 429.375 67.40625 C 428.1875 67.475 425.87344 67.284375 424.625 67.34375 z M 600.96875 622 C 603.28435 621.76791 603.86808 622.75459 610.96875 627.75 C 619.54881 634.29303 617.66401 631.28149 624.8125 637.875 C 635.48821 645.79328 632.9237 644.97854 641.59375 652.625 C 649.28541 659.40858 649.34375 659.5 652.59375 665.09375 L 654.09375 671.59375 L 651.34375 679.65625 C 647.65625 685.76875 643.91875 688.6625 638.21875 693.0625 C 635.96875 695.3625 633.675 697.61875 631.25 699.71875 C 627.65625 700.25625 624.11563 701.575 622.03125 702.09375 C 619.94687 702.6125 614.80625 703.81875 613.0625 707.21875 C 611.875 707.93125 608.2 714.6625 607 715.375 C 606.05 713.8875 603.1 695.9125 602.1875 694.4375 L 598 678.5625 C 595.5625 670.2125 594.39375 659.1625 591.78125 650.875 L 591.5 643.15625 C 593.19851 639.40661 594.22234 635.17658 595.71875 631.34375 L 599.84375 622.1875 C 600.26875 622.11406 600.63795 622.03316 600.96875 622 z M 248.8125 622.4375 C 248.61541 622.54741 247.6875 623.03125 247.6875 623.03125 C 251.85 627.30625 253.80167 632.99189 255.875 637.96875 C 255.83637 643.52296 257.29688 644.58437 256.3125 648.8125 C 255.32812 653.04063 253.81875 661.2125 252.78125 665.34375 C 250.74375 672.81875 248.48125 678.71875 246.28125 686.15625 C 244.09375 695.13125 244.325 696.11875 241.625 704.96875 C 240.65 704.94375 238.1625 716.41875 237.1875 716.40625 C 235.6375 712.98125 234.05625 708.8375 231.53125 706.0625 C 230.94375 705.65 223.79375 703.35 223.21875 702.9375 C 217.58125 700.5125 215.4125 702.35 209.5 702.75 C 207.8375 703.1375 195.8125 685.23125 194.875 684.15625 C 189.3654 674.32584 191.57485 679.62273 186.9375 667.15625 C 187.0625 663.73125 186.80075 661.11323 189.65625 659.46875 C 190.03125 659.23125 200.90625 652.75 201.28125 652.5 C 213.01423 644.24266 201.43795 651.62849 213.59375 644.1875 C 224.86264 635.87824 213.83361 644.55458 224.34375 636.84375 L 235.1875 630.21875 C 237.5955 628.93159 245.53125 624.09375 245.53125 624.09375 C 248.47267 622.59633 249.00959 622.32759 248.8125 622.4375 z "
     transform="matrix(0.79999999,0,0,0.79999999,-1.1329586e-5,0)"
     id="path2466" />
  <path
     d="m 425.25092,113.43694 9.99618,-6.23219 10.51664,-5.13179 11.12732,-3.414419 7.30894,-1.01026 4.74965,0.57013 2.94759,1.09256 2.10114,3.175359 3.26229,7.57326 4.77676,14.68652 c 1.14597,3.52337 2.35924,10.11472 4.54954,17.79451 2.1903,7.67979 3.94042,15.6349 4.58542,19.2849 1.45,7.6 2.14853,15.35 2.47853,23.03 0.63,7.66 -0.33,14.97 -0.74,22.66 -0.7,7.5 -2.07,14.91 -3.17,22.36 -1.59,7.89 -4.28,15.51 -6.87,23.12 -2.55,6.45 -4.46,13.37 -8.8,18.92 -1.43,2 -3.93,2.84 -6.3,2.98 -8.98,0.51 -17.93,-0.64 -26.85,-1.42 -6.24,-0.615 -12.425,-1.645 -18.54375,-2.98875 -6.11875,-1.34375 -12.17125,-3.00125 -18.14625,-4.87125 -7.83,-2.43 -14.84,-6.85 -21.74,-11.16 -5.44,-3.59 -11.07,-7.33 -14.86,-12.75 -1.92,-2.79 0.26,-6.01 1.23,-8.72 1.825,-4.145 2.8375,-8.6275 2.98125,-13.13125 0.14375,-4.50375 -0.58125,-9.02875 -2.23125,-13.25875 -2.09,-4.58 -5.11,-8.64 -7.62,-12.97 2.87,-6.44 6.15,-12.71 9.82,-18.73 4.3,-6.53 7.87,-13.5 12.22,-20 5.25,-8.285 11.145,-16.3725 17.9325,-23.545 6.7875,-7.1725 14.4675,-13.28858 23.2875,-17.91358 z"
     id="path2468"
     sodipodi:nodetypes="cccccccccssccccccccsccccsccccsc"
     inkscape:connector-curvature="0"
     style="fill:#bb0000;fill-opacity:1" />
  <path
     d="m 194.31229,111.9442 2.51452,-1.02437 2.48172,-0.60132 3.55492,0.0972 5.81767,1.22853 12.90812,3.72985 13.81543,5.3321 20.64125,8.87187 15.255,9.6875 c 3.19,2.61 7.76188,6.7325 12.17719,11.00328 4.41531,4.27078 8.67406,8.68984 11.23781,11.89297 5.1275,6.40625 9.875,13.14875 14.735,19.71375 1.98,3.33 5.53,6.57 4.81,10.77 -2.38,3.335 -4.81,6.755 -6.79875,10.38125 -1.98875,3.62621 -3.53625,7.45871 -4.15125,11.61871 -0.39,3.86 -0.08,8.6 0.58,12.43 1.12,4.11 3.02,6.95 4.68,10.85 -3.385,2.705 -8.6475,6.14187 -13.99687,9.45938 -5.34938,3.31749 -11.37817,6.50735 -15.31813,8.34312 l -14.825,6.9075 c -4.49,1.435 -12.03796,4.38269 -16.61892,5.45625 l -10.35541,2.42683 -9.22405,1.57829 -9.68275,1.53949 c -1.38798,0.22068 -5.52886,0.73162 -8.4748,0.93644 -2.94595,0.20481 -4.98362,-0.0633 -6.13643,-0.063 -2.30562,7.8e-4 -0.65646,-0.26689 -3.46896,-0.45439 l -3.32221,-1.49091 c -1.32,-1.04125 -2.73784,-2.25483 -3.76784,-3.51483 l -3.5641,-6.68734 -3.56409,-9.23292 -3.08044,-10.66391 -4.2875,-16.95375 -2.5025,-17.36625 c -0.55,-9.32 0.05,-6.65 -0.17,-15.97 -0.1,-2.86 0.245,-10.905 0.70625,-16.14125 0.46125,-5.23625 1.43875,-15.66375 1.80375,-18.48875 0.88,-6.25 2.13,-9.84 3.81,-15.96 l 3.14437,-10.46883 2.19461,-6.84373 2.65294,-6.2503 2.08725,-3.70471 1.7022,-2.37375 z"
     id="path2470"
     sodipodi:nodetypes="cccccccccssccscccsscsccssscscccccccsccccccc"
     inkscape:connector-curvature="0"
     style="fill:#bb0000;fill-opacity:1" />
  <path
     d="m 330.85092,198.61552 c 6.74,-1.61 14.35,-0.68 19.74,3.96 5.375,3.935 8.29,10.355 8.62625,16.91 0.33625,6.555 -1.90625,13.245 -6.84625,17.72 -5.4,5.92 -14.3,6.63 -21.71,5.05 -5.11,-0.97 -8.88,-4.96 -12.06,-8.79 -4.54,-5.51 -4.15,-13.28 -3.24,-19.93 2.22,-7.08 7.84,-13.72 15.49,-14.92 z"
     id="path2472"
     sodipodi:nodetypes="ccsccccc"
     inkscape:connector-curvature="0"
     style="fill:#bb0000;fill-opacity:1" />
  <path
     d="m 328.29092,385.40552 c 4.665,-0.65 9.3925,-1.13 14.11375,-1.1925 4.72125,-0.0625 9.43625,0.2925 14.07625,1.3125 6.01,1.335 12.06,2.9425 17.84125,5.17375 5.78125,2.23125 11.29375,5.08625 16.22875,8.91625 4.165,3.57 8.335,7.3825 11.89,11.645 3.555,4.2625 6.495,8.975 8.2,14.345 1.98,6.79 2.93,13.93 2.41,20.99 -1.16,7.955 -4.31,15.365 -8.77125,21.94125 -4.46125,6.57625 -10.23375,12.31875 -16.63875,16.93875 -4.57,3.235 -9.5025,6 -14.6875,8.125 -5.185,2.125 -10.6225,3.61 -16.2025,4.285 -8.01,0.35 -16.09,0.45 -24.06,-0.46 -5.995,-0.955 -12.0775,-2.1025 -17.92125,-3.905 -5.84375,-1.8025 -11.44875,-4.26 -16.48875,-7.835 -4.035,-2.84 -7.9825,-5.98 -11.44125,-9.5525 -3.45875,-3.5725 -6.42875,-7.5775 -8.50875,-12.1475 -2.57,-5.62 -4.5775,-11.65 -5.585,-17.80375 -1.0075,-6.15375 -1.015,-12.43125 0.415,-18.54625 1.37,-4.4 3.3175,-8.615 5.73375,-12.5475 2.41625,-3.9325 5.30125,-7.5825 8.54625,-10.8525 3.57,-3.88 7.6,-7.42 12.42,-9.66 4.485,-2.18 9.115,-4.115 13.8625,-5.68375 4.7475,-1.56875 9.6125,-2.77125 14.5675,-3.48625 z"
     id="path2474"
     sodipodi:nodetypes="cscscsccscsccscscscsccsc"
     inkscape:connector-curvature="0"
     style="fill:#bb0000;fill-opacity:1" />
  <path
     d="m 297.75092,402.91552 c 0.95875,-0.69375 1.95438,-1.32063 2.98063,-1.8841 1.02625,-0.56348 2.08312,-1.06356 3.16437,-1.50371 1.08125,-0.44016 2.18688,-0.82039 3.31063,-1.14418 1.12375,-0.32379 2.26562,-0.59113 3.41937,-0.80551 1.15375,-0.21438 2.31937,-0.37578 3.49062,-0.4877 1.17125,-0.11191 2.34813,-0.17433 3.52438,-0.19074 1.17625,-0.0164 2.35188,0.0132 3.52063,0.0854 1.16875,0.0722 1.5417,0.18684 2.69045,0.34059 l 1.68481,0.49021 1.57209,0.94102 c 0.24176,0.14472 1.51084,1.33195 1.51084,1.33195 l 1.10268,1.52546 0.87727,1.4691 0.56474,1.56065 0.33934,1.33525 0.20674,2.24548 -0.0187,1.85102 -0.20636,2.23689 -0.45497,2.13189 -0.84945,2.63905 -2.00105,3.33007 c -0.63622,0.76062 -1.8792,2.04686 -2.58765,2.71084 -0.70846,0.66398 -1.44591,1.26921 -2.1981,1.79484 -0.75218,0.52562 -1.73574,1.07717 -2.72112,1.77917 -0.98538,0.702 -1.74716,0.87822 -2.73203,1.32941 0,0 -1.69951,0.46664 -2.85764,0.80046 -1.15812,0.33382 -1.51021,0.34767 -2.37053,0.51076 l -2.75328,0.35051 c -0.75298,-10e-4 -1.79015,-0.0223 -2.14807,0.009 -0.35791,0.0315 -1.35916,-0.0453 -2.20253,-0.0842 -0.84337,-0.0389 -1.58521,-0.0961 -2.43865,-0.13834 -0.85344,-0.0422 -1.4511,-0.23912 -2.24448,-0.364 -0.79338,-0.12488 -1.55705,-0.29041 -2.29168,-0.49516 -0.73463,-0.20475 -1.36978,-0.51917 -2.00469,-0.84325 -0.63492,-0.32407 -1.15691,-0.71415 -1.89066,-1.1829 l -1.36612,-1.41682 -1.02801,-1.24776 -0.77442,-1.33229 -0.77443,-1.33228 -0.64456,-2.03059 -0.1374,-2.19963 0.17601,-2.65238 0.49288,-1.89341 0.54924,-1.72435 0.97186,-1.72435 1.02822,-1.55529 c 0.5734,-0.86733 1.20067,-1.68956 1.95261,-2.44381 0.75197,-0.75408 1.60617,-1.45477 2.56617,-2.12227 z"
     id="path2476"
     sodipodi:nodetypes="csssssssccsccccccccccsssssszssscssscccccccccccssc"
     inkscape:connector-curvature="0"
     style="fill:#ffffff;fill-opacity:1;stroke:#e9e9e9;stroke-width:4;stroke-linecap:butt;stroke-linejoin:miter;stroke-miterlimit:4;stroke-opacity:1;stroke-dasharray:none;filter:url(#filter3894)"
     transform="matrix(1.0293109,0,0,1.0293109,-9.111645,-12.114204)" />
  <path
     d="m 425.31612,438.75399 c 0.87973,-2.20405 1.36614,-2.17998 4.35596,-3.89842 3.11137,-0.17816 6.88012,1.15062 6.88012,1.15062 2.39665,2.91536 2.0363,3.08086 3.45872,6.35933 0,0 1.8502,6.02152 2.75,9.04 0.64,2.33 1.32,4.65 2.05,6.96 0.93229,3.4388 1.88111,6.87247 2.66,10.35 1.16133,3.85947 2.5909,10.95763 3.74,14.82 2.9,9.01 1.87,6.12 4.03,15.34 1.1,4.3 1.8,6.59 2.71,10.94 0.77231,2.98249 2.63473,9.59173 3.2,12.62 0.46,1.89 2.42,9.81 2.88,11.71 l 3.18,12.42 c 0.61066,2.65827 2.12008,11.27795 2.97,13.87 l 2.81,15.6 1.72,13.35 c 0.87,3.9 1.16,11.16 2.08,15.06 0.3,3.38 0.5,6.76 0.75,10.15 0.8,4.28 1.03,10.25 1.44,14.56 0.47,5.33 0.475,10.2825 0.22375,15.23 -0.25125,4.9475 -0.35875,13.09 -0.91375,18.4 l -1.85,12.42 -4.73,11.44 c -1.005,1.87 -2.82946,5.56743 -5.16375,7.0225 l -5.38625,3.3575 -6.62,0.18 c -0.955,-0.52 -4.79,-0.6725 -7.40875,-1.64625 -2.61875,-0.97375 -6.42125,-3.56875 -7.31125,-4.17375 -2.53,-2.21 -5.03,-4.46 -7.6,-6.61 l -0.24,-0.36 -10.77,-10.22 c -1.56,-0.77 -10.7,-7.97 -12.23,-8.75 -2.26344,-1.05484 -9.73793,-5.28609 -12.02,-6.3 -2.60672,-1.25338 -8.52019,-3.80227 -11.29,-4.61 -2.20422,-0.90527 -9.25345,-3.29286 -11.48,-4.14 -4.98,-1.41 -7.99,-1.91 -13.07,-2.88 -5.26,-1.12 -10.31,-0.95 -15.57,-2.01 -6.39,-0.03 -9.17,-0.15 -15.55,0.06 -3.98,0.63 -11.24,0.73 -15.22,1.33 -3.68,0.67 -8.58,1.69 -12.25,2.42 l -11.4,2.46 -9.61,4.31 -8.86,4.5 -9.04,5.36 c -4.15762,2.46514 -4.98,4.05 -10.46,7.18 -1.07,0.64 -6.94,4.09 -8.01,4.74 -3.15467,1.87725 -8.80692,4.78162 -12.06,6.48 -3.42019,1.34427 -5.25635,2.88517 -8.83,3.83 l -8.34,2.205 -6.34,0.605 -7.89,-1.31 -5.24,-4.03 -3.43,-4.405 -2.23,-6.405 -1.39,-7.21 -0.59,-8.01 c 0.27,-2.85 0.515,-5.605 0.415,-8.7525 -0.1,-3.1475 0.655,-8.2875 1.145,-11.1075 0.27,-2.02 1.68,-10.05 1.95,-12.07 0.42,-1.67 1.93,-10.96 2.25,-12.65 0.88,-3.55 0.7,-4.77 1.46,-8.34 0.58,-2.55 1.29,-5.47 1.64,-8.06 0.4058,-3.74015 1.93751,-7.37174 2.32,-11.09 l 2.44,-11.52 3.13,-11.55 c 0.86417,-2.57647 1.86984,-8.02068 2.58,-10.64 1.01659,-4.04119 1.55942,-5.69856 2.45,-9.77 0.82,-2.93 1.43,-5.51 2.29,-8.42 0.3463,-2.7466 1.1803,-5.37224 2.02,-8 0.47576,-3.46159 1.75898,-6.75551 2.83,-10.07 0.84,-3.09 1.97,-6.09 2.81,-9.18 1.27351,-3.21106 1.37438,-4.94423 2.52,-8.2 0.29782,-2.0735 2.01322,-7.93367 2.83,-9.84 2.19099,-5.92877 0.60034,-2.32217 3.53,-9.05 1.77781,-5.52244 1.99091,-6.09242 3.19,-9.81 0.90091,-1.92684 1.94185,-4.24794 3.18,-9.14 1.88433,-4.67095 2.37553,-5.49471 2.89,-7.55 0.88,-2.24 2.83,-6.13 3.51,-8.43 2.06,-4.23 2.03093,-8.08645 7.13093,-9.52645 2.11,-0.18 3.1634,0.0974 5.2734,0.12741 2.81,1.25 5.91567,6.36904 6.53567,9.61904 l 2.42,10.34 c 1.0975,2.1325 1.86687,6.50438 2.76672,9.01297 0.89984,2.50859 3.13015,6.3539 4.74953,9.03328 1.61938,2.67938 3.22781,5.89281 5.28391,8.43766 2.05609,2.54484 5.35984,5.62109 7.16984,7.22609 3.1325,2.6725 5.465,4.65688 7.25156,6.02344 1.78656,1.36656 4.5086,3.09015 9.17594,5.11656 l 8.8468,3.29383 8.9757,2.30617 9.655,2.06 10.855,1.26 8.485,0.625 10.485,-0.575 10.035,-1.76 7.235,-2.16 7.285,-2.5775 6.485,-3.3775 7.77,-5.555 7.52,-6.2075 7.12,-7.8075 3.84,-6.815 c 0.46,-1.08 4.93,-10.54 5.42,-11.6 l 3.46,-13.94 c 0.43,-4.97 1.8952,-10.20153 1.8952,-10.20153 z"
     id="path2480"
     sodipodi:nodetypes="cccccccccccccccccccscccsccscccccccccccccccczcccsccccccccscccccccccccccccccccccccccssscszccccccccccccccccc"
     inkscape:connector-curvature="0"
     style="fill:#fefefe" />
  <text
     xml:space="preserve"
     style="font-size:110.82358551px;font-style:normal;font-variant:normal;font-weight:bold;font-stretch:normal;line-height:125%;letter-spacing:0px;word-spacing:0px;fill:#bb0000;fill-opacity:1;stroke:none;font-family:Nimbus Sans L;-inkscape-font-specification:Nimbus Sans L Bold"
     x="627.8125"
     y="425.96869"
     id="text4049"
     sodipodi:linespacing="125%"><tspan
       sodipodi:role="line"
       id="tspan4051"
       x="627.8125"
       y="425.96869"
       style="font-style:normal;font-variant:normal;font-weight:bold;font-stretch:normal;fill:#bb0000;fill-opacity:1;font-family:Liberation Sans;-inkscape-font-specification:Liberation Sans Bold">uchess</tspan></text>
  <text
     xml:space="preserve"
     style="font-size:64.15940857px;font-style:normal;font-variant:normal;font-weight:bold;font-stretch:normal;line-height:125%;letter-spacing:0px;word-spacing:0px;fill:#bb0000;fill-opacity:1;stroke:none;font-family:Nimbus Sans L;-inkscape-font-specification:Nimbus Sans L Bold"
     x="794.59283"
     y="352.32938"
     id="text4136"
     sodipodi:linespacing="125%"><tspan
       sodipodi:role="line"
       id="tspan4138"
       x="794.59283"
       y="352.32938"
       style="font-weight:normal;fill:#bb0000;fill-opacity:1;-inkscape-font-specification:Liberation Sans;font-family:Liberation Sans;font-style:normal;font-stretch:normal;font-variant:normal">France</tspan></text>
  <rect
     style="fill:url(#linearGradient3813);fill-opacity:1"
     id="rect3805"
     width="150.97375"
     height="5.337256"
     x="634.26099"
     y="325.3783" />
  <g
     id="g3854"
     transform="translate(114.02418,34.136259)">
    <path
       style="fill:#002395"
       d="m 165.97936,503.24494 42.38722,0 0,84.77444 -42.38722,0 z"
       id="rect3857"
       inkscape:connector-curvature="0" />
    <path
       id="rect3855-2"
       d="m 208.36658,503.24438 0,84.775 42.375,0 0,-84.775 -42.375,0 z"
       style="fill:#ffffff"
       inkscape:connector-curvature="0" />
    <path
       sodipodi:nodetypes="ccccc"
       id="rect3853-0"
       d="m 250.74158,503.24438 0,84.775 42.4,0 0,-84.775 z"
       style="fill:#ed2939"
       inkscape:connector-curvature="0" />
    <path
       id="rect3857-8"
       d="m 165.97936,503.24494 0,84.775 42.4,0 42.375,0 42.4,0 0,-84.775 -42.4,0 -42.375,0 -42.4,0 z"
       style="fill:none;stroke:#e9e9e9;stroke-opacity:1"
       inkscape:connector-curvature="0" />
  </g>
  <g
     style="font-size:110.82358551px;font-style:normal;font-variant:normal;font-weight:bold;font-stretch:normal;line-height:125%;letter-spacing:0px;word-spacing:0px;fill:#bb0000;fill-opacity:1;stroke:none;font-family:Nimbus Sans L;-inkscape-font-specification:Nimbus Sans L Bold"
     id="text4049-7">
    <path
       d="m 649.89064,367.41834 0,32.84664 c -3e-5,2.27277 0.18035,4.36514 0.54113,6.27711 0.36073,1.87594 0.95597,3.49933 1.78573,4.87018 0.82971,1.3348 1.89393,2.38099 3.19267,3.13856 1.33476,0.75759 2.95815,1.13638 4.87018,1.13637 1.83981,10e-6 3.49927,-0.39681 4.9784,-1.19048 1.51513,-0.82973 2.81384,-1.98414 3.89614,-3.46324 1.08222,-1.51515 1.91195,-3.30088 2.4892,-5.3572 0.61324,-2.09235 0.91988,-4.38313 0.91993,-6.87236 l 0,-31.38558 15.20577,0 0,45.45498 c -6e-5,1.22658 -6e-5,2.52529 0,3.89615 0.036,1.33479 0.0721,2.61547 0.10823,3.84202 0.0721,1.1905 0.1262,2.27276 0.16234,3.24679 0.0721,0.93796 0.1262,1.64143 0.16234,2.11041 l -14.50231,0 c -0.0361,-0.43291 -0.10827,-1.11834 -0.21645,-2.0563 -0.0722,-0.97403 -0.14435,-2.03825 -0.21645,-3.19267 -0.0361,-1.15441 -0.0902,-2.30882 -0.16234,-3.46324 -0.0361,-1.1544 -0.0542,-2.12843 -0.0541,-2.9221 l -0.27056,0 c -2.02027,4.43728 -4.59965,7.66602 -7.73817,9.68624 -3.10252,2.02022 -6.80024,3.03033 -11.09318,3.03033 -3.49934,0 -6.47555,-0.57721 -8.92866,-1.73162 -2.45314,-1.15441 -4.45532,-2.72369 -6.00655,-4.70784 -1.51518,-2.02021 -2.61548,-4.40118 -3.3009,-7.14292 -0.68544,-2.74172 -1.02816,-5.6999 -1.02815,-8.87455 l 0,-37.17568 15.20578,0"
       style="fill:#bb0000;font-family:Liberation Sans;-inkscape-font-specification:Liberation Sans Bold"
       id="path3885" />
    <path
       d="m 727.70524,427.05095 c -4.65375,0 -8.73027,-0.72151 -12.22955,-2.16452 -3.46326,-1.44302 -6.34929,-3.48127 -8.6581,-6.11478 -2.30883,-2.63349 -4.04045,-5.79009 -5.19485,-9.46979 -1.15442,-3.71574 -1.73163,-7.8103 -1.73162,-12.28367 -10e-6,-4.87014 0.63131,-9.19918 1.89396,-12.98714 1.26263,-3.82394 3.08443,-7.03465 5.46542,-9.63213 2.38096,-2.63344 5.30306,-4.63563 8.76632,-6.00655 3.49929,-1.3708 7.46757,-2.05623 11.90487,-2.05629 3.78788,6e-5 7.14289,0.50511 10.06504,1.51516 2.95813,1.01017 5.50145,2.39907 7.62994,4.16671 2.1284,1.73167 3.84198,3.78797 5.14074,6.16889 1.33474,2.38102 2.25466,4.94237 2.75977,7.68406 l -15.314,0.75758 c -0.43295,-2.99421 -1.51521,-5.37519 -3.24679,-7.14293 -1.73165,-1.80372 -4.18478,-2.7056 -7.35937,-2.70565 -4.07655,5e-5 -7.05277,1.67755 -8.92866,5.03252 -1.87594,3.35505 -2.8139,8.22522 -2.81388,14.61053 -2e-5,13.49221 3.9863,20.2383 11.95899,20.23829 2.88599,10e-6 5.30304,-0.90188 7.25115,-2.70565 1.94803,-1.83984 3.15655,-4.56352 3.62558,-8.17108 l 15.25988,0.70347 c -0.36081,2.70567 -1.19054,5.3031 -2.4892,7.79228 -1.26269,2.45314 -2.99431,4.6357 -5.19485,6.54769 -2.16457,1.87592 -4.79807,3.39108 -7.90051,4.5455 -3.10252,1.11833 -6.65595,1.6775 -10.66028,1.6775"
       style="fill:#bb0000;font-family:Liberation Sans;-inkscape-font-specification:Liberation Sans Bold"
       id="path3887" />
    <path
       d="m 779.97847,379.10676 c 2.05627,-4.47329 4.63566,-7.72008 7.73817,-9.74035 3.10245,-2.02016 6.80017,-3.03027 11.09318,-3.03033 3.53534,6e-5 6.51156,0.57726 8.92866,1.73161 2.45307,1.15447 4.43722,2.74179 5.95244,4.76196 1.55118,2.02027 2.66952,4.40124 3.35501,7.14292 0.68537,2.74177 1.02809,5.69995 1.02815,8.87455 l 0,37.12157 -15.15166,0 0,-32.79253 c -5e-5,-2.27271 -0.18043,-4.34704 -0.54114,-6.223 -0.36079,-1.91196 -0.95604,-3.53535 -1.78573,-4.87018 -0.82977,-1.37082 -1.91203,-2.43504 -3.24678,-3.19267 -1.33483,-0.75753 -2.95822,-1.13633 -4.87018,-1.13637 -1.83988,4e-5 -3.51738,0.41491 -5.03252,1.2446 -1.47911,0.7937 -2.75979,1.94811 -3.84202,3.46323 -1.08229,1.47914 -1.93006,3.26487 -2.54332,5.3572 -0.57723,2.05633 -0.86583,4.32908 -0.86581,6.81825 l 0,31.33147 -15.20577,0 0,-80.30381 15.20577,0 0,21.9158 c -2e-5,1.15447 -0.0181,2.32692 -0.0541,3.51735 -0.0361,1.15446 -0.0902,2.25476 -0.16234,3.30089 -0.0361,1.01017 -0.0722,1.93009 -0.10823,2.75977 -0.0361,0.82978 -0.0722,1.47914 -0.10822,1.94807 l 0.21645,0"
       style="fill:#bb0000;font-family:Liberation Sans;-inkscape-font-specification:Liberation Sans Bold"
       id="path3889" />
    <path
       d="m 856.71081,427.05095 c -4.22084,0 -8.02679,-0.61328 -11.41786,-1.83984 -3.35502,-1.26264 -6.22301,-3.1566 -8.60398,-5.68188 -2.38098,-2.56134 -4.20279,-5.75401 -5.46542,-9.57801 -1.26264,-3.86005 -1.89396,-8.36947 -1.89395,-13.52827 -10e-6,-5.59165 0.73954,-10.29948 2.21863,-14.12352 1.51516,-3.82394 3.53538,-6.90838 6.06067,-9.25333 2.56133,-2.38092 5.50147,-4.0945 8.82043,-5.14074 3.31891,-1.04613 6.81822,-1.56922 10.49794,-1.56928 4.61761,6e-5 8.54982,0.81175 11.79665,2.43508 3.28281,1.58738 5.97042,3.82405 8.06285,6.71003 2.09231,2.88607 3.62552,6.34931 4.59961,10.38971 0.97398,4.0044 1.46099,8.44167 1.46105,13.31181 l 0,0.43291 -37.55448,0 c -2e-5,2.45315 0.21644,4.74393 0.64936,6.87236 0.43288,2.09239 1.13635,3.9142 2.11041,5.46542 0.97401,1.51518 2.23665,2.7237 3.78792,3.62558 1.55121,0.86582 3.42713,1.29872 5.62776,1.29871 2.66954,1e-5 4.8521,-0.55916 6.54768,-1.6775 1.6955,-1.1544 2.90403,-2.9221 3.62558,-5.30309 l 14.33996,1.24461 c -0.64941,1.65948 -1.56933,3.42717 -2.75977,5.30308 -1.15446,1.87592 -2.7057,3.60754 -4.65372,5.19485 -1.94812,1.55125 -4.38321,2.84996 -7.30527,3.89614 -2.88607,1.01011 -6.40341,1.51517 -10.55205,1.51517 m 0,-51.13686 c -1.55127,5e-5 -3.01232,0.27062 -4.38316,0.8117 -1.33481,0.5051 -2.50726,1.33483 -3.51735,2.4892 -0.97405,1.11838 -1.76771,2.57943 -2.38097,4.38316 -0.6133,1.80381 -0.95602,3.96833 -1.02815,6.49357 l 22.72749,0 c -0.28864,-4.72584 -1.42502,-8.26122 -3.40912,-10.60617 -1.98418,-2.38092 -4.65376,-3.57141 -8.00874,-3.57146"
       style="fill:#bb0000;font-family:Liberation Sans;-inkscape-font-specification:Liberation Sans Bold"
       id="path3891" />
    <path
       d="m 943.77875,408.86896 c -6e-5,2.81389 -0.5953,5.33916 -1.78573,7.57583 -1.15447,2.23668 -2.85001,4.14867 -5.08663,5.73598 -2.23672,1.55125 -4.97845,2.75977 -8.22519,3.62558 -3.24682,0.82973 -6.94454,1.2446 -11.09318,1.2446 -3.71579,0 -7.0708,-0.27057 -10.06503,-0.8117 -2.99428,-0.54113 -5.62778,-1.42497 -7.90051,-2.65154 -2.23669,-1.26263 -4.1126,-2.88602 -5.62776,-4.87017 -1.51517,-1.98414 -2.65155,-4.43726 -3.40913,-7.35938 l 13.36594,-2.00219 c 0.43288,1.62341 1.02813,2.94016 1.78573,3.95026 0.75756,1.01012 1.69552,1.78574 2.81388,2.32686 1.11831,0.54114 2.41702,0.90189 3.89614,1.08226 1.51514,0.18039 3.22872,0.27058 5.14074,0.27057 1.73159,10e-6 3.33694,-0.0902 4.81607,-0.27057 1.51512,-0.21644 2.81384,-0.55916 3.89614,-1.02815 1.11829,-0.50504 1.9841,-1.19047 2.59742,-2.05629 0.61324,-0.90187 0.91988,-2.02021 0.91993,-3.35501 -5e-5,-1.51515 -0.45099,-2.70564 -1.35283,-3.57147 -0.86585,-0.90186 -2.07437,-1.62337 -3.62558,-2.16452 -1.5152,-0.57718 -3.31897,-1.0642 -5.4113,-1.46105 -2.05633,-0.43288 -4.25693,-0.9199 -6.6018,-1.46106 -2.45315,-0.5411 -4.8702,-1.19046 -7.25115,-1.94807 -2.38099,-0.75755 -4.50944,-1.7857 -6.38535,-3.08444 -1.87593,-1.29869 -3.39109,-2.94011 -4.54549,-4.92429 -1.15442,-2.02019 -1.73163,-4.5635 -1.73162,-7.62995 -10e-6,-2.77776 0.54112,-5.24892 1.62339,-7.41349 1.08225,-2.20055 2.66957,-4.05843 4.76195,-5.57365 2.09236,-1.55118 4.67175,-2.72363 7.73817,-3.51735 3.10246,-0.82967 6.65588,-1.24454 10.66028,-1.2446 3.1746,6e-5 6.13278,0.3067 8.87454,0.91993 2.74169,0.57726 5.19481,1.51522 7.35938,2.81388 2.16447,1.26269 3.96824,2.88608 5.41131,4.87017 1.47904,1.9842 2.50718,4.38321 3.08444,7.19704 l -13.47415,1.40694 c -0.25257,-1.40689 -0.70351,-2.56131 -1.35283,-3.46323 -0.6494,-0.93792 -1.46109,-1.67746 -2.43509,-2.21864 -0.938,-0.54108 -2.03829,-0.90184 -3.3009,-1.08226 -1.26267,-0.21641 -2.65157,-0.32463 -4.1667,-0.32468 -3.60757,5e-5 -6.31322,0.46903 -8.11696,1.40694 -1.80379,0.90193 -2.70568,2.43513 -2.70566,4.59961 -2e-5,1.33483 0.36073,2.39905 1.08226,3.19267 0.75756,0.7937 1.80375,1.46109 3.13856,2.00219 1.37084,0.50509 2.97619,0.95603 4.81607,1.35282 1.87588,0.36079 3.91414,0.81174 6.11477,1.35283 2.70562,0.57724 5.35716,1.26267 7.95463,2.0563 2.63345,0.75761 4.96031,1.82184 6.98058,3.19267 2.05625,1.33482 3.69768,3.06643 4.92429,5.19485 1.26259,2.12848 1.8939,4.83413 1.89396,8.11697"
       style="fill:#bb0000;font-family:Liberation Sans;-inkscape-font-specification:Liberation Sans Bold"
       id="path3893" />
    <path
       d="m 1005.4677,408.86896 c -1e-4,2.81389 -0.5953,5.33916 -1.7857,7.57583 -1.1545,2.23668 -2.8501,4.14867 -5.08668,5.73598 -2.23672,1.55125 -4.97844,2.75977 -8.22518,3.62558 -3.24683,0.82973 -6.94455,1.2446 -11.09318,1.2446 -3.7158,0 -7.0708,-0.27057 -10.06504,-0.8117 -2.99427,-0.54113 -5.62777,-1.42497 -7.90051,-2.65154 -2.23668,-1.26263 -4.1126,-2.88602 -5.62776,-4.87017 -1.51517,-1.98414 -2.65154,-4.43726 -3.40912,-7.35938 l 13.36593,-2.00219 c 0.43289,1.62341 1.02813,2.94016 1.78573,3.95026 0.75756,1.01012 1.69552,1.78574 2.81388,2.32686 1.11832,0.54114 2.41703,0.90189 3.89614,1.08226 1.51514,0.18039 3.22872,0.27058 5.14075,0.27057 1.73158,10e-6 3.33693,-0.0902 4.81606,-0.27057 1.51513,-0.21644 2.81384,-0.55916 3.89614,-1.02815 1.1183,-0.50504 1.98411,-1.19047 2.59743,-2.05629 0.61324,-0.90187 0.91988,-2.02021 0.91992,-3.35501 -4e-5,-1.51515 -0.45098,-2.70564 -1.35283,-3.57147 -0.86585,-0.90186 -2.07437,-1.62337 -3.62557,-2.16452 -1.5152,-0.57718 -3.31897,-1.0642 -5.41131,-1.46105 -2.05633,-0.43288 -4.25692,-0.9199 -6.6018,-1.46106 -2.45315,-0.5411 -4.87019,-1.19046 -7.25115,-1.94807 -2.38099,-0.75755 -4.50944,-1.7857 -6.38534,-3.08444 -1.87593,-1.29869 -3.3911,-2.94011 -4.5455,-4.92429 -1.15442,-2.02019 -1.73162,-4.5635 -1.73162,-7.62995 0,-2.77776 0.54113,-5.24892 1.62339,-7.41349 1.08226,-2.20055 2.66957,-4.05843 4.76195,-5.57365 2.09236,-1.55118 4.67175,-2.72363 7.73818,-3.51735 3.10245,-0.82967 6.65588,-1.24454 10.66027,-1.2446 3.1746,6e-5 6.13278,0.3067 8.87455,0.91993 2.74168,0.57726 5.19481,1.51522 7.35938,2.81388 2.16447,1.26269 3.96824,2.88608 5.41129,4.87017 1.479,1.9842 2.5072,4.38321 3.0845,7.19704 l -13.4742,1.40694 c -0.25257,-1.40689 -0.70351,-2.56131 -1.35282,-3.46323 -0.6494,-0.93792 -1.4611,-1.67746 -2.43509,-2.21864 -0.938,-0.54108 -2.0383,-0.90184 -3.3009,-1.08226 -1.26267,-0.21641 -2.65157,-0.32463 -4.16671,-0.32468 -3.60756,5e-5 -6.31322,0.46903 -8.11696,1.40694 -1.80379,0.90193 -2.70567,2.43513 -2.70565,4.59961 -2e-5,1.33483 0.36073,2.39905 1.08226,3.19267 0.75756,0.7937 1.80374,1.46109 3.13856,2.00219 1.37083,0.50509 2.97619,0.95603 4.81606,1.35282 1.87589,0.36079 3.91415,0.81174 6.11478,1.35283 2.70561,0.57724 5.35715,1.26267 7.95462,2.0563 2.63346,0.75761 4.96032,1.82184 6.98059,3.19267 2.05626,1.33482 3.69766,3.06643 4.92426,5.19485 1.2626,2.12848 1.8939,4.83413 1.894,8.11697"
       style="fill:#bb0000;font-family:Liberation Sans;-inkscape-font-specification:Liberation Sans Bold"
       id="path3895" />
  </g>
  <g
     style="font-size:64.15940857px;font-style:normal;font-variant:normal;font-weight:bold;font-stretch:normal;line-height:125%;letter-spacing:0px;word-spacing:0px;fill:#bb0000;fill-opacity:1;stroke:none;font-family:Nimbus Sans L;-inkscape-font-specification:Nimbus Sans L Bold"
     id="text4136-0">
    <path
       d="m 805.83959,313.0756 0,16.41578 24.62368,0 0,4.9498 -24.62368,0 0,17.8882 -5.98362,0 0,-44.14093 31.35917,0 0,4.88715 -25.37555,0"
       style="font-weight:normal;fill:#bb0000;font-family:Liberation Sans;-inkscape-font-specification:Liberation Sans"
       id="path3872" />
    <path
       d="m 838.2639,352.32938 0,-26.00211 c -1e-5,-0.71007 -0.0104,-1.43061 -0.0313,-2.16162 0,-0.75184 -0.0104,-1.47238 -0.0313,-2.16162 -0.0209,-0.68918 -0.0418,-1.33662 -0.0626,-1.94233 -0.0209,-0.60563 -0.0418,-1.14865 -0.0627,-1.62904 l 5.32573,0 c 0.0209,0.48039 0.0418,1.03385 0.0627,1.66037 0.0418,0.60571 0.0731,1.23226 0.094,1.87967 0.0418,0.64747 0.0626,1.27403 0.0627,1.87967 0.0209,0.58482 0.0313,1.08606 0.0313,1.50374 l 0.12531,0 c 0.39681,-1.29486 0.81451,-2.41221 1.25311,-3.35208 0.45946,-0.96069 0.99204,-1.74388 1.59772,-2.34959 0.60566,-0.62652 1.3262,-1.08599 2.16162,-1.37842 0.83539,-0.31325 1.84833,-0.46988 3.0388,-0.46992 0.45946,4e-5 0.89805,0.0418 1.31577,0.12531 0.41769,0.0627 0.74141,0.12535 0.97116,0.18797 l 0,5.16909 c -0.37595,-0.10439 -0.81454,-0.17749 -1.31577,-0.21929 -0.50126,-0.0626 -1.06516,-0.094 -1.6917,-0.094 -1.2949,3e-5 -2.40181,0.29243 -3.32075,0.87718 -0.89808,0.58482 -1.6395,1.39934 -2.22428,2.44357 -0.56391,1.02341 -0.98161,2.25563 -1.25311,3.69669 -0.27152,1.42022 -0.40727,2.97616 -0.40726,4.66785 l 0,17.6689 -5.63901,0"
       style="font-weight:normal;fill:#bb0000;font-family:Liberation Sans;-inkscape-font-specification:Liberation Sans"
       id="path3874" />
    <path
       d="m 868.21331,352.95593 c -3.4043,0 -5.96274,-0.89806 -7.67532,-2.69419 -1.71259,-1.79613 -2.56889,-4.26058 -2.56888,-7.39337 -10e-6,-2.23471 0.4177,-4.06216 1.25311,-5.48237 0.85629,-1.44107 1.9632,-2.56887 3.32075,-3.38341 1.37842,-0.8145 2.94481,-1.3784 4.69917,-1.6917 1.75435,-0.31326 3.54003,-0.49078 5.35706,-0.53257 l 7.61267,-0.12532 0,-1.84834 c -3e-5,-1.39928 -0.14622,-2.58974 -0.43859,-3.57137 -0.29242,-0.98158 -0.74145,-1.77522 -1.3471,-2.38092 -0.60569,-0.60564 -1.368,-1.04423 -2.28693,-1.31577 -0.89808,-0.29236 -1.96323,-0.43856 -3.19544,-0.43859 -1.08605,3e-5 -2.06765,0.0836 -2.94482,0.25063 -0.87719,0.14622 -1.6395,0.42817 -2.28693,0.84585 -0.64745,0.39685 -1.16958,0.9503 -1.56639,1.66037 -0.39683,0.68924 -0.65789,1.56642 -0.7832,2.63154 l -5.88963,-0.53257 c 0.20885,-1.33663 0.60567,-2.55841 1.19046,-3.66536 0.58478,-1.12777 1.40975,-2.09893 2.4749,-2.91349 1.08602,-0.81449 2.43312,-1.44104 4.04129,-1.87967 1.62903,-0.45944 3.59224,-0.68917 5.88963,-0.68921 4.26057,4e-5 7.46644,0.98164 9.61765,2.94482 2.15115,1.94235 3.22673,4.76186 3.22677,8.45851 l 0,14.59877 c -4e-5,1.67083 0.21926,2.93438 0.65788,3.79067 0.43856,0.83542 1.27397,1.25312 2.50623,1.25312 0.31324,0 0.62652,-0.0209 0.93983,-0.0627 0.31325,-0.0418 0.61608,-0.094 0.90851,-0.15664 l 0,3.50872 c -0.71013,0.16708 -1.42023,0.29239 -2.13029,0.37593 -0.68925,0.0835 -1.43067,0.12531 -2.22428,0.12531 -1.06518,0 -1.98413,-0.13575 -2.75685,-0.40726 -0.7519,-0.29239 -1.36801,-0.72054 -1.84834,-1.28444 -0.48039,-0.58478 -0.84588,-1.29488 -1.09648,-2.13029 -0.25064,-0.85629 -0.40728,-1.84834 -0.46991,-2.97615 l -0.18797,0 c -0.6057,1.08604 -1.27402,2.06765 -2.00498,2.94482 -0.71012,0.87718 -1.54553,1.62905 -2.50623,2.2556 -0.96074,0.60568 -2.05721,1.07559 -3.28942,1.40976 -1.21136,0.33416 -2.61067,0.50124 -4.19793,0.50124 m 1.28444,-4.22925 c 1.79611,0 3.3625,-0.32372 4.69917,-0.97117 1.35752,-0.66832 2.47488,-1.51417 3.35208,-2.53755 0.89804,-1.02337 1.56637,-2.14073 2.00498,-3.35208 0.43857,-1.21133 0.65786,-2.37046 0.65789,-3.47739 l 0,-2.78818 -6.17158,0.12531 c -1.37845,0.0209 -2.69421,0.12533 -3.94731,0.31328 -1.23224,0.1671 -2.31827,0.51171 -3.2581,1.03382 -0.93984,0.52215 -1.69171,1.25313 -2.2556,2.19295 -0.54303,0.93985 -0.81453,2.17207 -0.81452,3.69668 -10e-6,1.83791 0.49079,3.2581 1.4724,4.26059 1.00248,1.00249 2.42268,1.50374 4.26059,1.50374"
       style="font-weight:normal;fill:#bb0000;font-family:Liberation Sans;-inkscape-font-specification:Liberation Sans"
       id="path3876" />
    <path
       d="m 916.80279,352.32938 0,-21.4909 c -3e-5,-1.64991 -0.12534,-3.02833 -0.37594,-4.13527 -0.22976,-1.10689 -0.61614,-1.99452 -1.15913,-2.66287 -0.54304,-0.68918 -1.26358,-1.16954 -2.16162,-1.44108 -0.8772,-0.29236 -1.97367,-0.43856 -3.28942,-0.43859 -1.33667,3e-5 -2.54802,0.24021 -3.63403,0.72054 -1.06516,0.4595 -1.98411,1.13827 -2.75685,2.03631 -0.75188,0.87721 -1.33667,1.97368 -1.75436,3.28942 -0.41771,1.29491 -0.62657,2.7882 -0.62656,4.47988 l 0,19.64256 -5.63901,0 0,-26.65999 c 0,-0.71007 -0.0104,-1.4515 -0.0313,-2.22428 -10e-6,-0.79361 -0.0104,-1.53503 -0.0313,-2.22428 -0.0209,-0.71006 -0.0418,-1.31573 -0.0627,-1.81701 -0.0209,-0.50121 -0.0418,-0.82493 -0.0627,-0.97116 l 5.32573,0 c 0.0209,0.10446 0.0418,0.38641 0.0626,0.84585 0.0209,0.45951 0.0418,0.99208 0.0627,1.59772 0.0418,0.58482 0.0731,1.19049 0.094,1.81701 0.0209,0.6057 0.0313,1.11739 0.0313,1.53507 l 0.094,0 c 0.543,-0.98158 1.13823,-1.8692 1.78568,-2.66287 0.64743,-0.79361 1.3993,-1.46193 2.25561,-2.00498 0.85628,-0.56387 1.83788,-0.99201 2.94481,-1.28444 1.1069,-0.31325 2.39134,-0.46988 3.85333,-0.46992 1.87964,4e-5 3.49825,0.22977 4.85581,0.68921 1.35751,0.45951 2.47487,1.16961 3.35208,2.1303 0.87715,0.96075 1.51415,2.20342 1.911,3.72801 0.41767,1.50376 0.62652,3.29989 0.62655,5.38839 l 0,22.58737 -5.67033,0"
       style="font-weight:normal;fill:#bb0000;font-family:Liberation Sans;-inkscape-font-specification:Liberation Sans"
       id="path3878" />
    <path
       d="m 935.28621,335.22438 c -10e-6,1.94234 0.13574,3.72802 0.40726,5.35706 0.29238,1.62906 0.77274,3.03881 1.44108,4.22926 0.66831,1.16957 1.54549,2.07808 2.63154,2.72552 1.1069,0.64744 2.46444,0.97116 4.07262,0.97116 2.00496,0 3.67577,-0.54301 5.01245,-1.62905 1.35752,-1.08602 2.19292,-2.75684 2.50623,-5.01245 l 5.70166,0.37593 c -0.188,1.39932 -0.59526,2.74642 -1.22178,4.04129 -0.62659,1.29489 -1.48288,2.43314 -2.56889,3.41474 -1.06517,0.98161 -2.37049,1.77524 -3.91598,2.38091 -1.54552,0.58479 -3.33121,0.87718 -5.35706,0.87718 -2.65243,0 -4.90804,-0.44903 -6.76681,-1.34709 -1.85879,-0.89807 -3.37297,-2.13029 -4.54253,-3.69669 -1.1487,-1.58727 -1.9841,-3.44605 -2.50623,-5.57635 -0.52213,-2.15117 -0.7832,-4.47987 -0.7832,-6.98611 0,-2.27647 0.18797,-4.28145 0.5639,-6.01495 0.37593,-1.75433 0.89806,-3.27895 1.5664,-4.57386 0.6892,-1.31574 1.49328,-2.41221 2.41224,-3.28942 0.91894,-0.89804 1.91099,-1.60813 2.97614,-2.1303 1.08602,-0.54298 2.22427,-0.92935 3.41474,-1.15913 1.19044,-0.25058 2.39134,-0.37589 3.6027,-0.37593 1.90054,4e-5 3.59224,0.2611 5.07511,0.7832 1.48283,0.52216 2.75682,1.2427 3.82199,2.16162 1.08601,0.89809 1.96319,1.96324 2.63154,3.19544 0.6683,1.23225 1.13822,2.55846 1.40976,3.97863 l -5.79565,0.43859 c -0.29242,-1.87964 -1.03385,-3.37293 -2.22428,-4.47988 -1.19048,-1.10689 -2.88218,-1.66034 -5.07511,-1.66037 -1.60818,3e-5 -2.95527,0.27153 -4.04129,0.81452 -1.06516,0.52216 -1.9319,1.32624 -2.60021,2.41224 -0.66834,1.06517 -1.1487,2.41227 -1.44108,4.04129 -0.27152,1.62907 -0.40727,3.54007 -0.40726,5.733"
       style="font-weight:normal;fill:#bb0000;font-family:Liberation Sans;-inkscape-font-specification:Liberation Sans"
       id="path3880" />
    <path
       d="m 967.39725,336.57147 c -10e-6,1.77526 0.17751,3.41475 0.53257,4.91847 0.37592,1.48287 0.93982,2.76731 1.6917,3.85333 0.77274,1.06515 1.75435,1.90056 2.94482,2.50623 1.19044,0.58479 2.62108,0.87718 4.29191,0.87718 2.44355,0 4.39632,-0.4908 5.85831,-1.47241 1.48282,-0.9816 2.48531,-2.22427 3.00747,-3.72802 l 4.9498,1.40976 c -0.35508,0.93984 -0.85633,1.89012 -1.50374,2.85083 -0.62658,0.93984 -1.47244,1.79613 -2.53755,2.56888 -1.06518,0.75187 -2.40183,1.37843 -4.00997,1.87967 -1.5873,0.48036 -3.50873,0.72054 -5.76432,0.72054 -5.01246,0 -8.83446,-1.49329 -11.46599,-4.47988 -2.61065,-2.98658 -3.91598,-7.42468 -3.91598,-13.31433 0,-3.17453 0.39682,-5.85828 1.19046,-8.05125 0.79364,-2.21381 1.87967,-4.00994 3.2581,-5.38839 1.37841,-1.37839 2.98657,-2.37044 4.82448,-2.97614 1.83789,-0.62653 3.8011,-0.9398 5.88964,-0.93984 2.84037,4e-5 5.21084,0.45951 7.11142,1.37843 1.92141,0.91898 3.45647,2.19297 4.60519,3.82199 1.16954,1.60819 1.99451,3.50874 2.4749,5.70167 0.50121,2.19297 0.75183,4.56344 0.75187,7.11142 l 0,0.75186 -24.18509,0 m 18.35811,-4.32324 c -0.31331,-3.57135 -1.22181,-6.17155 -2.72552,-7.80063 -1.50376,-1.6499 -3.66538,-2.47487 -6.48487,-2.4749 -0.93985,3e-5 -1.9319,0.15667 -2.97614,0.46992 -1.02339,0.29242 -1.97367,0.825 -2.85083,1.59772 -0.87719,0.77278 -1.61862,1.82748 -2.22428,3.16411 -0.60568,1.31579 -0.95029,2.99705 -1.03382,5.04378 l 18.29546,0"
       style="font-weight:normal;fill:#bb0000;font-family:Liberation Sans;-inkscape-font-specification:Liberation Sans"
       id="path3882" />
  </g>
  <g
     transform="matrix(0.79999999,0,0,0.79999999,-1.1329586e-5,0)"
     style="font-size:40px;font-style:normal;font-weight:normal;line-height:125%;letter-spacing:0px;word-spacing:0px;fill:#000000;fill-opacity:1;stroke:none;font-family:Sans"
     id="text3064" />
  <path
     style="fill:#bc0000;fill-opacity:1;stroke:none"
     d="m 492.04998,296.975 0,135.475 c 20.5408,-9.51665 43.66672,0 55.5,0 l 20.3,0 c 35.92872,0.51491 52.6816,-46.49286 53.17496,-67.725 0,-37.39016 -23.17512,-67.71428 -51.77496,-67.75 l -0.025,0 -0.025,0 -20.97504,0 c -12.85824,0 -39.03936,8.02915 -56.17496,0 z m 41.77496,14.85 11.3,0.025 c 28.89344,0 35.45012,24.81324 35.45008,50.9 -4e-5,26.08676 -3.48199,51.18284 -35.45008,50.9 l -11.12496,-0.05 z"
     id="rect3071"
     inkscape:connector-curvature="0"
     sodipodi:nodetypes="ccccccccsccczccc" />
</svg>
